<?xml version="1.0" standalone="no"?>
<!DOCTYPE svg PUBLIC "-//W3C//DTD SVG 20010904//EN"
 "http://www.w3.org/TR/2001/REC-SVG-20010904/DTD/svg10.dtd">
<svg version="1.0" xmlns="http://www.w3.org/2000/svg"
 width="156.000000pt" height="156.000000pt" viewBox="0 0 156.000000 156.000000"
 preserveAspectRatio="xMidYMid meet">
<metadata>
Created by potrace 1.11, written by Peter Selinger 2001-2013
</metadata>
<g transform="translate(0.000000,156.000000) scale(0.100000,-0.100000)"
fill="#000000" stroke="none">
<path d="M0 1424 l0 -55 63 1 c93 2 117 1 115 -7 -3 -14 16 -90 82 -318 18
-60 36 -123 40 -140 4 -16 24 -86 44 -155 20 -69 43 -150 52 -180 31 -108 -38
-96 532 -95 275 0 503 2 506 5 3 3 17 66 31 140 14 74 32 169 40 210 9 41 18
109 21 150 3 50 10 79 20 87 9 6 14 22 12 35 l-3 23 -463 1 c-350 0 -465 -2
-472 -12 -6 -6 -9 -29 -8 -50 l3 -39 408 0 408 0 -6 -35 c-31 -182 -64 -354
-74 -388 l-6 -23 -415 0 c-228 1 -418 5 -422 9 -5 5 -22 58 -38 118 -17 60
-41 145 -55 189 -13 44 -33 114 -44 155 -29 107 -88 316 -108 378 l-17 52
-123 0 -123 0 0 -56z"/>
<path d="M726 923 c-3 -4 -6 -60 -6 -125 l0 -119 53 3 52 3 1 105 c2 138 3
137 -50 138 -24 1 -46 -2 -50 -5z"/>
<path d="M1041 906 c-5 -12 -8 -66 -7 -121 l1 -100 50 0 50 0 3 109 c1 61 -2
114 -7 119 -5 5 -26 11 -46 12 -29 2 -38 -2 -44 -19z"/>
<path d="M495 361 c-22 -10 -51 -35 -64 -55 -20 -31 -22 -43 -17 -89 7 -55 42
-107 72 -107 8 0 17 -7 20 -15 9 -21 112 -21 120 0 4 8 10 13 14 10 4 -2 23
10 43 28 50 44 58 103 25 167 -41 76 -127 101 -213 61z m115 -133 c0 -31 -28
-49 -63 -40 -23 6 -31 25 -23 56 12 48 86 35 86 -16z"/>
<path d="M1165 366 c-40 -18 -61 -43 -75 -93 -18 -60 2 -128 44 -154 17 -10
36 -23 43 -28 14 -13 123 -15 123 -3 0 5 16 16 35 25 87 42 81 187 -11 248
-34 22 -114 25 -159 5z m107 -103 c44 -39 -2 -96 -57 -71 -29 13 -32 34 -9 66
18 26 41 28 66 5z"/>
</g>
</svg>
