<svg xmlns="http://www.w3.org/2000/svg" xmlns:xlink="http://www.w3.org/1999/xlink" width="22" height="22"><defs><path id="a" d="M21.77 12.14c0 2.43-.02 4.82-.16 7.21-.02.31-.28.38-.22.76-.1.24-.04.63-.23.76-2.47.42-5.57.47-8.28.23-2.93.08-5.58.02-8.42.23-.48-.01-.76-.2-1.14-.3-.67-.05-1.4-.03-1.9-.23-.35-.39-.43-1.04-.68-1.52-.1-.64-.3-1.17-.46-1.75.3-2.87.4-6.65-.07-9.41C.26 6.8.1 5.68.13 4.4v-1c-.05-.25.1-.7-.08-.83v-.91c.19-.16-.18-.4 0-.61C.15.82.52.87.66.68c.26-.07.47-.19.68-.3.52-.12 1-.27 1.6-.3.12.01.13-.08.23-.08h2.2c1.74.23 3.7.38 5.7.38 2.02 0 4.05-.03 5.99.07.64.04 1.24.13 1.9.15.54.12 1.32 0 1.74.23.24.2.2.67.46.84.04.36.05.76.15 1.06.07.74.13 1.49.15 2.28-.04 2.34.3 4.74.3 7.13zM8.78 5.92c-.19.14-.2.45-.45.53-.25 0-.38.13-.69.07-.01.22-.13.33-.38.3-.35.58-.79 1.09-1.13 1.68-.3 1.1-.43 2.36-.38 3.8.14.4.23.88.45 1.2.1.45.42.66.53 1.07.23 0 .26.2.46.23.12.1.35.1.45.23.34.09.61.25.84.45.35.03.6.17.84.3.78.13 1.6.21 2.43.31.3-.3.76-.45 1.2-.6.27.08.55.23.84.07.25-.08.34-.32.46-.53.2-.13.36-.3.46-.54.35-.27.52-.74.83-1.06.09-.24.14-.52.3-.68.18-1.44.03-3.07-.3-4.25 0-.31-.01-.62.08-.84-.6.1-.7-.32-1.14-.38a1.92 1.92 0 0 0-1.06-.38c0-.07-.1-.06-.16-.07v-.08c-.4-.14-.03-.5-.15-.68-.61-.18-1.19-.38-1.9-.46-.95-.03-1.67.15-2.43.3zM7.11 3.18c.09.83-.25 1.61-.15 2.2.35-.03.84.08 1.06-.07.02-.24-.13-.32-.07-.6-.23 0-.46 0-.46-.23h.46c-.06-.71.03-1.35 0-2.2-.13-.05-.45.09-.46-.08.18-.23.67-.15.53-.69-.13-.1-.7-.14-.83 0 .06.02.15 0 .15.08-.02.25-.3.25-.3.53 0 .37-.04.8.07 1.06zM6.43 1.6c.05.3-.1.8.08.99.08-.23.25-.66.07-.91-.02-.06-.06-.1-.15-.08zm.15 1.82c.02-.22-.02-.38-.15-.45-.02.21.02.38.15.45zm0 1.37c0-.1-.02-.3-.07-.15 0 .1.01.29.07.15zM6.43 5c-.04.1-.11.19-.15.3.1.1.37.12.38-.08-.15 0-.05-.25-.23-.22zM4.08 3.79c.04.1.29.01.3.15-.55.16-.43.99-.53 1.6.54.03.88-.14 1.44-.08-.2-.65-.14-1.57-.15-2.43-.06-.17-.43-.02-.38-.3.18.02.3-.01.38-.08V1.51c-.37.04-.89-.07-1.14.08.13.56-.07 1.24 0 1.97.09.02.08.12.08.23zm-.53 0c.17-.1.25-.6-.08-.6-.14.07-.13.62.08.6zm-.16.99c.34.08.3-.67.08-.68-.04.37 0 .37-.08.68zm.23-2.05c.12-.11.11-.43-.15-.38-.12.11-.11.43.15.38zm0-1.14c-.11.01-.28-.03-.3.07.14.02.05.26.23.23.02-.1.1-.14.07-.3zM3.4 5.31c0 .1-.03.17-.07.23.18.11.22-.26.07-.23zM2.33 1.59c-.06.32.4.26.38 0zm-.6.08c-.3-.1-.6.2-.39.38.06-.2.35-.16.38-.38zm-.46.75c-.06.47.1.71.07 1.14.34.06.34-.22.61-.22.05-.4-.05-.66-.07-1 0-.09.1-.1.07-.22.05-.23.4-.15.3-.53h-.22c0 .1-.1.1-.08.23l-.68.6zm.07 3.27c.32-.12.79-.07 1.07-.23-.28-.5-.16-1.4-.46-1.9-.21.17-.41.35-.6.54zm18.22 11.08c.23-.84.37-1.75.46-2.73-.1-.46-.13-.99-.23-1.44-.04-1.79.1-3.4.15-5.09-.11-.21-.08-.57-.22-.76-.52-.05-1.04-.02-1.45 0-.23.02-.46.01-.68 0-.57-.03-1.34-.3-1.67-.07 1.06.73 1.55 2.04 1.75 3.64v1.37c-.21 2.4-1.6 3.61-2.96 4.86-.2.15-.45.26-.69.38-1.7.36-3.84.36-5.54 0-.87-.53-1.6-1.19-2.5-1.68-.4-.4-.76-.86-1-1.44-.36-2.16.01-4.5.62-6.15.15-.13.23-.23.37-.3.1-.12.22-.24.3-.38-1.65-.14-3.15-.2-4.77-.23.04.26.25.36.22.69 0 2.62.41 4.85.46 7.43.1.2.11-.33.3-.3.08-.17.23-.28.46-.3.12.15.24.55.07.76-.05.3-.1.61-.22.83-.09.63-.26 1.16-.38 1.75.04.25-.1.7.07.83.14-.51.47-.84.69-1.29.3-.34.42-.89.98-.98-.16.7-.56 1.15-.68 1.9-.17.26-.32.54-.38.9-.17.06-.03.43-.08.61-.11.02-.32.32-.15.38.4-.25.6-.71.99-.99.2-.22.35-.01.53-.22.18-.43.45-.77.68-1.14.11-.2.26-.35.38-.53.27-.03.53-.28.69 0-.06.62-.52.85-.69 1.36-.27.44-.52.9-.76 1.37h.99c.2-.48.56-.8.76-1.29.23-.32.82-1 1.21-.46-.16.73-.73 1.05-.9 1.75.68.05 1.13-.13 1.82-.07.34-.47.34-1.28 1.13-1.3.29.4.05.96-.15 1.3.28.01.28-.23.53-.23-.04.2.03.27.23.22 2.87-.14 6-.02 8.89-.15.22-.84.27-1.85.37-2.8zm.38-11.16c.08-.9.24-1.73.23-2.73-.07-.33-.2-.61-.3-.91-.53-.24-1.36-.16-1.98-.3-1.34.05-2.5-.07-3.8-.08-.28-.06-.6-.1-.98-.08-.57.29-1.25.48-1.67.92-.36.07-.48.38-.83.45-.23.13-.51.51-.76.38.27-.4.7-.67 1.14-.91.37-.33.94-.47 1.29-.84H9.16c.14 1.18.2 2.4.08 3.65 2.24-.15 4.24-.08 6.53-.15.28.1.69.06.98.15.3-.02.85.25 1-.08-.5-.16-1.36.04-1.53-.45-.16-.86.08-1.94.3-2.66 1.11.03 2.5-.5 2.9.45.03.42-.05.72-.08 1.07-.01.6.08 1.3-.3 1.52-.2.21-.92-.1-1 .22.67.1 1.26.26 1.9.38zM14.1 1.9c-.01-.09.1-.04 0 0zm0 0c-.3.38-.88.49-1.37.69.35-.34.84-.53 1.37-.69zm1.06.61c0-.1.11-.05 0 0zm-1.74.91c.15-.27.54-.31.75-.53.4-.06.55-.36 1-.38-.57.32-1.03.75-1.75.91zm-.69-.83c0 .09-.1.04 0 0zm-.68.6c0-.09.1-.04 0 0zm-.08.08c0-.05.01-.09.08-.08 0 .05-.01.1-.08.08zm-.07.08c0-.05 0-.1.07-.08 0 .05-.01.09-.07.08zm-.84.6c.22-.26.49-.47.84-.6-.22.26-.5.47-.84.6zm2.28 1c.23-.36.7-.47.99-.77.45-.13.65-.5 1.21-.53-.2.38-.7.46-.99.76-.46.11-.68.48-1.21.53zm-2.28-1c-.01.23-.31-.07 0 0zm-.53.38c-.04-.04.05-.1.08-.07.03.04-.06.1-.08.07zm2.8.61c.02.1-.1.05 0 0zM12.2 6.75c.33-.16.8-.05 1.06.08 0 .07.1.06.16.07.44.4 1.1.56 1.36 1.14.4.94.61 2.07.6 3.42-.15.5-.7.92-.45 1.6-.2.17-.35.4-.45.68-.71.7-1.6 1.23-2.81 1.44-.36-.03-.63.02-.91.07a6.35 6.35 0 0 1-2.13-.53c-.46-.44-1.15-.66-1.44-1.29-.4-1.23-.57-2.66-.68-4.17.1-.02.07-.19.07-.3.14-.08.14-.27.23-.39.13-.1.3-.15.3-.38.34-.1.48-.38.69-.6.31-.12.5-.37.76-.54l.9-.45a5.34 5.34 0 0 1 1.75-.23c.31.15.77.15.99.38zm-3.42 4.33c-.03-.14.1-.46-.15-.38.04.14.04.32.15.38zm.08.3c0 .08.04.2.08.08 0-.08-.04-.2-.08-.08zm.46-2.05c0 .05.06.09.07 0 0-.04-.06-.08-.07 0zm1.67-2.12c-.5-.05-.23.8.07.83-.03-.26-.28-.57-.07-.83zm.38 3.94c.02.03.11-.03.07-.07-.02-.02-.11.04-.07.07zm.75 2.89c0 .08.14.1.16 0-.09 0-.12-.1-.16 0zm2.2-2.58c.03-.17-.01-.29-.15-.3-.1.11-.15.3-.22.45.23.06.14-.2.38-.15zm-1.13-3.8c-.35-.04-.44.17-.76.16-.14-.07-.22-.19-.38-.23 0 .1.03.16.07.23.06.4-.22.48-.45.6a4.1 4.1 0 0 1-.46.61v1.06l.54.76c.53.25 1.11.45 1.9.46.24-.11.42-.29.68-.38.02-.87-.1-1.58-.16-2.36-.13-.16-.3-.3-.38-.53-.16-.16-.4-.26-.6-.38z"/></defs><use fill="#231f20" xlink:href="#a"/></svg>