<svg xmlns="http://www.w3.org/2000/svg" width="55px" height="23px" viewBox="0 0 550 230">
    <g fill="#63d1bb" stroke="none">
        <path d="M0 223 c0 -18 56 -63 79 -63 23 -1 24 -2 9 -11 -10 -5 -18 -21 -18 -34 0 -13 8 -29 18 -34 15 -9 14 -10 -9 -11 -23 0 -79 -45 -79 -63 0 -4 35 -7 78 -7 61 0 82 4 102 20 20 16 41 20 115 20 50 0 95 4 100 8 13 9 13 125 0 134 -5 4 -50 8 -100 8 -74 0 -95 4 -115 20 -20 16 -41 20 -102 20 -43 0 -78 -3 -78 -7z" />
        <path d="M432 158 c-16 -16 -15 -73 2 -87 16 -14 116 24 116 44 0 11 -16 20 -95 51 -6 3 -16 -1 -23 -8z" />
    </g>
</svg>
