<svg xmlns="http://www.w3.org/2000/svg" width="33px" height="32px" viewBox="0 0 330 320">
<g fill="#63d1bb" stroke="none">
 <path d="M20 250 l0 -70 70 0 70 0 0 70 0 70 -70 0 -70 0 0 -70z"/>
 <path d="M170 250 l0 -70 70 0 70 0 0 70 0 70 -70 0 -70 0 0 -70z"/>
 <path d="M0 125 c0 -42 2 -45 26 -45 22 0 25 -4 21 -22 -3 -12 -2 -30 4 -40 13 -24 73 -24 97 0 16 16 18 16 35 -1 12 -12 30 -17 55 -15 36 3 37 4 37 41 0 34 2 37 28 37 25 0 27 3 27 45 l0 45 -79 0 -80 0 -4 -42 -4 -43 -1 43 -2 42 -80 0 -80 0 0 -45z m125 -75 c-18 -20 -45 -27 -45 -12 0 15 24 32 44 32 18 0 19 -1 1 -20z m106 10 c10 -6 19 -15 19 -20 0 -17 -26 -11 -45 10 -20 22 -7 27 26 10z"/>
 </g>
</svg>
