<svg xmlns="http://www.w3.org/2000/svg" width="32" height="37" viewBox="0 0 320 370"><g fill="#63d1bb"><path d="M72 350C33 326 0 275 0 238c0-24 4-28 28-28 36 0 89 34 110 70 9 16 19 30 22 30s13-14 22-30c21-36 74-70 111-70 23 0 27 4 27 28 0 37-33 88-72 112-45 27-131 27-176 0z"/><path d="M118 230c-7-11-22-20-33-20-39 0-61-50-34-77 8-8 8-13 0-17-20-13-12-55 14-72 14-9 28-14 32-10 3 3 12-3 20-14 19-26 67-26 86 0 8 11 17 17 20 14 4-4 18 1 32 10 26 17 33 54 14 73-8 8-8 13 0 17 15 9 14 49-1 64-7 7-21 12-33 12-11 0-26 9-33 20-8 13-23 20-42 20s-34-7-42-20zm73-86c17-21 0-49-31-49s-48 28-31 49c8 9 21 16 31 16s23-7 31-16z"/></g></svg>