<svg xmlns="http://www.w3.org/2000/svg" xmlns:xlink="http://www.w3.org/1999/xlink" width="35" height="35"><defs><path id="a" d="M.29 14.07a17.24 17.24 0 0 0 0 6.3l4.12-3.21z"/><path id="b" d="M24.4 1.58A17.2 17.2 0 0 0 9.15 2l7.51 5.62z"/><path id="c" d="M33.9 13.17l-4.81 3.75 4.94 3.7c.5-2.45.46-5-.13-7.45z"/><path id="d" d="M9.2 32.41a17.21 17.21 0 0 0 15.74.11l-8.1-6.06z"/><path id="e" d="M7.91 14.43L1.68 9.76c-.32.67-.6 1.36-.82 2.06l5.3 3.97z"/><path id="f" d="M18.6 25.1l8.33 6.24a17.16 17.16 0 0 0 1.74-1.37l-8.33-6.23z"/><path id="g" d="M11.41 11.7l-7.4-5.54c-.47.55-.9 1.12-1.28 1.72l6.93 5.19z"/><path id="h" d="M22.1 22.37l8.08 6.06c.48-.54.9-1.11 1.3-1.7l-7.64-5.72z"/><path id="i" d="M14.91 8.98L7.2 3.2a16.36 16.36 0 0 0-1.71 1.4l7.67 5.74z"/><path id="j" d="M25.6 19.65l6.96 5.22c.33-.66.62-1.34.86-2.04l-6.08-4.55z"/><path id="k" d="M26.45 2.7L.88 22.62c.23.7.51 1.39.84 2.06L28.24 4.02c-.57-.48-1.17-.92-1.8-1.32z"/><path id="l" d="M30.74 6.62c-.3-.38-.61-.75-.94-1.1l-27 21.03a16.9 16.9 0 0 0 1.27 1.72l27.1-21.1a16.5 16.5 0 0 0-.42-.56z"/><path id="m" d="M32.3 9L5.55 29.84c.55.5 1.12.96 1.7 1.38l25.97-20.23c-.26-.68-.57-1.34-.92-2z"/></defs><use xlink:href="#a"/><use xlink:href="#b"/><use xlink:href="#c"/><use xlink:href="#d"/><use xlink:href="#e"/><use xlink:href="#f"/><use xlink:href="#g"/><use xlink:href="#h"/><use xlink:href="#i"/><use xlink:href="#j"/><use xlink:href="#k"/><use xlink:href="#l"/><use xlink:href="#m"/></svg>