<svg xmlns="http://www.w3.org/2000/svg" xmlns:xlink="http://www.w3.org/1999/xlink" width="24" height="21"><defs><path id="a" d="M23.45 4.09c.19.67-.28 1.07-.81 1.26-.45.29-1.04.43-1.63.59.25.98.34 2.12.3 3.4-.05.18-.11.34-.08.6-.2.23-.18.66-.37.89.01.4-.3.48-.3.89-.3.5-.57 1.06-.89 1.55-.33.49-.63 1-1.03 1.41-.21.21-.33.51-.6.67-.09.3-.24.55-.44.74-.58 1.05-1.65 1.6-2.52 2.37-.57.25-.98.65-1.56.89-.43.36-1.1.47-1.63.74-.2 0-.42-.03-.51.08-.63-.03-1.35.05-1.86-.08h-.96c-.92-.1-1.92-.1-2.82-.22-.87-.14-1.69-.34-2.52-.52-.65-.35-1.38-.64-1.92-1.11-.2-.08-.36-.19-.45-.37-.15-.1-.37-.12-.37-.37-.33-.15-.58-.48-.44-.9.12-.12.1-.14.22-.21.26-.15.78-.1 1.11-.23.6.01 1-.18 1.56-.22.89-.27 1.96-.36 2.74-.74.25-.19.49-.4.6-.74-.65-.1-1.29-.2-1.86-.37-.55-.37-1.13-.7-1.63-1.11-.01-.26-.26-.28-.3-.52-.1-.28-.1-.83 0-1.11.25-.3.85-.24 1.26-.37.22-.04-.11-.12-.07-.22-.03-.1-.13-.12-.15-.23-.09-.15-.28-.21-.3-.44a2.94 2.94 0 0 1-.59-.96c-.36-.65-.8-1.23-.74-2.3.17-.3.47-.47.89-.52-.24-.3-.46-.62-.6-1.04 0-1.27.36-2.17.53-3.26.06.02.07-.03.07-.07 0-.29.3-.3.37-.52.1-.17.13-.42.44-.37.57-.03.37.72.75.89.12.4.45.58.66.89a6.03 6.03 0 0 0 1.78 1.33c.6.5 1.36.75 2.08 1.11.66.34 1.32.85 2.14.97.2-.1 0-.4 0-.52.03-.18.12-.28.08-.52.06.01.07-.03.07-.08.03-.34.32-.42.37-.74.68-.59 1.24-1.28 2.15-1.63.74-.52 1.88-.64 3.04-.74.7.05 1.32.16 1.85.37.35-.07.6-.34.9-.52l.36-.22c.04-.03-.01-.07.08-.07h.07c.48-.4.81-.98 1.26-1.41a.5.5 0 0 1 .22-.15c.3-.03.55 0 .6.22.16.2.03.52-.08.67-.12.18-.17.43-.3.6.04.52-.16.81-.22 1.25-.17.32-.37.61-.52.96h1.12c.5.1 1.18 0 1.4.38zm-3.4 4.07c.05-.6-.13-1 0-1.48a4.48 4.48 0 0 0-1.41-3.04c-.3-.06-.46-.23-.67-.37-.27-.03-.5-.1-.74-.15h-1.26c-.32.07-.66.13-1.04.15-.29.15-.61.27-.96.37-.26.18-.53.36-.82.52-.46.45-1 .82-1.26 1.48-.2.55.11 1.18-.14 1.63l-.6.3c-.94.08-1.33-.4-2-.6-.54-.31-1.1-.62-1.7-.88-.45-.42-1.1-.63-1.56-1.04-.63-.26-1.02-.76-1.55-1.11-.26-.41-.6-.75-.82-1.19 0-.04-.01-.09-.07-.07-.1.72-.08 1.55-.08 2.37.2.28.41.53.67.74.26.2.61.33.6.81-.14.27-.22.58-.68.52-.17.22-.5.3-.74.45.59.85 1 1.86 1.78 2.52.57.15 1.34.1 1.34.81-.06.54-.6.6-1.12.67-.3.39-.9.48-1.33.74.55.31 1.01.72 1.85.74.04.17.37.03.52.08.18.04.34.1.6.07.06.15.41.03.44.22.17.06.22.23.3.37 0 .33-.19.46-.3.67.05.37-.1.54-.15.82a.74.74 0 0 0-.22.44c-.26.16-.39.45-.67.6-.47.28-1.14.38-1.7.59-.24-.04-.26.13-.52.07-.05.15-.41-.02-.45.15-.32.07-.8-.02-.96.22.79.32 1.38.85 2.3 1.04.92.2 2 .26 3.04.37a24 24 0 0 0 3.55-.15c.17-.15.5-.15.67-.3.2-.11.44-.2.67-.3.37-.26.78-.5 1.26-.66.46-.45.98-.84 1.4-1.33.43-.52.96-.93 1.34-1.49.4-.5.82-1 1.18-1.55.19-.29.32-.63.52-.9.09-.38.22-.72.37-1.03-.03-.35.14-.5.08-.89.42-.59.88-1.14 1.04-2zm.29-5.63c.1-.05 0-.09 0 0-.2.05-.28.21-.44.3-.1.1-.31.08-.3.3.03.09.13.11.15.21.36-.1.46-.47.59-.81zm-5.48 3.04c-.27-1.07.65-1.54 1.4-1.11.25.32.36.78.38 1.33-.13.07-.13.27-.3.3-.02.17-.32.07-.37.22-.28-.04-.5-.15-.6-.37-.23-.06-.35-.24-.51-.37z"/></defs><use fill="#231f20" xlink:href="#a"/></svg>