<svg version="1.0" xmlns="http://www.w3.org/2000/svg" width="35" height="34" viewBox="0 0 350 340"><g fill="#63d1bb"><path d="M103 333c-21-8-15-19 28-49 36-25 43-26 62-14 22 13 22 12 4-7-17-19-17-21-1-27 10-4 29 3 48 17 38 29 56 40 56 34 0-2-18-17-40-32-24-17-39-34-36-42 3-7-28 12-69 43-49 37-80 54-91 50-15-6-15-8 2-28 19-21 19-21-3-7-17 10-25 11-34 2-8-8 21-35 110-102 67-51 121-94 121-97 0-2-54 36-120 86-65 49-121 90-124 90-2 0-6-6-9-14-4-9 14-30 50-56l55-42-30-15c-17-8-38-23-48-34-15-17-15-19 0-25 9-3 24 0 34 7 14 11 14 10-2-8-17-21-17-23-2-29s86 38 94 58c2 4 28-11 58-34 40-30 58-38 66-30s7 16-3 29c-13 16-12 17 3 5 17-13 38-9 38 7 0 5-43 41-95 80s-95 74-95 77c0 2 45-29 100-71 79-59 102-73 106-60 4 8 1 22-6 30-11 13-10 14 4 9 13-5 16 1 16 36v42l-27-16-28-17 27 23c19 16 25 27 19 37-5 8-14 10-22 6-11-6-12-5-2 6 11 10 8 18-14 41l-26 27-31-20-31-21 24 22c21 18 22 23 10 31-15 9-125 11-146 2zm180-112c-25-21-30-41-10-41 7 0 18-9 25-21 11-18 7-16-23 7l-37 28 28 23c35 27 49 30 17 4zM141 113c7-10 9-15 4-10-4 4-19 0-33-9L87 78l19 26c23 31 19 30 35 9z"/><path d="M0 170v-40l25 16c31 20 31 28 0 48L0 210v-40zm28-33C8 122 3 111 9 101c7-11 16-8 45 14 34 26 39 45 13 45-7 0-24-10-39-23zm99-84C84 23 81 13 113 5c34-9 130-2 133 10 3 8-65 65-78 65-2 0-20-12-41-27z"/></g></svg>