<svg xmlns="http://www.w3.org/2000/svg" xmlns:xlink="http://www.w3.org/1999/xlink" width="33" height="33"><defs><path id="a" d="M31.08 8.87c.88 0 1.59.71 1.59 1.59v5.9h-15.4v-7.5H15.4v7.5H0v-5.9c0-.88.71-1.59 1.6-1.59h6.58a6.55 6.55 0 0 1-2.63-2.25A4.1 4.1 0 0 1 6.3 1.3 4.65 4.65 0 0 1 9.46 0a6 6 0 0 1 3.33 1.07c.97.65 1.8 1.53 2.5 2.51.39.57.74 1.17 1.03 1.8l.12-.24a10.63 10.63 0 0 1 3.42-4.07A5.97 5.97 0 0 1 23.18 0c1.15 0 2.22.42 3.02 1.12.8.7 1.36 1.74 1.36 2.9 0 1.44-.83 2.87-2.42 4-.41.3-.88.58-1.4.85zM2.9 32.49V18.58h12.5v13.91zM8.71 6.53c1.16.73 3.15 1.41 6.23 1.73-.17-.7-.44-1.41-.78-2.09A8.36 8.36 0 0 0 11.5 3a3.69 3.69 0 0 0-2.04-.69h-.02c-.53 0-1.12.26-1.56.67-.44.42-.7.96-.7 1.46.01.3.09.61.3.97.23.35.6.74 1.23 1.13zM19.25 4.9a10.57 10.57 0 0 0-1.59 3.52c3.03-.59 5-1.44 6.13-2.26 1.2-.88 1.46-1.62 1.47-2.13 0-.44-.2-.84-.57-1.18a2.3 2.3 0 0 0-1.5-.55c-.69 0-1.37.24-2.05.69a7.37 7.37 0 0 0-1.89 1.91zm-1.98 27.6V18.58h12.51v13.91z"/></defs><use fill="#231f20" xlink:href="#a"/></svg>