<svg xmlns="http://www.w3.org/2000/svg" xmlns:xlink="http://www.w3.org/1999/xlink" width="41" height="63"><defs><path id="a" d="M15.18 37.96c-.29.96-.25 2.19.02 3.64.5 2.63 1.7 6.04 2.36 9.67h5.06c.7-3.65 1.95-7.05 2.48-9.69.28-1.44.33-2.66.04-3.61-.28-.9-.9-1.62-2.03-2.3h-6c-1.07.67-1.67 1.38-1.93 2.29z"/><path id="b" d="M27 57.95H13.22c-1.3 0-2.3.98-2.3 2.23v2.23h18.39v-2.23c0-1.25-1-2.23-2.3-2.23z"/><path id="c" d="M34.14 2.23H22.41A2.25 2.25 0 0 0 20.11 0c-1.28 0-2.3.98-2.3 2.23H6.07L0 27.74c.8-.46 1.59-.99 2.63-.99 1.36 0 2.24.82 2.93 1.38.68.55 1.16.85 1.44.85.3 0 .77-.3 1.45-.84.69-.55 1.57-1.36 2.92-1.36 1.35 0 2.24.8 2.92 1.36.68.54 1.16.84 1.45.84.15 0 .34-.08.58-.22.24-.14.53-.35.87-.62.51-.42 1.14-.97 1.99-1.22.28-.09.6-.14.93-.14 1.35 0 2.24.8 2.92 1.36.68.54 1.16.84 1.45.84.29 0 .77-.3 1.45-.85.68-.56 1.57-1.37 2.92-1.37 1.36 0 2.24.82 2.92 1.37.34.28.63.49.87.63s.43.22.58.22c.28 0 .76-.3 1.44-.86.68-.56 1.57-1.38 2.93-1.38 1.04 0 1.84.53 2.63 1z"/><path id="d" d="M23.52 53.5h-6.86a1.1 1.1 0 0 0-1.15 1.1c0 .64.5 1.12 1.15 1.12h6.9a1.1 1.1 0 0 0 1.15-1.11c0-.64-.5-1.12-1.15-1.12z"/><path id="e" d="M20.1 29.01c-.14 0-.33.07-.57.21-.16.1-.37.26-.57.41v3.73h2.3v-3.73c-.5-.38-.91-.62-1.15-.62z"/></defs><use xlink:href="#a"/><use xlink:href="#b"/><use xlink:href="#c"/><use xlink:href="#d"/><use xlink:href="#e"/></svg>