<svg xmlns="http://www.w3.org/2000/svg" xmlns:xlink="http://www.w3.org/1999/xlink" width="113" height="46"><defs><path id="a" d="M110.23 41.88c4.4.87.84-35.85.14-38.3C108.41-3 83.7 1.42 78.2 1.85 65.47 2.84 53 .9 40.58 1.48c-6.2.3-34.85-1.81-37.52 1.99-5.04 7.2-2.65 25.8-1.27 35.07-4.05.78 2.3 4.16 3.13 4.9 6.32 2.2 16.36-.22 23.01.4 15.44 1.47 31.8-2.2 47.28-.96 4.5 1.14 9.6 1.02 14.22 1.24 3.42 5.57 19.67-2.46 20.8-2.24-.1-.02.5.1 0 0z"/><path id="b" d="M26.06 24.41c-.08-2.54-.49-5.07-.45-7.62.02-2.07.37-4.19-.34-6.17l.13-.67c.18-1-3.1-.47-3.62.44-.33.27-.5.58-.35.9l.1.26a74.39 74.39 0 0 1-2.5 8.93c-.38 1.12-.84 2.23-1.23 3.35-.55-1.05-1.1-2.08-1.56-3.2-1.3-3.26-2.48-6.56-4.07-9.7.18-1.44-3.04-1.29-3.67.04-.77 1.6-.67 3.23-.42 4.95.29 1.94.34 3.84.36 5.8.05 3.77.34 7.54.4 11.3-.34.38-.44.84-.09 1.31a3 3 0 0 0 .54.52c.86.69 3.33.1 3.32-1.2-.01-3.91-.3-7.82-.4-11.73l-.02-1.15.16.41c.61 1.52 1.25 3 2.08 4.42.82 1.4 1.23 2.9 1.7 4.44-.17.2-.28.44-.21.67-.04.17.06.27.24.34.6.52 1.74.26 2.38 0 .27-.12.53-.25.78-.4.33-.21.84-.65.7-1.1l-.1-.27c.46-1.2.68-2.46.93-3.73.25-1.36.74-2.64 1.23-3.92l.14 1.76c.2 2.42.03 4.8.01 7.23 0 .8.05 1.55.2 2.34.07.33.36 1.72.27 1.8-.58.53-.4 1.18.37 1.35.87.2 1.97-.1 2.63-.7 1.14-1.05.6-2.7.34-4.02-.43-2.23.09-4.71.02-6.98z"/><path id="c" d="M34 25.05c-.07-1.88-.73-3.66-.74-5.57-.01-2.19.17-4.36-.15-6.53-.1-.7-3.84.1-3.71 1 .29 2 .18 4 .15 6.02-.04 1.94.44 3.7.7 5.6.25 1.96-.09 3.95.13 5.9.1.92.72 2.6.09 3.4-.4.5 1.4.32 1.47.31.73-.14 1.7-.37 2.19-.99.62-.78.18-2.3.05-3.18-.3-1.96-.11-3.98-.18-5.96z"/><path id="d" d="M49.5 21.9c-1.96-2.64-5.6-.74-8.13-1.46-1.31-.37-1.33-2.15-1.32-3.22 0-1.35-.11-2.6-.26-3.94-.11-1-.02-2 .7-2.75.14-.14.82-.32.77-.32.34-.06.65-.08 1.02-.1 1.47-.05 4.37.23 3.81 2.37-.25.95 3.41.4 3.68-.61 1.15-4.36-6.91-3.53-9.2-2.92-2.09.56-4.4 1.75-4.52 4.17-.06 1.16.26 2.26.3 3.4.06 1.33-.18 2.64.28 3.91 1.03 2.84 5.24 1.5 7.38 1.66 3.65.27 2.56 5.2 2.6 7.48.03 1.23 1.13 3.26.2 4.28-.56.63-1.87.66-2.64.73-.77.06-2.09.3-2.6-.44-.95-1.34.08-3.6-.12-5.15-.11-.88-3.86-.09-3.71 1 .32 2.49-1.33 5.83 2.27 6.26 2.32.27 4.93-.16 7.12-.88a8.4 8.4 0 0 0 3.08-1.7c.98-.9.66-2.23.4-3.37-.65-2.77.69-5.96-1.12-8.4z"/><path id="e" d="M65.93 21.72c-.11-3.58-.65-7.12-.67-10.71 0-1.88-3.76-1.24-3.75.32.01 3.42.47 6.8.65 10.22v.2c-1.84-.01-3.7.17-5.54.24.19-4.4-.58-8.76-.42-13.15.02-.55-3.67-.09-3.71 1-.17 4.24.55 8.45.43 12.7-.06 2.03-.24 4.05-.25 6.08 0 1.04.16 2.07.31 3.1.14.94.46 2.2.17 3.14-.22.74 3.38.28 3.67-.66.51-1.68-.21-3.83-.38-5.54-.17-1.63-.04-3.32.07-4.98 1.93-.12 3.86-.28 5.77 0l.3 3.92c.11 1.1.18 2.19.2 3.3.01.96.13 2.36-.21 3.28-.74 1.95 2.99 1.79 3.53.34.67-1.77.48-3.98.36-5.85-.14-2.32-.45-4.62-.53-6.95z"/><path id="f" d="M82 25.97c-.89-2.62-2.25-4.91-3.43-7.4.95-1.85 1.92-3.7 2.78-5.59.8-1.71 1.38-3.62 2.93-4.83.54-.42.52-.85-.25-.9a4.21 4.21 0 0 0-2.63.7c-1.4 1.1-2.3 2.43-3.03 4.05a157.05 157.05 0 0 1-2.98 6.19c-.46.3-.74.72-.6 1.2a66.68 66.68 0 0 1-2.38 4.37c-.28-5.25-.9-10.5-1.09-15.75-.04-1.2-3.77-.45-3.71 1 .23 6.51 1.15 13.02 1.22 19.53l-.05.05c-.29.3-.18.47.05.57 0 1.66-.06 3.33-.2 4.99-.45.7.44 1.08 1.03 1.08h.1c.7 0 2.48-.33 2.57-1.3.18-1.99.24-3.98.22-5.97a29.79 29.79 0 0 0 3.85-5.34c.72 1.4 1.4 2.82 1.89 4.35.81 2.6 2.18 4.99 2.97 7.6.52 1.71 4.23.7 3.72-1-.8-2.6-2.1-5.02-2.98-7.6z"/><path id="g" d="M104.3 21.57c-.2-.79-1.3-.8-2.15-.73l-.03-.95c-.12-2.53-.16-5.1-.37-7.63-.2-2.33-1.5-3.16-3.77-3.08-2.3.09-4.97.5-7.1 1.33-2.48.97-3.86 2.79-4.33 5.4-.52 2.86.23 5.9.35 8.77.15 3.33.07 6.66.06 9.98 0 .55 3.72.03 3.72-1 0-2.63.04-5.26 0-7.9a44.6 44.6 0 0 0-.1-2.31c1.3-.57 3.5 0 4.8.13 1.05.1 2.05-.16 3.07-.28.02 2.2.1 4.4.2 6.6.04 1.12.45 3.35-.34 4.27-.41.5 1.4.33 1.47.32.76-.14 1.68-.38 2.19-.99.9-1.06.43-3.6.38-4.86-.07-1.82-.1-3.63-.13-5.45 1.1-.14 2.3-.81 2.09-1.62zm-13.87-.14c-.1-1.18-.2-2.36-.28-3.55-.15-2.21.1-5.3 2.17-6.64.55-.36 1.59-.3 2.23-.42.93-.17 1.86-.37 2.69.18 1.15.76.86 3.47.86 4.62 0 1.9.2 3.8.3 5.7-.53.05-1.06.08-1.6.07-2.17-.05-4.31-.4-6.37.04z"/><path id="h" d="M30.78 10.37a3 3 0 0 0 1.4-.5l.24-.2c.5-.32.92-.79.7-1.3-.48-1.04-.4-2.1-.4-3.23 0-.91-.91-1.18-1.7-1.12-.68.06-2.05.56-2.05 1.45-.01.94-.07 1.9.1 2.84-.05.1-.07.22-.1.33-.05.2.02.4.14.56v.13l.01.32c.07.22.2.39.4.5.38.22.84.26 1.26.22z"/></defs><use xlink:href="#a"/><use fill="#fff" xlink:href="#b"/><use fill="#fff" xlink:href="#c"/><use fill="#fff" xlink:href="#d"/><use fill="#fff" xlink:href="#e"/><use fill="#fff" xlink:href="#f"/><use fill="#fff" xlink:href="#g"/><use fill="#fff" xlink:href="#h"/></svg>