<svg xmlns="http://www.w3.org/2000/svg" viewBox="0 0 360 40" width="360" height="40"><path fill="#fd5754" d="M30.79 19.15C30.79 23.76 26.85 27.5 21.99 27.5C17.14 27.5 13.2 23.76 13.2 19.15C13.2 14.55 17.14 10.81 21.99 10.81C26.85 10.81 30.79 14.55 30.79 19.15Z"></path><path fill="#febb40" d="M57.5 20.87C57.5 26.41 52.64 30.92 46.66 30.92C40.68 30.92 35.82 26.41 35.82 20.87C35.82 15.32 40.68 10.82 46.66 10.82C52.64 10.82 57.5 15.32 57.5 20.87Z"></path><path fill="#34c848" d="M85 20.81C85 27.26 78.45 32.5 70.39 32.5C62.32 32.5 55.77 27.26 55.77 20.81C55.77 14.35 62.32 9.11 70.39 9.11C78.45 9.11 85 14.35 85 20.81Z"></path><path fill="#4d4d4d" d="M356.33 0.01L356.49 0.03L356.65 0.05L356.8 0.08L356.96 0.12L357.11 0.16L357.26 0.2L357.41 0.26L357.55 0.32L357.7 0.38L357.83 0.45L357.97 0.52L358.1 0.6L358.23 0.69L358.36 0.77L358.48 0.87L358.6 0.97L358.71 1.07L358.83 1.17L358.93 1.29L359.03 1.4L359.13 1.52L359.23 1.64L359.31 1.77L359.4 1.9L359.48 2.03L359.55 2.17L359.62 2.3L359.68 2.45L359.74 2.59L359.8 2.74L359.84 2.89L359.88 3.04L359.92 3.2L359.95 3.35L359.97 3.51L359.99 3.67L360 3.84L360 4L360 40L0 40L0 4L0 3.84L0.01 3.67L0.03 3.51L0.05 3.35L0.08 3.2L0.12 3.04L0.16 2.89L0.2 2.74L0.26 2.59L0.32 2.45L0.38 2.3L0.45 2.17L0.52 2.03L0.6 1.9L0.69 1.77L0.77 1.64L0.87 1.52L0.97 1.4L1.07 1.29L1.18 1.18L1.29 1.07L1.4 0.97L1.52 0.87L1.64 0.77L1.77 0.69L1.9 0.6L2.03 0.52L2.17 0.45L2.3 0.38L2.45 0.32L2.59 0.26L2.74 0.2L2.89 0.16L3.04 0.12L3.2 0.08L3.35 0.05L3.51 0.03L3.67 0.01L3.84 0L4 0L356 0L356.16 0L356.33 0.01ZM66.29 13.55L65.1 14.2L64.06 15.05L63.21 16.09L62.56 17.28L62.16 18.59L62.01 20L62.16 21.41L62.56 22.72L63.21 23.91L64.06 24.95L65.1 25.8L66.29 26.45L67.6 26.86L69.01 27L70.42 26.86L71.74 26.45L72.93 25.8L73.96 24.95L74.82 23.91L75.46 22.72L75.87 21.41L76.01 20L75.87 18.59L75.46 17.28L74.82 16.09L73.96 15.05L72.93 14.2L71.74 13.55L70.42 13.14L69.01 13L67.6 13.14L66.29 13.55ZM20.27 13.55L19.08 14.2L18.04 15.05L17.19 16.09L16.54 17.28L16.13 18.59L15.99 20L16.13 21.41L16.54 22.72L17.19 23.91L18.04 24.95L19.08 25.8L20.27 26.45L21.58 26.86L22.99 27L24.4 26.86L25.72 26.45L26.9 25.8L27.94 24.95L28.8 23.91L29.44 22.72L29.85 21.41L29.99 20L29.85 18.59L29.44 17.28L28.8 16.09L27.94 15.05L26.9 14.2L25.72 13.55L24.4 13.14L22.99 13L21.58 13.14L20.27 13.55ZM43.28 13.55L42.09 14.2L41.05 15.05L40.2 16.09L39.55 17.28L39.14 18.59L39 20L39.14 21.41L39.55 22.72L40.2 23.91L41.05 24.95L42.09 25.8L43.28 26.45L44.59 26.86L46 27L47.41 26.86L48.73 26.45L49.92 25.8L50.95 24.95L51.81 23.91L52.45 22.72L52.86 21.41L53 20L52.86 18.59L52.45 17.28L51.81 16.09L50.95 15.05L49.92 14.2L48.73 13.55L47.41 13.14L46 13L44.59 13.14L43.28 13.55Z"></path></svg>