<svg height="56.25" width="56.25" xmlns="http://www.w3.org/2000/svg"><defs><clipPath id="a"><path d="M0 0v45h45V0H0"/></clipPath></defs><g clip-path="url(#a)" transform="matrix(1.25 0 0 -1.25 0 56.25)"><path d="M9.347 6.027v32.946c0 .843.684 1.527 1.527 1.527h13.349l11.43-11.43V6.027c0-.843-.684-1.527-1.527-1.527H10.874c-.843 0-1.527.684-1.527 1.527z" fill="#2b2b2b" fill-rule="evenodd"/><path d="M24.223 40.5l11.43-11.43H25.75c-.843 0-1.527.684-1.527 1.527V40.5z" fill="#525252" fill-rule="evenodd"/><path d="M18.376 13.319h.689l-1.342-4.664h-.642l-1.121 3.768-1.114-3.768h-.639l-1.345 4.664h.689l1.005-3.672 1.075 3.672h.669l1.071-3.672 1.005 3.672zm4.015-4.103v-.554h-2.779v4.657h2.726v-.547h-2.073v-1.391h1.958v-.547h-1.958V9.216h2.126zm3.988.768a1.25 1.25 0 0 0-.498-1.019c-.257-.202-.649-.303-1.176-.303h-1.51v4.657h1.256c.507 0 .876-.074 1.104-.221.334-.215.501-.53.501-.946 0-.239-.068-.453-.203-.642a.954.954 0 0 0-.506-.376v-.017c.319-.068.571-.198.755-.392.185-.193.277-.44.277-.741zm-.979 2.093c0 .283-.103.482-.31.596-.154.086-.367.128-.639.125h-.603v-1.476h.547c.338 0 .57.047.695.142.207.151.31.355.31.613zm.307-2.064a.727.727 0 0 1-.34.64c-.167.112-.439.168-.817.168h-.702V9.196h.702c.387 0 .659.054.817.161.227.154.34.373.34.656zm5.972 3.306l.425-4.657h-.649l-.303 3.678h-.02l-1.424-3.718h-.372l-1.424 3.718h-.02l-.297-3.678h-.649l.419 4.657h.811l1.341-3.596h.016l1.342 3.596h.804z" fill="#e6e6e6"/></g></svg>