<?xml version="1.0" encoding="UTF-8" standalone="no"?>
<svg
   xmlns:dc="http://purl.org/dc/elements/1.1/"
   xmlns:cc="http://creativecommons.org/ns#"
   xmlns:rdf="http://www.w3.org/1999/02/22-rdf-syntax-ns#"
   xmlns:svg="http://www.w3.org/2000/svg"
   xmlns="http://www.w3.org/2000/svg"
   xmlns:sodipodi="http://sodipodi.sourceforge.net/DTD/sodipodi-0.dtd"
   xmlns:inkscape="http://www.inkscape.org/namespaces/inkscape"
   role="img"
   viewBox="0 0 24 24"
   version="1.1"
   id="svg6"
   sodipodi:docname="webpack.svg"
   inkscape:version="0.92.4 (33fec40, 2019-01-16)">
  <metadata
     id="metadata12">
    <rdf:RDF>
      <cc:Work
         rdf:about="">
        <dc:format>image/svg+xml</dc:format>
        <dc:type
           rdf:resource="http://purl.org/dc/dcmitype/StillImage" />
        <dc:title>Webpack icon</dc:title>
      </cc:Work>
    </rdf:RDF>
  </metadata>
  <defs
     id="defs10" />
  <sodipodi:namedview
     pagecolor="#ffffff"
     bordercolor="#666666"
     borderopacity="1"
     objecttolerance="10"
     gridtolerance="10"
     guidetolerance="10"
     inkscape:pageopacity="0"
     inkscape:pageshadow="2"
     inkscape:window-width="1850"
     inkscape:window-height="1027"
     id="namedview8"
     showgrid="false"
     inkscape:zoom="19.666667"
     inkscape:cx="23.544009"
     inkscape:cy="8.1102205"
     inkscape:window-x="1510"
     inkscape:window-y="27"
     inkscape:window-maximized="1"
     inkscape:current-layer="svg6" />
  <title
     id="title2">Webpack icon</title>
  <path
     d="M21.0157 18.1202L12.351 23v-3.8007l5.3986-2.9567 3.266 1.8776zm.5927-.5344V7.3805l-3.1708 1.822v6.5593l3.1708 1.824zm-18.6827.5344L11.5904 23v-3.8007l-5.3986-2.9567-3.266 1.8776zm-.5927-.5344V7.3805l3.1707 1.822v6.5593l-3.1707 1.824zm.371-10.8656l8.8864-5.0056v3.6748L5.8974 8.507l-.0434.0248-3.15-1.8116zm18.5335 0L12.351 1.7146v3.6748l5.693 3.1177.0434.0248 3.15-1.8116zm-9.647 11.6146l-5.3262-2.9155V9.642l5.326 3.062v5.6308zm.7605 0l5.326-2.9155V9.642l-5.326 3.062v5.6308zM6.625 8.9734l5.3467-2.928 5.3468 2.928-5.3468 3.0744L6.625 8.9734z"
     id="path4" />
  <path
     style="fill:none;fill-opacity:0;stroke:none;stroke-width:0;stroke-linejoin:bevel;stroke-miterlimit:4;stroke-dasharray:none"
     d="M 4.3173513,7.6268986 C 3.4721553,7.1406474 2.7849552,6.7302402 2.79024,6.7148826 c 0.00861,-0.02501 8.643449,-4.9029332 8.754657,-4.9456076 0.03679,-0.014118 0.04572,0.3400322 0.04519,1.7929711 l -6.58e-4,1.8105645 -2.5954928,1.420206 C 7.5664139,7.5741299 6.2759586,8.2802207 6.1262567,8.3621073 L 5.8540713,8.510992 Z"
     id="path14"
     inkscape:connector-curvature="0" />
  <path
     style="fill:#8ed6fb;fill-opacity:0;stroke:none;stroke-width:0;stroke-linejoin:bevel;stroke-miterlimit:4;stroke-dasharray:none"
     d="M 4.3173513,7.6268986 C 3.4721553,7.1406474 2.7849552,6.7302402 2.79024,6.7148826 c 0.00861,-0.02501 8.643449,-4.9029332 8.754657,-4.9456076 0.03679,-0.014118 0.04572,0.3400322 0.04519,1.7929711 l -6.58e-4,1.8105645 -2.5954928,1.420206 C 7.5664139,7.5741299 6.2759586,8.2802207 6.1262567,8.3621073 L 5.8540713,8.510992 Z"
     id="path16"
     inkscape:connector-curvature="0" />
  <path
     style="fill:#8ed6fb;fill-opacity:0;stroke:none;stroke-width:0;stroke-linejoin:bevel;stroke-miterlimit:4;stroke-dasharray:none"
     d="M 4.3173513,7.6268986 C 3.4721553,7.1406474 2.7849552,6.7302402 2.79024,6.7148826 c 0.00861,-0.02501 8.643449,-4.9029332 8.754657,-4.9456076 0.03679,-0.014118 0.04572,0.3400322 0.04519,1.7929711 l -6.58e-4,1.8105645 -2.5954928,1.420206 C 7.5664139,7.5741299 6.2759586,8.2802207 6.1262567,8.3621073 L 5.8540713,8.510992 Z"
     id="path823"
     inkscape:connector-curvature="0" />
  <path
     style="fill:#8ed6fb;fill-opacity:0;stroke:none;stroke-width:0;stroke-linejoin:bevel;stroke-miterlimit:4;stroke-dasharray:none"
     d="M 4.3173513,7.6268986 C 3.4721553,7.1406474 2.7849552,6.7302402 2.79024,6.7148826 c 0.00861,-0.02501 8.643449,-4.9029332 8.754657,-4.9456076 0.03679,-0.014118 0.04572,0.3400322 0.04519,1.7929711 l -6.58e-4,1.8105645 -2.5954928,1.420206 C 7.5664139,7.5741299 6.2759586,8.2802207 6.1262567,8.3621073 L 5.8540713,8.510992 Z"
     id="path825"
     inkscape:connector-curvature="0" />
  <path
     style="fill:#8ed6fb;fill-opacity:0;stroke:none;stroke-width:0;stroke-linejoin:bevel;stroke-miterlimit:4;stroke-dasharray:none"
     d="M 4.3173513,7.6268986 C 3.4721553,7.1406474 2.7849552,6.7302402 2.79024,6.7148826 c 0.00861,-0.02501 8.643449,-4.9029332 8.754657,-4.9456076 0.03679,-0.014118 0.04572,0.3400322 0.04519,1.7929711 l -6.58e-4,1.8105645 -2.5954928,1.420206 C 7.5664139,7.5741299 6.2759586,8.2802207 6.1262567,8.3621073 L 5.8540713,8.510992 Z"
     id="path827"
     inkscape:connector-curvature="0" />
  <path
     style="fill:#8ed6fb;fill-opacity:0;stroke:none;stroke-width:0;stroke-linejoin:bevel;stroke-miterlimit:4;stroke-dasharray:none"
     d="M 4.3173513,7.6268986 C 3.4721553,7.1406474 2.7849552,6.7302402 2.79024,6.7148826 c 0.00861,-0.02501 8.643449,-4.9029332 8.754657,-4.9456076 0.03679,-0.014118 0.04572,0.3400322 0.04519,1.7929711 l -6.58e-4,1.8105645 -2.5954928,1.420206 C 7.5664139,7.5741299 6.2759586,8.2802207 6.1262567,8.3621073 L 5.8540713,8.510992 Z"
     id="path829"
     inkscape:connector-curvature="0" />
  <path
     style="fill:#8ed6fb;fill-opacity:0;stroke:none;stroke-width:0;stroke-linejoin:bevel;stroke-miterlimit:4;stroke-dasharray:none"
     d="M 4.3173513,7.6268986 C 3.4721553,7.1406474 2.7849552,6.7302402 2.79024,6.7148826 c 0.00861,-0.02501 8.643449,-4.9029332 8.754657,-4.9456076 0.03679,-0.014118 0.04572,0.3400322 0.04519,1.7929711 l -6.58e-4,1.8105645 -2.5954928,1.420206 C 7.5664139,7.5741299 6.2759586,8.2802207 6.1262567,8.3621073 L 5.8540713,8.510992 Z"
     id="path831"
     inkscape:connector-curvature="0" />
  <path
     style="fill:#8ed6fb;fill-opacity:0;stroke:#8ed6fb;stroke-width:0;stroke-linejoin:bevel;stroke-miterlimit:4;stroke-dasharray:none;stroke-opacity:1"
     d="M 4.3173513,7.6268986 C 3.4721553,7.1406474 2.7849552,6.7302402 2.79024,6.7148826 c 0.00861,-0.02501 8.643449,-4.9029332 8.754657,-4.9456076 0.03679,-0.014118 0.04572,0.3400322 0.04519,1.7929711 l -6.58e-4,1.8105645 -2.5954928,1.420206 C 7.5664139,7.5741299 6.2759586,8.2802207 6.1262567,8.3621073 L 5.8540713,8.510992 Z"
     id="path833"
     inkscape:connector-curvature="0" />
  <path
     style="fill:#8ed6fb;fill-opacity:0;stroke:#8ed6fb;stroke-width:0;stroke-linejoin:bevel;stroke-miterlimit:4;stroke-dasharray:none;stroke-opacity:1"
     d="M 4.3173513,7.6268986 C 3.4721553,7.1406474 2.7849552,6.7302402 2.79024,6.7148826 c 0.00861,-0.02501 8.643449,-4.9029332 8.754657,-4.9456076 0.03679,-0.014118 0.04572,0.3400322 0.04519,1.7929711 l -6.58e-4,1.8105645 -2.5954928,1.420206 C 7.5664139,7.5741299 6.2759586,8.2802207 6.1262567,8.3621073 L 5.8540713,8.510992 Z"
     id="path835"
     inkscape:connector-curvature="0" />
  <path
     style="fill:#8ed6fb;fill-opacity:0;stroke:#8ed6fb;stroke-width:0;stroke-linejoin:bevel;stroke-miterlimit:4;stroke-dasharray:none;stroke-opacity:1"
     d="M 4.3173513,7.6268986 C 3.4721553,7.1406474 2.7849552,6.7302402 2.79024,6.7148826 c 0.00861,-0.02501 8.643449,-4.9029332 8.754657,-4.9456076 0.03679,-0.014118 0.04572,0.3400322 0.04519,1.7929711 l -6.58e-4,1.8105645 -2.5954928,1.420206 C 7.5664139,7.5741299 6.2759586,8.2802207 6.1262567,8.3621073 L 5.8540713,8.510992 Z"
     id="path837"
     inkscape:connector-curvature="0" />
  <path
     style="fill:#8ed6fb;fill-opacity:0;stroke:#8ed6fb;stroke-width:0;stroke-linejoin:bevel;stroke-miterlimit:4;stroke-dasharray:none;stroke-opacity:1"
     d="M 4.3173513,7.6268986 C 3.4721553,7.1406474 2.7849552,6.7302402 2.79024,6.7148826 c 0.00861,-0.02501 8.643449,-4.9029332 8.754657,-4.9456076 0.03679,-0.014118 0.04572,0.3400322 0.04519,1.7929711 l -6.58e-4,1.8105645 -2.5954928,1.420206 C 7.5664139,7.5741299 6.2759586,8.2802207 6.1262567,8.3621073 L 5.8540713,8.510992 Z"
     id="path839"
     inkscape:connector-curvature="0" />
  <path
     style="fill:#8ed6fb;fill-opacity:0;stroke:#8ed6fb;stroke-width:0;stroke-linejoin:bevel;stroke-miterlimit:4;stroke-dasharray:none;stroke-opacity:1"
     d="M 4.3173513,7.6268986 C 3.4721553,7.1406474 2.7849552,6.7302402 2.79024,6.7148826 c 0.00861,-0.02501 8.643449,-4.9029332 8.754657,-4.9456076 0.03679,-0.014118 0.04572,0.3400322 0.04519,1.7929711 l -6.58e-4,1.8105645 -2.5954928,1.420206 C 7.5664139,7.5741299 6.2759586,8.2802207 6.1262567,8.3621073 L 5.8540713,8.510992 Z"
     id="path841"
     inkscape:connector-curvature="0" />
  <path
     style="fill:#1a1a1a;fill-opacity:0;stroke:#8ed6fb;stroke-width:0;stroke-linejoin:bevel;stroke-miterlimit:4;stroke-dasharray:none;stroke-opacity:1"
     d="M 4.3173513,7.6268986 C 3.4721553,7.1406474 2.7849552,6.7302402 2.79024,6.7148826 c 0.00861,-0.02501 8.643449,-4.9029332 8.754657,-4.9456076 0.03679,-0.014118 0.04572,0.3400322 0.04519,1.7929711 l -6.58e-4,1.8105645 -2.5954928,1.420206 C 7.5664139,7.5741299 6.2759586,8.2802207 6.1262567,8.3621073 L 5.8540713,8.510992 Z"
     id="path843"
     inkscape:connector-curvature="0" />
  <path
     style="fill:#d35f5f;fill-opacity:0;stroke:#8ed6fb;stroke-width:0;stroke-linejoin:bevel;stroke-miterlimit:4;stroke-dasharray:none;stroke-opacity:1"
     d="M 4.3173513,7.6268986 C 3.4721553,7.1406474 2.7849552,6.7302402 2.79024,6.7148826 c 0.00861,-0.02501 8.643449,-4.9029332 8.754657,-4.9456076 0.03679,-0.014118 0.04572,0.3400322 0.04519,1.7929711 l -6.58e-4,1.8105645 -2.5954928,1.420206 C 7.5664139,7.5741299 6.2759586,8.2802207 6.1262567,8.3621073 L 5.8540713,8.510992 Z"
     id="path845"
     inkscape:connector-curvature="0" />
  <path
     style="fill:#d35f5f;fill-opacity:0;stroke:#8ed6fb;stroke-width:0;stroke-linejoin:bevel;stroke-miterlimit:4;stroke-dasharray:none;stroke-opacity:1"
     d="M 7.2851829,20.555635 C 4.9270118,19.227121 2.997599,18.130944 2.997599,18.119686 c 0,-0.01126 0.7144397,-0.430891 1.5876439,-0.93252 1.3459896,-0.77323 1.6001963,-0.907194 1.6701129,-0.88013 0.045358,0.01756 1.2640633,0.679105 2.7082341,1.470105 l 2.6257651,1.438184 6.94e-4,1.878627 c 3.81e-4,1.033244 -0.0034,1.878297 -0.0083,1.877895 -0.0049,-4.03e-4 -1.9384013,-1.087699 -4.2965724,-2.416212 z"
     id="path847"
     inkscape:connector-curvature="0" />
  <path
     style="fill:#d35f5f;fill-opacity:0;stroke:#8ed6fb;stroke-width:0;stroke-linejoin:bevel;stroke-miterlimit:4;stroke-dasharray:none;stroke-opacity:1"
     d="M 7.2851829,20.555635 C 4.9270118,19.227121 2.997599,18.130944 2.997599,18.119686 c 0,-0.01126 0.7144397,-0.430891 1.5876439,-0.93252 1.3459896,-0.77323 1.6001963,-0.907194 1.6701129,-0.88013 0.045358,0.01756 1.2640633,0.679105 2.7082341,1.470105 l 2.6257651,1.438184 6.94e-4,1.878627 c 3.81e-4,1.033244 -0.0034,1.878297 -0.0083,1.877895 -0.0049,-4.03e-4 -1.9384013,-1.087699 -4.2965724,-2.416212 z"
     id="path849"
     inkscape:connector-curvature="0" />
  <path
     style="fill:#d35f5f;fill-opacity:0;stroke:#8ed6fb;stroke-width:0;stroke-linejoin:bevel;stroke-miterlimit:4;stroke-dasharray:none;stroke-opacity:1"
     d="M 7.2851829,20.555635 C 4.9270118,19.227121 2.997599,18.130944 2.997599,18.119686 c 0,-0.01126 0.7144397,-0.430891 1.5876439,-0.93252 1.3459896,-0.77323 1.6001963,-0.907194 1.6701129,-0.88013 0.045358,0.01756 1.2640633,0.679105 2.7082341,1.470105 l 2.6257651,1.438184 6.94e-4,1.878627 c 3.81e-4,1.033244 -0.0034,1.878297 -0.0083,1.877895 -0.0049,-4.03e-4 -1.9384013,-1.087699 -4.2965724,-2.416212 z"
     id="path851"
     inkscape:connector-curvature="0" />
  <path
     style="fill:#d35f5f;fill-opacity:0;stroke:#8ed6fb;stroke-width:0;stroke-linejoin:bevel;stroke-miterlimit:4;stroke-dasharray:none;stroke-opacity:1"
     d="M 7.2851829,20.555635 C 4.9270118,19.227121 2.997599,18.130944 2.997599,18.119686 c 0,-0.01126 0.7144397,-0.430891 1.5876439,-0.93252 1.3459896,-0.77323 1.6001963,-0.907194 1.6701129,-0.88013 0.045358,0.01756 1.2640633,0.679105 2.7082341,1.470105 l 2.6257651,1.438184 6.94e-4,1.878627 c 3.81e-4,1.033244 -0.0034,1.878297 -0.0083,1.877895 -0.0049,-4.03e-4 -1.9384013,-1.087699 -4.2965724,-2.416212 z"
     id="path853"
     inkscape:connector-curvature="0" />
  <path
     style="fill:#8ed6fb;stroke:#000000;stroke-width:0;stroke-linecap:butt;stroke-linejoin:miter;stroke-opacity:1;stroke-miterlimit:4;stroke-dasharray:none;fill-opacity:1"
     d="M 2.333,17.5858 V 7.3805 l 3.1707,1.822 v 6.5593 z"
     id="path855"
     inkscape:connector-curvature="0" />
  <path
     style="fill:#8ed6fb;stroke:#000000;stroke-width:0;stroke-linecap:butt;stroke-linejoin:miter;stroke-opacity:1;stroke-miterlimit:4;stroke-dasharray:none;fill-opacity:1"
     d="M 2.704,6.7202 11.5904,1.7146 V 5.3894 L 5.854,8.5318 Z"
     id="path857"
     inkscape:connector-curvature="0" />
  <path
     style="fill:#8ed6fb;stroke:#000000;stroke-width:0;stroke-linecap:butt;stroke-linejoin:miter;stroke-opacity:1;stroke-miterlimit:4;stroke-dasharray:none;fill-opacity:1"
     d="m 12.351,1.7146 v 3.6748 l 5.7364,3.1425 3.15,-1.8116 z"
     id="path859"
     inkscape:connector-curvature="0" />
  <path
     style="fill:#8ed6fb;stroke:#000000;stroke-width:0;stroke-linecap:butt;stroke-linejoin:miter;stroke-opacity:1;stroke-miterlimit:4;stroke-dasharray:none;fill-opacity:1"
     d="m 6.1918,16.2426 5.3986,2.9567 V 23 L 2.9257,18.1202 Z"
     id="path861"
     inkscape:connector-curvature="0" />
  <path
     style="fill:#8ed6fb;stroke:#000000;stroke-width:0;stroke-linecap:butt;stroke-linejoin:miter;stroke-opacity:1;stroke-miterlimit:4;stroke-dasharray:none;fill-opacity:1"
     d="m 12.351,23 v -3.8007 l 5.3986,-2.9567 3.266,1.8776 z"
     id="path863"
     inkscape:connector-curvature="0" />
  <path
     style="fill:#8ed6fb;stroke:#000000;stroke-width:0;stroke-linecap:butt;stroke-linejoin:miter;stroke-opacity:1;stroke-miterlimit:4;stroke-dasharray:none;fill-opacity:1"
     d="M 18.4376,15.7618 V 9.2025 l 3.1708,-1.822 v 10.2053 z"
     id="path865"
     inkscape:connector-curvature="0" />
  <path
     style="fill:#1c78c0;stroke:#000000;stroke-width:0;stroke-linecap:butt;stroke-linejoin:miter;stroke-opacity:1;stroke-miterlimit:4;stroke-dasharray:none;fill-opacity:1"
     d="m 6.625,8.9734 5.3467,-2.928 5.3468,2.928 -5.3468,3.0744 z"
     id="path867"
     inkscape:connector-curvature="0" />
  <path
     style="fill:#1c78c0;stroke:#000000;stroke-width:0;stroke-linecap:butt;stroke-linejoin:miter;stroke-opacity:1;stroke-miterlimit:4;stroke-dasharray:none;fill-opacity:1"
     d="m 12.351,18.3348 5.326,-2.9155 V 9.642 l -5.326,3.062 z"
     id="path869"
     inkscape:connector-curvature="0" />
  <path
     style="fill:#1c78c0;stroke:#1c78c0;stroke-width:0;stroke-linecap:butt;stroke-linejoin:miter;stroke-opacity:1;stroke-miterlimit:4;stroke-dasharray:none;fill-opacity:1"
     d="m 6.2643,9.642 5.326,3.062 2e-4,5.6308 -5.3262,-2.9155 z"
     id="path871"
     inkscape:connector-curvature="0" />
</svg>
