<svg xmlns="http://www.w3.org/2000/svg" xmlns:xlink="http://www.w3.org/1999/xlink" width="533.437" height="174.475" data-lt-installed="true"><defs><linearGradient id="b"><stop offset="0" stop-color="#fff" stop-opacity=".549"/><stop offset="1" stop-color="#fff" stop-opacity="0"/></linearGradient><linearGradient id="a"><stop offset="0" stop-color="#8ae234"/><stop offset="1" stop-color="#4e9a06"/></linearGradient><filter id="e" color-interpolation-filters="sRGB"><feGaussianBlur stdDeviation="1.275"/></filter><filter id="d" width="1.337" height="1.335" x="-.168" y="-.168" color-interpolation-filters="sRGB"><feGaussianBlur stdDeviation=".63"/></filter><linearGradient id="c"><stop offset="0" stop-color="#fff"/><stop offset=".5" stop-color="#fff520" stop-opacity=".891"/><stop offset="1" stop-color="#fff300" stop-opacity="0"/></linearGradient><linearGradient id="j" x1="94.473" x2="97.325" y1="197.061" y2="203.072" gradientTransform="translate(-9.31 -145.365) scale(1.16026)" gradientUnits="userSpaceOnUse" xlink:href="#a"/><linearGradient id="k" x1="85.672" x2="116.783" y1="198.703" y2="252.588" gradientTransform="translate(-9.31 -145.365) scale(1.16026)" gradientUnits="userSpaceOnUse" xlink:href="#a"/><linearGradient id="l" x1="93.082" x2="121.945" y1="313.233" y2="370.314" gradientTransform="matrix(1.10066 0 0 1.07484 -5.817 -251.701)" gradientUnits="userSpaceOnUse" xlink:href="#b"/><radialGradient id="m" cx="55" cy="125" r="14.375" fx="55" fy="125" gradientUnits="userSpaceOnUse" xlink:href="#c"/><radialGradient id="i" cx="55" cy="125" r="14.375" fx="55" fy="125" gradientUnits="userSpaceOnUse" xlink:href="#c"/><linearGradient id="h" x1="93.082" x2="121.945" y1="313.233" y2="370.314" gradientTransform="matrix(1.10066 0 0 1.07484 -5.817 -251.701)" gradientUnits="userSpaceOnUse" xlink:href="#b"/><linearGradient id="g" x1="85.672" x2="116.783" y1="198.703" y2="252.588" gradientTransform="translate(-9.31 -145.365) scale(1.16026)" gradientUnits="userSpaceOnUse" xlink:href="#a"/><linearGradient id="f" x1="94.473" x2="97.325" y1="197.061" y2="203.072" gradientTransform="translate(-9.31 -145.365) scale(1.16026)" gradientUnits="userSpaceOnUse" xlink:href="#a"/></defs><g style="text-align:start;line-height:125%;-inkscape-font-specification:Istok Web Bold"><path fill="#333" stroke="#292929" stroke-width="2.245" style="line-height:125%;-inkscape-font-specification:Istok Web Bold" d="M446.27 168.352c-3.539 0-5.308-1.77-5.308-5.308V45.37c0-3.54 1.77-5.309 5.308-5.31h13.98c2.949.001 4.541 1.77 4.777 5.31l.354 5.131h.354c3.067-5.072 6.488-8.376 10.263-9.91 3.775-1.533 8.317-2.3 13.625-2.3 13.862 0 23.594 4.808 29.198 14.422 5.662 9.556 8.493 20.821 8.493 33.798 0 12.976-2.831 24.272-8.493 33.886-5.604 9.556-15.336 14.333-29.198 14.333-5.308 0-9.85-.766-13.625-2.3-3.775-1.534-7.196-4.837-10.263-9.91h-.354c.236 2.36.354 4.72.354 7.079v33.444c0 3.539-1.77 5.308-5.309 5.308H446.27m19.465-77.859c0 7.963 1.563 14.451 4.69 19.465 3.184 4.955 6.989 7.432 11.413 7.432 7.962 0 13.153-2.772 15.571-8.317 2.478-5.603 3.716-13.124 3.716-22.561s-1.238-16.928-3.716-22.473c-2.418-5.603-7.609-8.405-15.571-8.405-4.424 0-8.229 2.507-11.414 7.52-3.126 4.955-4.69 11.414-4.69 19.376v7.963" font-family="Istok Web" font-size="181.199" font-weight="700" letter-spacing="0" word-spacing="0"/></g><g style="text-align:start;line-height:125%;-inkscape-font-specification:PT Sans Bold"><path fill="#333" stroke="#292929" stroke-width="2.245" style="line-height:125%;-inkscape-font-specification:PT Sans Bold" d="M83.495 42.362L99.984 88.75l3.261 15.04h.725l2.537-15.22 11.597-46.207h21.562l-27.904 91.506H94.366l-18.3-50.736-2.356-11.415h-.906l-2.175 11.596-17.395 50.555H35.296L6.122 42.362h25.55l13.227 45.481 2.174 16.127h.906l3.08-16.308 15.04-45.3h17.396zm136.201 82.808c-3.624 2.9-8.577 5.376-14.858 7.43-6.161 1.932-12.745 2.899-19.751 2.899-14.617 0-25.308-4.228-32.072-12.684-6.765-8.577-10.147-20.295-10.147-35.153 0-15.945 3.805-27.904 11.415-35.877 7.61-7.973 18.301-11.96 32.072-11.96 4.59 0 9.06.605 13.409 1.813s8.214 3.2 11.597 5.98c3.382 2.778 6.1 6.522 8.154 11.233 2.053 4.712 3.08 10.57 3.08 17.577 0 2.537-.181 5.255-.543 8.154a85.87 85.87 0 0 1-1.269 9.06h-54.36c.363 7.61 2.296 13.348 5.799 17.214 3.624 3.865 9.422 5.798 17.395 5.798 4.953 0 9.362-.725 13.227-2.174 3.987-1.57 7.007-3.141 9.06-4.712l7.792 15.402zm-33.703-66.5c-6.16 0-10.751 1.873-13.771 5.617-2.9 3.624-4.651 8.517-5.255 14.678h33.703c.483-6.524-.544-11.537-3.08-15.04-2.416-3.503-6.282-5.255-11.597-5.255zm53.733-52.548h23.556V49.61h.725c2.537-2.899 5.798-5.194 9.785-6.885 3.986-1.691 8.395-2.537 13.227-2.537 10.872 0 19.147 3.745 24.824 11.234 5.799 7.37 8.698 18.664 8.698 33.885 0 16.307-4.047 28.69-12.14 37.145-7.973 8.456-18.966 12.684-32.979 12.684-7.73 0-14.798-.664-21.2-1.993-6.402-1.208-11.234-2.597-14.496-4.168V6.123zm40.407 53.998c-4.348 0-7.912 1.147-10.69 3.443-2.658 2.174-4.711 5.375-6.161 9.603v39.502a21.653 21.653 0 0 0 6.16 1.993c2.296.362 4.712.543 7.249.543 6.402 0 11.234-2.295 14.496-6.885 3.382-4.711 5.073-12.14 5.073-22.288 0-17.274-5.375-25.911-16.127-25.911z" font-family="PT Sans" font-size="181.199" font-weight="700" letter-spacing=".495" word-spacing="0"/></g><path fill-rule="evenodd" stroke="#000" stroke-width="1.651" d="M100.134 82.972h8.98v9.021h-8.98z" filter="url(#d)" transform="translate(234.534 -45.13) scale(1.16026)"/><path fill-rule="evenodd" stroke="#000" stroke-width="2.051" d="M95.888 87.412h62.115a5.405 5.405 0 0 1 5.417 5.417v43.72a5.405 5.405 0 0 1-5.417 5.417H95.888a5.405 5.405 0 0 1-5.417-5.417V92.83a5.405 5.405 0 0 1 5.417-5.417z" filter="url(#e)" transform="translate(234.534 -45.13) scale(1.16026)"/><path fill="url(#f)" fill-rule="evenodd" stroke="#366a04" stroke-width="1.916" d="M96.338 78.863h10.418V89.33H96.338z" transform="translate(254.378 -27.725)"/><path fill="url(#g)" fill-rule="evenodd" stroke="#366a04" stroke-width="2.38" d="M91.41 84.015h72.07a6.272 6.272 0 0 1 6.285 6.285v50.726a6.272 6.272 0 0 1-6.285 6.286H91.41a6.272 6.272 0 0 1-6.284-6.286V90.3a6.272 6.272 0 0 1 6.285-6.285z" transform="translate(254.378 -27.725)"/><path fill="#fff" stroke="#366a04" stroke-width="2.38" d="M397.304 87.938c0 8.55-6.931 15.48-15.48 15.48-8.55 0-15.481-6.93-15.481-15.48s6.93-15.48 15.48-15.48 15.48 6.93 15.48 15.48z"/><path fill="none" stroke="url(#h)" stroke-linejoin="round" stroke-width="2.231" d="M93.12 86.242h68.366c4.464 0 5.963 1.872 5.963 5.823v46.992c0 3.95-1.644 5.822-5.963 5.822H93.12c-4.463 0-5.962-1.726-5.962-5.822V92.065c0-4.386 1.934-5.823 5.962-5.823z" transform="translate(254.378 -27.725)"/><path fill="url(#i)" d="M69.375 125a14.375 14.375 0 1 1-28.75 0 14.375 14.375 0 1 1 28.75 0z" color="#000" display="block" transform="translate(342.085 -88.318) scale(1.13711)" style="marker:none"/><text style="text-align:start;line-height:125%;-inkscape-font-specification:Istok Web Bold" x="174.551" y="160.687" fill="#333" stroke="#292929" stroke-width="2.245" font-family="Istok Web" font-size="181.199" font-weight="700" letter-spacing="0" transform="translate(254.378 200.275)" word-spacing="0"><tspan style="text-align:start;line-height:125%;-inkscape-font-specification:Istok Web Bold" x="174.551" y="160.687">p</tspan></text><text x="-246.806" y="160.687" fill="#333" stroke="#292929" stroke-width="2.245" font-family="PT Sans" font-size="181.199" font-weight="700" letter-spacing="0" transform="translate(254.378 200.275)" word-spacing="0" style="text-align:start;line-height:125%;-inkscape-font-specification:PT Sans Bold"><tspan style="text-align:start;line-height:125%;-inkscape-font-specification:PT Sans Bold" x="-246.806" y="160.687" letter-spacing=".495">web</tspan></text><path fill-rule="evenodd" stroke="#000" stroke-width="1.651" d="M100.134 82.972h8.98v9.021h-8.98z" filter="url(#d)" transform="translate(234.534 182.87) scale(1.16026)"/><path fill-rule="evenodd" stroke="#000" stroke-width="2.051" d="M95.888 87.412h62.115a5.405 5.405 0 0 1 5.417 5.417v43.72a5.405 5.405 0 0 1-5.417 5.417H95.888a5.405 5.405 0 0 1-5.417-5.417V92.83a5.405 5.405 0 0 1 5.417-5.417z" filter="url(#e)" transform="translate(234.534 182.87) scale(1.16026)"/><path fill="url(#j)" fill-rule="evenodd" stroke="#366a04" stroke-width="1.916" d="M96.338 78.863h10.418V89.33H96.338z" transform="translate(254.378 200.275)"/><path fill="url(#k)" fill-rule="evenodd" stroke="#366a04" stroke-width="2.38" d="M91.41 84.015h72.07a6.272 6.272 0 0 1 6.285 6.285v50.726a6.272 6.272 0 0 1-6.285 6.286H91.41a6.272 6.272 0 0 1-6.284-6.286V90.3a6.272 6.272 0 0 1 6.285-6.285z" transform="translate(254.378 200.275)"/><path fill="#fff" stroke="#366a04" stroke-width="2.38" d="M397.304 315.938c0 8.55-6.931 15.48-15.48 15.48-8.55 0-15.481-6.93-15.481-15.48s6.93-15.48 15.48-15.48 15.48 6.93 15.48 15.48z"/><path fill="none" stroke="url(#l)" stroke-linejoin="round" stroke-width="2.231" d="M93.12 86.242h68.366c4.464 0 5.963 1.872 5.963 5.823v46.992c0 3.95-1.644 5.822-5.963 5.822H93.12c-4.463 0-5.962-1.726-5.962-5.822V92.065c0-4.386 1.934-5.823 5.962-5.823z" transform="translate(254.378 200.275)"/><path fill="url(#m)" d="M69.375 125a14.375 14.375 0 1 1-28.75 0 14.375 14.375 0 1 1 28.75 0z" color="#000" display="block" transform="translate(342.085 139.682) scale(1.13711)" style="marker:none"/></svg>