<svg xmlns="http://www.w3.org/2000/svg" viewBox="0 0 24 24"><path d="M21.016 18.12L12.35 23v-3.8l5.399-2.957 3.266 1.877zm.592-.534V7.38l-3.17 1.821v6.56l3.17 1.824zm-18.682.534L11.59 23v-3.8l-5.398-2.957-3.266 1.877zm-.593-.534V7.38l3.17 1.821v6.56l-3.17 1.824zM2.704 6.72l8.886-5.005v3.674L5.897 8.507l-.043.025-3.15-1.812zm18.534 0L12.35 1.715v3.674l5.693 3.118.043.025 3.15-1.812zM11.59 18.335l-5.327-2.916V9.642l5.326 3.062v5.63zm.76 0l5.326-2.916V9.642l-5.326 3.062v5.63zM6.625 8.973l5.347-2.928 5.347 2.928-5.347 3.075-5.347-3.075z"/><path d="M4.317 7.627c-.845-.486-1.532-.897-1.527-.912.009-.025 8.644-4.903 8.755-4.946.037-.014.046.34.045 1.793v1.81L8.993 6.794l-2.868 1.57-.272.148z" fill="none"/><path d="M4.317 7.627c-.845-.486-1.532-.897-1.527-.912.009-.025 8.644-4.903 8.755-4.946.037-.014.046.34.045 1.793v1.81L8.993 6.794l-2.868 1.57-.272.148z" fill="none"/><path d="M4.317 7.627c-.845-.486-1.532-.897-1.527-.912.009-.025 8.644-4.903 8.755-4.946.037-.014.046.34.045 1.793v1.81L8.993 6.794l-2.868 1.57-.272.148z" fill="none"/><path d="M4.317 7.627c-.845-.486-1.532-.897-1.527-.912.009-.025 8.644-4.903 8.755-4.946.037-.014.046.34.045 1.793v1.81L8.993 6.794l-2.868 1.57-.272.148z" fill="none"/><path d="M4.317 7.627c-.845-.486-1.532-.897-1.527-.912.009-.025 8.644-4.903 8.755-4.946.037-.014.046.34.045 1.793v1.81L8.993 6.794l-2.868 1.57-.272.148z" fill="none"/><path d="M4.317 7.627c-.845-.486-1.532-.897-1.527-.912.009-.025 8.644-4.903 8.755-4.946.037-.014.046.34.045 1.793v1.81L8.993 6.794l-2.868 1.57-.272.148z" fill="none"/><path d="M4.317 7.627c-.845-.486-1.532-.897-1.527-.912.009-.025 8.644-4.903 8.755-4.946.037-.014.046.34.045 1.793v1.81L8.993 6.794l-2.868 1.57-.272.148z" fill="none"/><path d="M4.317 7.627c-.845-.486-1.532-.897-1.527-.912.009-.025 8.644-4.903 8.755-4.946.037-.014.046.34.045 1.793v1.81L8.993 6.794l-2.868 1.57-.272.148z" fill="none"/><path d="M4.317 7.627c-.845-.486-1.532-.897-1.527-.912.009-.025 8.644-4.903 8.755-4.946.037-.014.046.34.045 1.793v1.81L8.993 6.794l-2.868 1.57-.272.148z" fill="none"/><path d="M4.317 7.627c-.845-.486-1.532-.897-1.527-.912.009-.025 8.644-4.903 8.755-4.946.037-.014.046.34.045 1.793v1.81L8.993 6.794l-2.868 1.57-.272.148z" fill="none"/><path d="M4.317 7.627c-.845-.486-1.532-.897-1.527-.912.009-.025 8.644-4.903 8.755-4.946.037-.014.046.34.045 1.793v1.81L8.993 6.794l-2.868 1.57-.272.148z" fill="none"/><path d="M4.317 7.627c-.845-.486-1.532-.897-1.527-.912.009-.025 8.644-4.903 8.755-4.946.037-.014.046.34.045 1.793v1.81L8.993 6.794l-2.868 1.57-.272.148z" fill="none"/><path d="M4.317 7.627c-.845-.486-1.532-.897-1.527-.912.009-.025 8.644-4.903 8.755-4.946.037-.014.046.34.045 1.793v1.81L8.993 6.794l-2.868 1.57-.272.148z" fill="none"/><path d="M4.317 7.627c-.845-.486-1.532-.897-1.527-.912.009-.025 8.644-4.903 8.755-4.946.037-.014.046.34.045 1.793v1.81L8.993 6.794l-2.868 1.57-.272.148zm2.968 12.929c-2.358-1.329-4.287-2.425-4.287-2.436 0-.012.714-.431 1.587-.933 1.346-.773 1.6-.907 1.67-.88.046.018 1.264.68 2.709 1.47l2.625 1.438.001 1.879c0 1.033-.003 1.878-.008 1.878s-1.939-1.088-4.297-2.416z" fill="none"/><path d="M7.285 20.556c-2.358-1.329-4.287-2.425-4.287-2.436 0-.012.714-.431 1.587-.933 1.346-.773 1.6-.907 1.67-.88.046.018 1.264.68 2.709 1.47l2.625 1.438.001 1.879c0 1.033-.003 1.878-.008 1.878s-1.939-1.088-4.297-2.416z" fill="none"/><path d="M7.285 20.556c-2.358-1.329-4.287-2.425-4.287-2.436 0-.012.714-.431 1.587-.933 1.346-.773 1.6-.907 1.67-.88.046.018 1.264.68 2.709 1.47l2.625 1.438.001 1.879c0 1.033-.003 1.878-.008 1.878s-1.939-1.088-4.297-2.416z" fill="none"/><path d="M7.285 20.556c-2.358-1.329-4.287-2.425-4.287-2.436 0-.012.714-.431 1.587-.933 1.346-.773 1.6-.907 1.67-.88.046.018 1.264.68 2.709 1.47l2.625 1.438.001 1.879c0 1.033-.003 1.878-.008 1.878s-1.939-1.088-4.297-2.416z" fill="none"/><path d="M2.333 17.586V7.38l3.17 1.821v6.56zM2.704 6.72l8.886-5.005v3.674L5.854 8.532zm9.647-5.005v3.674l5.736 3.143 3.15-1.812zM6.192 16.243l5.398 2.956V23l-8.664-4.88zM12.351 23v-3.8l5.399-2.957 3.266 1.877zm6.087-7.238v-6.56l3.17-1.821v10.205z" fill="#8ed6fb"/><path d="M6.625 8.973l5.347-2.928 5.347 2.928-5.347 3.075zm5.726 9.362l5.326-2.916V9.642l-5.326 3.062zM6.264 9.642l5.326 3.062v5.63L6.264 15.42z" fill="#1c78c0"/></svg>