<svg xmlns:dc="http://purl.org/dc/elements/1.1/" xmlns:cc="http://creativecommons.org/ns#" xmlns:rdf="http://www.w3.org/1999/02/22-rdf-syntax-ns#" xmlns:svg="http://www.w3.org/2000/svg" xmlns="http://www.w3.org/2000/svg" xmlns:xlink="http://www.w3.org/1999/xlink" xmlns:sodipodi="http://sodipodi.sourceforge.net/DTD/sodipodi-0.dtd" xmlns:inkscape="http://www.inkscape.org/namespaces/inkscape" width="533.43701" height="174.47502" id="svg2816" version="1.1" inkscape:version="0.48.3.1 r9886" sodipodi:docname="webp-2012.svg" inkscape:export-filename="/home/louquillio/working/website2012/media/images/webm-2012.png" inkscape:export-xdpi="89.995293" inkscape:export-ydpi="89.995293" x="0" y="0" data-lt-installed="true">
  <defs id="defs2818">
    <linearGradient id="linearGradient3632">
      <stop style="stop-color:#ffffff;stop-opacity:0.54901963;" offset="0" id="stop3634"/>
      <stop style="stop-color:#ffffff;stop-opacity:0;" offset="1" id="stop3636"/>
    </linearGradient>
    <linearGradient id="linearGradient3600">
      <stop style="stop-color:#8ae234;stop-opacity:1;" offset="0" id="stop3602"/>
      <stop style="stop-color:#4e9a06;stop-opacity:1;" offset="1" id="stop3604"/>
    </linearGradient>
    <filter inkscape:collect="always" id="filter4515" color-interpolation-filters="sRGB">
      <feGaussianBlur inkscape:collect="always" stdDeviation="1.2750342" id="feGaussianBlur4517"/>
    </filter>
    <filter inkscape:collect="always" id="filter4561" x="-0.1683974" width="1.3367949" y="-0.16760448" height="1.335209" color-interpolation-filters="sRGB">
      <feGaussianBlur inkscape:collect="always" stdDeviation="0.6300462" id="feGaussianBlur4563"/>
    </filter>
    <linearGradient inkscape:collect="always" xlink:href="#linearGradient3632" id="linearGradient4719" gradientUnits="userSpaceOnUse" gradientTransform="matrix(1.1006594,0,0,1.0748414,-5.8170001,-251.70109)" x1="93.081734" y1="313.23264" x2="121.9454" y2="370.31427"/>
    <linearGradient inkscape:collect="always" xlink:href="#linearGradient3600" id="linearGradient4723" gradientUnits="userSpaceOnUse" gradientTransform="matrix(1.1602561,0,0,1.1602561,-9.3104696,-145.36543)" x1="85.67218" y1="198.70251" x2="116.78297" y2="252.58798"/>
    <linearGradient inkscape:collect="always" xlink:href="#linearGradient3600" id="linearGradient4726" gradientUnits="userSpaceOnUse" gradientTransform="matrix(1.1602561,0,0,1.1602561,-9.3104696,-145.36543)" x1="94.473076" y1="197.06116" x2="97.325272" y2="203.07156"/>
    <linearGradient id="linearGradient12512">
      <stop style="stop-color:#ffffff;stop-opacity:1.0000000;" offset="0.0000000" id="stop12513"/>
      <stop style="stop-color:#fff520;stop-opacity:0.89108908;" offset="0.50000000" id="stop12517"/>
      <stop style="stop-color:#fff300;stop-opacity:0.0000000;" offset="1.0000000" id="stop12514"/>
    </linearGradient>
    <radialGradient r="14.375" fy="125" fx="55" cy="125" cx="55" gradientUnits="userSpaceOnUse" id="radialGradient3081" xlink:href="#linearGradient12512" inkscape:collect="always"/>
    <linearGradient inkscape:collect="always" xlink:href="#linearGradient3600" id="linearGradient3059" gradientUnits="userSpaceOnUse" gradientTransform="matrix(1.1602561,0,0,1.1602561,-9.3104696,-145.36543)" x1="94.473076" y1="197.06116" x2="97.325272" y2="203.07156"/>
    <linearGradient inkscape:collect="always" xlink:href="#linearGradient3600" id="linearGradient3061" gradientUnits="userSpaceOnUse" gradientTransform="matrix(1.1602561,0,0,1.1602561,-9.3104696,-145.36543)" x1="85.67218" y1="198.70251" x2="116.78297" y2="252.58798"/>
    <linearGradient inkscape:collect="always" xlink:href="#linearGradient3632" id="linearGradient3063" gradientUnits="userSpaceOnUse" gradientTransform="matrix(1.1006594,0,0,1.0748414,-5.8170001,-251.70109)" x1="93.081734" y1="313.23264" x2="121.9454" y2="370.31427"/>
    <radialGradient inkscape:collect="always" xlink:href="#linearGradient12512" id="radialGradient3065" gradientUnits="userSpaceOnUse" cx="55" cy="125" fx="55" fy="125" r="14.375"/>
    <linearGradient inkscape:collect="always" xlink:href="#linearGradient3600" id="linearGradient3067" gradientUnits="userSpaceOnUse" gradientTransform="matrix(1.1602561,0,0,1.1602561,-9.3104696,-145.36543)" x1="94.473076" y1="197.06116" x2="97.325272" y2="203.07156"/>
    <linearGradient inkscape:collect="always" xlink:href="#linearGradient3600" id="linearGradient3069" gradientUnits="userSpaceOnUse" gradientTransform="matrix(1.1602561,0,0,1.1602561,-9.3104696,-145.36543)" x1="85.67218" y1="198.70251" x2="116.78297" y2="252.58798"/>
    <linearGradient inkscape:collect="always" xlink:href="#linearGradient3632" id="linearGradient3071" gradientUnits="userSpaceOnUse" gradientTransform="matrix(1.1006594,0,0,1.0748414,-5.8170001,-251.70109)" x1="93.081734" y1="313.23264" x2="121.9454" y2="370.31427"/>
    <radialGradient inkscape:collect="always" xlink:href="#linearGradient12512" id="radialGradient3073" gradientUnits="userSpaceOnUse" cx="55" cy="125" fx="55" fy="125" r="14.375"/>
    <linearGradient inkscape:collect="always" xlink:href="#linearGradient3632" id="linearGradient3077" gradientUnits="userSpaceOnUse" gradientTransform="matrix(1.1006594,0,0,1.0748414,-5.8170001,-251.70109)" x1="93.081734" y1="313.23264" x2="121.9454" y2="370.31427"/>
    <linearGradient inkscape:collect="always" xlink:href="#linearGradient3600" id="linearGradient3081" gradientUnits="userSpaceOnUse" gradientTransform="matrix(1.1602561,0,0,1.1602561,-9.3104696,-145.36543)" x1="85.67218" y1="198.70251" x2="116.78297" y2="252.58798"/>
    <linearGradient inkscape:collect="always" xlink:href="#linearGradient3600" id="linearGradient3084" gradientUnits="userSpaceOnUse" gradientTransform="matrix(1.1602561,0,0,1.1602561,-9.3104696,-145.36543)" x1="94.473076" y1="197.06116" x2="97.325272" y2="203.07156"/>
  </defs>
  <sodipodi:namedview id="base" pagecolor="#ffffff" bordercolor="#666666" borderopacity="1.0" inkscape:pageopacity="1" inkscape:pageshadow="2" inkscape:zoom="1" inkscape:cx="285.91155" inkscape:cy="-25.611566" inkscape:current-layer="layer1" showgrid="false" inkscape:grid-bbox="true" inkscape:document-units="px" showguides="true" inkscape:guide-bbox="true" inkscape:window-width="995" inkscape:window-height="751" inkscape:window-x="224" inkscape:window-y="511" inkscape:window-maximized="0" fit-margin-top="5" fit-margin-right="5" fit-margin-bottom="5" fit-margin-left="5">
    <inkscape:grid type="xygrid" id="grid3608" empspacing="5" visible="true" enabled="true" snapvisiblegridlinesonly="true" originx="9.1934205e-07px" originy="64.885002px"/>
  </sodipodi:namedview>
  <metadata id="metadata2821">
    <rdf:RDF>
      <cc:Work rdf:about="">
        <dc:format>image/svg+xml</dc:format>
        <dc:type rdf:resource="http://purl.org/dc/dcmitype/StillImage"/>
        <dc:title/>
      </cc:Work>
    </rdf:RDF>
  </metadata>
  <g id="layer1" inkscape:label="Layer 1" inkscape:groupmode="layer" transform="translate(254.378,-27.72519)">
    <g style="font-size:181.19909668px;font-style:normal;font-variant:normal;font-weight:bold;font-stretch:normal;text-align:start;line-height:125%;letter-spacing:0px;word-spacing:0px;writing-mode:lr-tb;text-anchor:start;fill:#333333;fill-opacity:1;stroke:#292929;stroke-width:2.24540329;stroke-miterlimit:4;stroke-opacity:1;font-family:Istok Web;-inkscape-font-specification:Istok Web Bold" id="text3134">
      <path d="m 191.89219,196.07751 c -3.53906,-4e-5 -5.30858,-1.76956 -5.30856,-5.30857 l 0,-117.673243 c -2e-5,-3.538953 1.7695,-5.308474 5.30856,-5.308567 l 13.97923,0 c 2.94917,9.3e-5 4.54174,1.769614 4.77771,5.308567 l 0.3539,5.131615 0.35391,0 c 3.06713,-5.072543 6.4882,-8.375648 10.26323,-9.909325 3.77493,-1.533492 8.3167,-2.300285 13.62532,-2.300379 13.86119,9.4e-5 23.59355,4.807292 29.19712,14.421607 5.66238,9.555492 8.49361,20.821445 8.49371,33.797875 -1e-4,12.97654 -2.83133,24.27198 -8.49371,33.88636 -5.60357,9.55542 -15.33593,14.33313 -29.19712,14.33313 -5.30862,0 -9.85039,-0.76679 -13.62532,-2.30038 -3.77503,-1.53358 -7.1961,-4.83669 -10.26323,-9.90932 l -0.35391,0 c 0.2359,2.35937 0.35387,4.71873 0.35391,7.07808 l 0,33.44398 c -4e-5,3.53901 -1.76956,5.30853 -5.30857,5.30857 l -14.15618,0 m 19.46475,-77.85899 c -4e-5,7.96288 1.56304,14.45113 4.68923,19.46475 3.1851,4.95468 6.98957,7.43201 11.41342,7.43199 7.96279,2e-5 13.15339,-2.77223 15.5718,-8.31676 2.47726,-5.60345 3.71593,-13.12392 3.716,-22.56141 -7e-5,-9.43739 -1.23874,-16.928364 -3.716,-22.472931 -2.41841,-5.603413 -7.60901,-8.405154 -15.5718,-8.405232 -4.42385,7.8e-5 -8.22832,2.506899 -11.41342,7.520471 -3.12619,4.954727 -4.68927,11.413482 -4.68923,19.376272 l 0,7.96285" style="line-height:125%;font-family:Istok Web;-inkscape-font-specification:Istok Web Bold" id="path3100" inkscape:connector-curvature="0"/>
    </g>
    <g style="font-size:181.19909668px;font-style:normal;font-variant:normal;font-weight:bold;font-stretch:normal;text-align:start;line-height:125%;letter-spacing:0px;word-spacing:0px;writing-mode:lr-tb;text-anchor:start;fill:#333333;fill-opacity:1;stroke:#292929;stroke-width:2.24499989;stroke-miterlimit:4;stroke-opacity:1;font-family:PT Sans;-inkscape-font-specification:PT Sans Bold" id="text3147">
      <path d="m -170.88349,70.087509 16.48912,46.386971 3.26158,15.03952 0.7248,0 2.53679,-15.22072 11.59674,-46.205771 21.56269,0 -27.90466,91.505541 -17.39511,0 -18.30111,-50.73574 -2.35559,-11.415547 -0.90599,0 -2.17439,11.596747 -17.39512,50.55454 -17.93871,0 -29.17305,-91.505541 25.54907,0 13.22754,45.480971 2.17438,16.12672 0.906,0 3.08039,-16.30792 15.03952,-45.299771 17.39511,0 z" style="line-height:125%;letter-spacing:0.49462566;font-family:PT Sans;-inkscape-font-specification:PT Sans Bold" id="path3093" inkscape:connector-curvature="0"/>
      <path d="m -34.682064,152.8955 c -3.624061,2.89919 -8.576832,5.37557 -14.858326,7.42916 -6.160831,1.93279 -12.744392,2.89918 -19.750702,2.89918 -14.61676,0 -25.307496,-4.22797 -32.072238,-12.68393 -6.76478,-8.57674 -10.14716,-20.29427 -10.14715,-35.15263 -1e-5,-15.945456 3.80517,-27.904584 11.41554,-35.877418 7.610339,-7.972671 18.301075,-11.959047 32.072242,-11.95914 4.590323,9.3e-5 9.059896,0.604089 13.408733,1.811991 4.348711,1.208084 8.214288,3.201272 11.596742,5.97957 3.382306,2.778469 6.100289,6.523246 8.15396,11.234344 2.053505,4.711246 3.080299,10.570011 3.080384,17.576313 -8.5e-5,2.53684 -0.181284,5.25482 -0.543597,8.15396 -0.241684,2.89923 -0.664481,5.91921 -1.268394,9.05995 l -54.359729,0 c 0.362369,7.6104 2.295157,13.34836 5.798372,17.21392 3.623943,3.8656 9.422308,5.79839 17.395113,5.79837 4.952717,2e-5 9.361891,-0.72478 13.227534,-2.17439 3.98631,-1.57037 7.006292,-3.14076 9.059955,-4.71118 l 7.791561,15.40193 z M -68.385096,86.395428 c -6.160812,7.4e-5 -10.751185,1.872463 -13.771131,5.617172 -2.899218,3.624047 -4.650808,8.51642 -5.254774,14.67713 l 33.703032,0 c 0.483133,-6.52311 -0.543661,-11.53628 -3.080385,-15.039528 -2.416046,-3.50311 -6.281623,-5.2547 -11.596742,-5.254774 z" style="line-height:125%;letter-spacing:0.49462566;font-family:PT Sans;-inkscape-font-specification:PT Sans Bold" id="path3095" inkscape:connector-curvature="0"/>
      <path d="m -14.651907,33.84769 23.555883,0 0,43.487783 0.7247963,0 c 2.5367507,-2.899099 5.7983307,-5.194286 9.7847517,-6.885566 3.986331,-1.691099 8.395505,-2.536694 13.227534,-2.536787 10.871877,9.3e-5 19.146627,3.74487 24.824276,11.234344 5.798283,7.368837 8.697465,18.66357 8.697557,33.884236 -9.2e-5,16.30795 -4.046867,28.68987 -12.14034,37.14581 -7.972831,8.45596 -18.965565,12.68393 -32.978236,12.68394 -7.731199,-1e-5 -14.797957,-0.6644 -21.20029388,-1.99319 -6.40238652,-1.208 -11.23435712,-2.59719 -14.49592812,-4.16758 l 0,-122.85299 z m 40.407399,53.997331 c -4.348825,7.2e-5 -7.912403,1.147666 -10.690747,3.442782 -2.657624,2.174457 -4.711212,5.375638 -6.160769,9.603557 l 0,39.5014 c 1.932754,0.96641 3.986342,1.63081 6.160769,1.99319 2.295146,0.36241 4.711132,0.54361 7.247964,0.5436 6.402314,1e-5 11.234286,-2.29517 14.495928,-6.88557 3.382318,-4.71115 5.073508,-12.1403 5.073575,-22.28749 -6.7e-5,-17.274248 -5.375635,-25.911397 -16.12672,-25.911469 z" style="line-height:125%;letter-spacing:0.49462566;font-family:PT Sans;-inkscape-font-specification:PT Sans Bold" id="path3097" inkscape:connector-curvature="0"/>
    </g>
    <path id="path4537" d="m 100.13434,82.97157 8.97942,0 0,9.0219 -8.97942,0 z" style="fill:#000000;fill-opacity:1;fill-rule:evenodd;stroke:#000000;stroke-width:1.65095925;stroke-linecap:butt;stroke-linejoin:miter;stroke-miterlimit:4;stroke-opacity:1;stroke-dasharray:none;filter:url(#filter4561)" inkscape:connector-curvature="0" transform="matrix(1.1602561,0,0,1.1602561,-19.84377,-17.405717)"/>
    <path id="path4513" d="m 95.888035,87.41211 62.114755,0 c 3.00109,0 5.41715,2.41602 5.41715,5.41714 l 0,43.72009 c 0,3.00108 -2.41606,5.4171 -5.41715,5.4171 l -62.114755,0 c -3.001123,0 -5.417185,-2.41602 -5.417185,-5.4171 l 0,-43.72009 c 0,-3.00112 2.416062,-5.41714 5.417185,-5.41714 z" style="fill:#000000;fill-opacity:1;fill-rule:evenodd;stroke:#000000;stroke-width:2.05091691;stroke-linecap:butt;stroke-linejoin:miter;stroke-miterlimit:4;stroke-opacity:1;stroke-dasharray:none;filter:url(#filter4515)" inkscape:connector-curvature="0" transform="matrix(1.1602561,0,0,1.1602561,-19.84377,-17.405717)"/>
    <path inkscape:connector-curvature="0" style="fill:url(#linearGradient3084);fill-opacity:1;fill-rule:evenodd;stroke:#366a04;stroke-width:1.91553545;stroke-linecap:butt;stroke-linejoin:miter;stroke-miterlimit:4;stroke-opacity:1;stroke-dasharray:none" d="m 96.33771,78.862551 10.41842,0 0,10.467714 -10.41842,0 z" id="path4469"/>
    <path inkscape:connector-curvature="0" style="fill:url(#linearGradient3081);fill-opacity:1;fill-rule:evenodd;stroke:#366a04;stroke-width:2.37958884;stroke-linecap:butt;stroke-linejoin:miter;stroke-miterlimit:4;stroke-opacity:1;stroke-dasharray:none" d="m 91.410904,84.014715 72.069026,0 c 3.48203,0 6.28528,2.803202 6.28528,6.285269 l 0,50.726496 c 0,3.48203 -2.80325,6.28523 -6.28528,6.28523 l -72.069026,0 c -3.482071,0 -6.285321,-2.8032 -6.285321,-6.28523 l 0,-50.726496 c 0,-3.482067 2.80325,-6.285269 6.285321,-6.285269 z" id="path4471"/>
    <path inkscape:connector-curvature="0" style="fill:#ffffff;fill-opacity:1;stroke:#366a04;stroke-width:2.37958884;stroke-miterlimit:4;stroke-opacity:1;stroke-dasharray:none" d="m 142.9258,115.66322 c 0,8.54958 -6.93082,15.4804 -15.4804,15.4804 -8.54959,0 -15.48041,-6.93082 -15.48041,-15.4804 0,-8.54963 6.93082,-15.48045 15.48041,-15.48045 8.54958,0 15.4804,6.93082 15.4804,15.48045 z" id="path4473"/>
    <path id="path4483" d="m 93.119109,86.242047 68.367191,0 c 4.46344,0 5.96243,1.871678 5.96243,5.822571 l 0,46.992162 c 0,3.95084 -1.64402,5.82251 -5.96243,5.82251 l -68.367191,0 c -4.463468,0 -5.962475,-1.72664 -5.962475,-5.82251 l 0,-46.992162 c 0,-4.385989 1.934103,-5.822571 5.962475,-5.822571 z" style="fill:none;stroke:url(#linearGradient3077);stroke-width:2.23117232;stroke-linecap:butt;stroke-linejoin:round;stroke-miterlimit:4;stroke-opacity:1;stroke-dasharray:none" inkscape:connector-curvature="0" sodipodi:nodetypes="sssssssss"/>
    <path sodipodi:type="arc" style="color:#000000;fill:url(#radialGradient3073);fill-opacity:1;fill-rule:nonzero;stroke:none;stroke-width:1.25000024;marker:none;visibility:visible;display:block" id="path12511" sodipodi:cx="55" sodipodi:cy="125" sodipodi:rx="14.375" sodipodi:ry="14.375" d="m 69.375,125 a 14.375,14.375 0 1 1 -28.75,0 14.375,14.375 0 1 1 28.75,0 z" transform="matrix(1.1371116,0,0,1.1371116,87.707333,-60.592667)" inkscape:export-filename="/home/jimmac/ximian_art/icons/nautilus/suse93/stock_new-16.png" inkscape:export-xdpi="33.852203" inkscape:export-ydpi="33.852203"/>
    <g id="g3035" transform="translate(0,228)">
      <text sodipodi:linespacing="125%" id="text3037" y="160.68706" x="174.55087" style="font-size:181.19909668px;font-style:normal;font-variant:normal;font-weight:bold;font-stretch:normal;text-align:start;line-height:125%;letter-spacing:0px;word-spacing:0px;writing-mode:lr-tb;text-anchor:start;fill:#333333;fill-opacity:1;stroke:#292929;stroke-width:2.24540329;stroke-miterlimit:4;stroke-opacity:1;stroke-dasharray:none;font-family:Istok Web;-inkscape-font-specification:Istok Web Bold" xml:space="preserve"><tspan y="160.68706" x="174.55087" id="tspan3039" sodipodi:role="line" style="font-size:181.19909668px;font-style:normal;font-variant:normal;font-weight:bold;font-stretch:normal;text-align:start;line-height:125%;writing-mode:lr-tb;text-anchor:start;stroke-width:2.24540329;font-family:Istok Web;-inkscape-font-specification:Istok Web Bold">p</tspan></text>
      <text xml:space="preserve" style="font-size:181.19909668px;font-style:normal;font-variant:normal;font-weight:bold;font-stretch:normal;text-align:start;line-height:125%;letter-spacing:0px;word-spacing:0px;writing-mode:lr-tb;text-anchor:start;fill:#333333;fill-opacity:1;stroke:#292929;stroke-width:2.24499989;stroke-miterlimit:4;stroke-opacity:1;stroke-dasharray:none;font-family:PT Sans;-inkscape-font-specification:PT Sans Bold" x="-246.80591" y="160.68706" id="text3041" sodipodi:linespacing="125%"><tspan sodipodi:role="line" id="tspan3043" x="-246.80591" y="160.68706" style="font-size:181.19909668px;font-style:normal;font-variant:normal;font-weight:bold;font-stretch:normal;text-align:start;line-height:125%;letter-spacing:0.49462566;writing-mode:lr-tb;text-anchor:start;stroke-width:2.24499989;stroke-miterlimit:4;stroke-dasharray:none;font-family:PT Sans;-inkscape-font-specification:PT Sans Bold">web</tspan></text>
      <path id="path3045" d="m 100.13434,82.97157 8.97942,0 0,9.0219 -8.97942,0 z" style="fill:#000000;fill-opacity:1;fill-rule:evenodd;stroke:#000000;stroke-width:1.65095925;stroke-linecap:butt;stroke-linejoin:miter;stroke-miterlimit:4;stroke-opacity:1;stroke-dasharray:none;filter:url(#filter4561)" inkscape:connector-curvature="0" transform="matrix(1.1602561,0,0,1.1602561,-19.84377,-17.405717)"/>
      <path id="path3047" d="m 95.888035,87.41211 62.114755,0 c 3.00109,0 5.41715,2.41602 5.41715,5.41714 l 0,43.72009 c 0,3.00108 -2.41606,5.4171 -5.41715,5.4171 l -62.114755,0 c -3.001123,0 -5.417185,-2.41602 -5.417185,-5.4171 l 0,-43.72009 c 0,-3.00112 2.416062,-5.41714 5.417185,-5.41714 z" style="fill:#000000;fill-opacity:1;fill-rule:evenodd;stroke:#000000;stroke-width:2.05091691;stroke-linecap:butt;stroke-linejoin:miter;stroke-miterlimit:4;stroke-opacity:1;stroke-dasharray:none;filter:url(#filter4515)" inkscape:connector-curvature="0" transform="matrix(1.1602561,0,0,1.1602561,-19.84377,-17.405717)"/>
      <path inkscape:connector-curvature="0" style="fill:url(#linearGradient3059);fill-opacity:1;fill-rule:evenodd;stroke:#366a04;stroke-width:1.91553545;stroke-linecap:butt;stroke-linejoin:miter;stroke-miterlimit:4;stroke-opacity:1;stroke-dasharray:none" d="m 96.33771,78.862551 10.41842,0 0,10.467714 -10.41842,0 z" id="path3049"/>
      <path inkscape:connector-curvature="0" style="fill:url(#linearGradient3061);fill-opacity:1;fill-rule:evenodd;stroke:#366a04;stroke-width:2.37958884;stroke-linecap:butt;stroke-linejoin:miter;stroke-miterlimit:4;stroke-opacity:1;stroke-dasharray:none" d="m 91.410904,84.014715 72.069026,0 c 3.48203,0 6.28528,2.803202 6.28528,6.285269 l 0,50.726496 c 0,3.48203 -2.80325,6.28523 -6.28528,6.28523 l -72.069026,0 c -3.482071,0 -6.285321,-2.8032 -6.285321,-6.28523 l 0,-50.726496 c 0,-3.482067 2.80325,-6.285269 6.285321,-6.285269 z" id="path3051"/>
      <path inkscape:connector-curvature="0" style="fill:#ffffff;fill-opacity:1;stroke:#366a04;stroke-width:2.37958884;stroke-miterlimit:4;stroke-opacity:1;stroke-dasharray:none" d="m 142.9258,115.66322 c 0,8.54958 -6.93082,15.4804 -15.4804,15.4804 -8.54959,0 -15.48041,-6.93082 -15.48041,-15.4804 0,-8.54963 6.93082,-15.48045 15.48041,-15.48045 8.54958,0 15.4804,6.93082 15.4804,15.48045 z" id="path3053"/>
      <path id="path3055" d="m 93.119109,86.242047 68.367191,0 c 4.46344,0 5.96243,1.871678 5.96243,5.822571 l 0,46.992162 c 0,3.95084 -1.64402,5.82251 -5.96243,5.82251 l -68.367191,0 c -4.463468,0 -5.962475,-1.72664 -5.962475,-5.82251 l 0,-46.992162 c 0,-4.385989 1.934103,-5.822571 5.962475,-5.822571 z" style="fill:none;stroke:url(#linearGradient3063);stroke-width:2.23117232;stroke-linecap:butt;stroke-linejoin:round;stroke-miterlimit:4;stroke-opacity:1;stroke-dasharray:none" inkscape:connector-curvature="0" sodipodi:nodetypes="sssssssss"/>
      <path sodipodi:type="arc" style="color:#000000;fill:url(#radialGradient3065);fill-opacity:1;fill-rule:nonzero;stroke:none;stroke-width:1.25000024;marker:none;visibility:visible;display:block" id="path3057" sodipodi:cx="55" sodipodi:cy="125" sodipodi:rx="14.375" sodipodi:ry="14.375" d="m 69.375,125 a 14.375,14.375 0 1 1 -28.75,0 14.375,14.375 0 1 1 28.75,0 z" transform="matrix(1.1371116,0,0,1.1371116,87.707333,-60.592667)" inkscape:export-filename="/home/jimmac/ximian_art/icons/nautilus/suse93/stock_new-16.png" inkscape:export-xdpi="33.852203" inkscape:export-ydpi="33.852203"/>
    </g>
  </g>
</svg>
