<svg xmlns="http://www.w3.org/2000/svg" width="8" height="13" viewBox="0 0 8 13"><g><g><path fill="#fff" d="M1.091 12.494c.286 0 .572-.104.79-.315L8 6.277 1.882.375A1.149 1.149 0 0 0 .307.37a1.035 1.035 0 0 0-.005 1.507l4.563 4.4-4.563 4.401a1.034 1.034 0 0 0 .005 1.507c.217.206.5.31.784.31z"/><path fill="#a4c58c" d="M1.091 12.494c.286 0 .572-.104.79-.315L8 6.277 1.882.375A1.149 1.149 0 0 0 .307.37a1.035 1.035 0 0 0-.005 1.507l4.563 4.4-4.563 4.401a1.034 1.034 0 0 0 .005 1.507c.217.206.5.31.784.31z"/></g></g></svg>