<svg xmlns="http://www.w3.org/2000/svg" width="82" height="70" viewBox="0 0 82 70"><g><g><path fill="#737373" d="M40.575-.004c1.347-.029 1.976.592 2.843 1.045 1.459.763 2.938 1.441 4.358 2.184 3.896 2.038 7.85 3.762 11.75 5.793 1.483.773 3.023 1.486 4.547 2.28.455.236 1.031.699 1.516.855h15.35c.23.27.55.353.758.664.476.606.284 2.183.284 3.229v50.051c0 1.44.2 2.93-.663 3.514-.786.62-3.252.285-4.548.285H4.949c-1.564 0-4.049.338-4.643-.665-.515-.868-.19-3.132-.19-4.368V53.846 13.198c.352-.363.682-.694 1.043-1.045h15.35c.356-.116.8-.49 1.136-.666 1.085-.566 2.177-1.069 3.222-1.614 3.214-1.678 6.49-3.187 9.664-4.843 2.337-1.22 4.715-2.316 7.012-3.514.944-.493 2.29-.801 3.032-1.52zm.284 3.229c-.69.803-2.852 1.456-3.885 1.994-3.054 1.593-6.232 3.153-9.285 4.749-.723.378-3.997 1.717-4.264 2.185h35.247v-.19c-1.152-.154-3.406-1.637-4.453-2.185-3.145-1.645-6.328-3.013-9.475-4.654-1.021-.532-2.698-1.744-3.885-1.9zM3.15 15.19v51.666h75.8V15.191h-75.8zm54.955 9.118c5.855-.07 8.748 2.353 10.707 6.173.791 1.543 1.5 4.396.852 6.744-.35 1.273-.85 2.592-1.516 3.608-.326.5-1.095.984-1.326 1.52v17.38c-.351.362-.681.693-1.042 1.044-.535-.001-.974.013-1.327-.19l-.947-1.044-2.843-2.754c-.458-.459-.82-1.226-1.61-1.33L54.03 60.59c-.353.201-.792.19-1.327.19-.152-.182-.165-.052-.379-.19-.287-.186-.425-.611-.663-.855v-17.38c-2.082-1.47-3.953-6.78-2.653-10.447.834-2.356 2.217-4.367 4.074-5.699.875-.627 2.056-1.14 3.127-1.52.577-.204 1.417-.064 1.895-.38zm-44.817 3.04h28.235c.225.244.69.373.853.664.437.777.074 1.735-.473 2.089-.785.627-5.154.285-6.633.285H17.835c-2.623 0-5.598.815-5.59-1.994.167-.14.145-.31.284-.475.202-.24.557-.328.758-.57zm45.006 0l-2.084.569c-1.852.913-3.41 2.463-4.17 4.464-1.303 3.438.451 6.355 2.085 8.072l.474.666c.421.254 1.316.535 1.99.854.753.357 2.287.893 3.6.57 2.825-.694 4.677-1.876 5.875-4.179 2.585-4.97-1.137-9.64-4.927-10.827-.814-.255-1.817-.2-2.843-.19zm-45.006 6.077h19.14c1.087.363 1.387 2.08.379 2.755-.69.554-3.755.284-5.022.284h-11.18c-2.348 0-4.372.465-4.36-1.994.352-.362.682-.693 1.043-1.045zm0 6.079h19.14c.151.181.164.051.379.19.287.185.425.61.663.854.031.883-.152 1.38-.663 1.71-.69.554-3.755.285-5.022.285h-11.18c-2.348 0-4.372.464-4.36-1.995.239-.244.377-.668.664-.855.214-.138.227-.008.379-.19zm41.406 5.128V55.46h.19c.654-1.012 1.807-1.813 2.652-2.659.361-.362.725-.948 1.232-1.14h.948c.895.88 1.861 1.676 2.747 2.564.402.403.747 1.027 1.327 1.235V44.633c-1.586.249-3.39 1.483-5.685.95-1.068-.248-2.492-.847-3.411-.95zm-37.71 9.498c-.703-.014-1.38-.501-1.706-.38-.236.275-.344.768-.664.95-1.16.657-1.847-.291-2.368-.855-.093-2.853 1.07-5.004 2.274-6.649.93-1.27 2.365-.425 2.842.665.655-.208 1.076-.268 1.8-.094.185.277.556.523.664.854v4.559h.19v-.19c.49-.678.332-1.528 1.041-1.995.28-.232.61-.287 1.137-.285.481.432.833.498 1.137 1.14l1.422-.95c.446-.195.962-.213 1.42-.38.232-.624.494-1.112 1.327-1.14.164-.1.565-.05.759.096.492.155.833.59.852 1.234.472 1.007-1.192 2.836-1.99 3.04-.528.134-.857-.25-1.326 0-.657.348-1.192 1.159-1.895 1.52-.523.267-1.296.159-1.8.474-.838.901-.94 2.018-2.748 1.995-.14-.166-.309-.147-.474-.285-.89-.745-1.703-1.902-1.895-3.324z"/><path fill="#a4c58c" d="M40.575-.004c1.347-.029 1.976.592 2.843 1.045 1.459.763 2.938 1.441 4.358 2.184 3.896 2.038 7.85 3.762 11.75 5.793 1.483.773 3.023 1.486 4.547 2.28.455.236 1.031.699 1.516.855h15.35c.23.27.55.353.758.664.476.606.284 2.183.284 3.229v50.051c0 1.44.2 2.93-.663 3.514-.786.62-3.252.285-4.548.285H4.949c-1.564 0-4.049.338-4.643-.665-.515-.868-.19-3.132-.19-4.368V53.846 13.198c.352-.363.682-.694 1.043-1.045h15.35c.356-.116.8-.49 1.136-.666 1.085-.566 2.177-1.069 3.222-1.614 3.214-1.678 6.49-3.187 9.664-4.843 2.337-1.22 4.715-2.316 7.012-3.514.944-.493 2.29-.801 3.032-1.52zm.284 3.229c-.69.803-2.852 1.456-3.885 1.994-3.054 1.593-6.232 3.153-9.285 4.749-.723.378-3.997 1.717-4.264 2.185h35.247v-.19c-1.152-.154-3.406-1.637-4.453-2.185-3.145-1.645-6.328-3.013-9.475-4.654-1.021-.532-2.698-1.744-3.885-1.9zM3.15 15.19v51.666h75.8V15.191h-75.8zm54.955 9.118c5.855-.07 8.748 2.353 10.707 6.173.791 1.543 1.5 4.396.852 6.744-.35 1.273-.85 2.592-1.516 3.608-.326.5-1.095.984-1.326 1.52v17.38c-.351.362-.681.693-1.042 1.044-.535-.001-.974.013-1.327-.19l-.947-1.044-2.843-2.754c-.458-.459-.82-1.226-1.61-1.33L54.03 60.59c-.353.201-.792.19-1.327.19-.152-.182-.165-.052-.379-.19-.287-.186-.425-.611-.663-.855v-17.38c-2.082-1.47-3.953-6.78-2.653-10.447.834-2.356 2.217-4.367 4.074-5.699.875-.627 2.056-1.14 3.127-1.52.577-.204 1.417-.064 1.895-.38zm-44.817 3.04h28.235c.225.244.69.373.853.664.437.777.074 1.735-.473 2.089-.785.627-5.154.285-6.633.285H17.835c-2.623 0-5.598.815-5.59-1.994.167-.14.145-.31.284-.475.202-.24.557-.328.758-.57zm45.006 0l-2.084.569c-1.852.913-3.41 2.463-4.17 4.464-1.303 3.438.451 6.355 2.085 8.072l.474.666c.421.254 1.316.535 1.99.854.753.357 2.287.893 3.6.57 2.825-.694 4.677-1.876 5.875-4.179 2.585-4.97-1.137-9.64-4.927-10.827-.814-.255-1.817-.2-2.843-.19zm-45.006 6.077h19.14c1.087.363 1.387 2.08.379 2.755-.69.554-3.755.284-5.022.284h-11.18c-2.348 0-4.372.465-4.36-1.994.352-.362.682-.693 1.043-1.045zm0 6.079h19.14c.151.181.164.051.379.19.287.185.425.61.663.854.031.883-.152 1.38-.663 1.71-.69.554-3.755.285-5.022.285h-11.18c-2.348 0-4.372.464-4.36-1.995.239-.244.377-.668.664-.855.214-.138.227-.008.379-.19zm41.406 5.128V55.46h.19c.654-1.012 1.807-1.813 2.652-2.659.361-.362.725-.948 1.232-1.14h.948c.895.88 1.861 1.676 2.747 2.564.402.403.747 1.027 1.327 1.235V44.633c-1.586.249-3.39 1.483-5.685.95-1.068-.248-2.492-.847-3.411-.95zm-37.71 9.498c-.703-.014-1.38-.501-1.706-.38-.236.275-.344.768-.664.95-1.16.657-1.847-.291-2.368-.855-.093-2.853 1.07-5.004 2.274-6.649.93-1.27 2.365-.425 2.842.665.655-.208 1.076-.268 1.8-.094.185.277.556.523.664.854v4.559h.19v-.19c.49-.678.332-1.528 1.041-1.995.28-.232.61-.287 1.137-.285.481.432.833.498 1.137 1.14l1.422-.95c.446-.195.962-.213 1.42-.38.232-.624.494-1.112 1.327-1.14.164-.1.565-.05.759.096.492.155.833.59.852 1.234.472 1.007-1.192 2.836-1.99 3.04-.528.134-.857-.25-1.326 0-.657.348-1.192 1.159-1.895 1.52-.523.267-1.296.159-1.8.474-.838.901-.94 2.018-2.748 1.995-.14-.166-.309-.147-.474-.285-.89-.745-1.703-1.902-1.895-3.324z"/></g></g></svg>