<svg xmlns="http://www.w3.org/2000/svg" width="73" height="53" viewBox="0 0 73 53"><g><g><path fill="#737373" d="M18.121.547c3.576-.057 7.287.033 10.218.77 1.457.365 2.737.386 4.06.84.965.332 1.997.774 2.869 1.26.417.232.736.724 1.26.84.244-.346.62-.466.98-.7 1.263-.825 2.864-1.334 4.478-1.82.614-.185 1.11-.115 1.75-.28 1.29-.335 2.95-.38 4.34-.7h1.119c.878-.19 2.062.079 3.08-.14.64-.138 1.878-.143 2.519 0 1.013.226 2.202-.057 3.079.14h1.12c.72.166 1.58.09 2.38.28 1.841.437 3.78.662 5.388 1.26 1.92.713 3.855 1.443 4.9 3.01.608.914.49 2.525.489 4.06v29.68c0 4.082.098 8.354-.07 12.319-.399.319-.596.762-1.19.91-.444.111-.956-.193-1.26-.28-.839-.237-1.775-.234-2.589-.42-.908-.207-1.887-.095-2.73-.28h-1.05c-.61-.132-1.432.02-2.169-.14-1.34-.29-3.125-.209-4.619-.21-1.568 0-3.447-.312-4.899 0-.612.132-1.435-.042-1.96.07h-1.819c-.811.175-1.948.11-2.73.28l-2.449.14c-1.423.32-2.998.226-4.479.56-.536.122-1.437.44-2.1.28-1.794-.43-3.962-.423-5.808-.84-.99-.223-2.085-.079-3.01-.28l-3.009-.14h-1.12c-.927-.198-2.698-.229-3.639-.07-.503.086-1.366-.112-1.89 0l-4.829.07c-.714.154-1.62-.04-2.45.14-1.893.41-4.1.268-5.878.7-1.264.308-2.825.73-3.5-.28-.44-.658-.209-2.407-.209-3.43v-8.75-33.04c.236-.209.25-.632.42-.91.24-.388.688-.917 1.05-1.19 2.063-1.552 4.621-2.19 7.558-2.94 1.921-.49 4.08-.264 6.089-.7.663-.143 1.797.254 2.31-.07zm-1.19 3.01c-.28.164-.807-.015-1.19.07-.848.187-1.756.001-2.659.21-3.459.798-7.226.872-9.378 2.94v38.99c0 .593-.13 2.859 0 3.08.075.052.066.042.21.07.505-.33 1.353-.13 2.03-.28 1.106-.246 2.51-.175 3.639-.42h1.33c.782-.168 1.816.055 2.73-.14 1.422-.304 3.274-.14 4.898-.14 5.942-.001 11.183.484 16.307 1.12.298-.91.07-2.89.07-3.99v-8.82-29.33c-.056-.083-.054-.118-.07-.28C30.512 3.87 24.05 3.61 16.932 3.556zm20.996 45.5c1.288-.082 2.827-.28 4.06-.56.967-.22 2.041-.083 2.939-.28h1.19c1.053-.228 2.478-.045 3.569-.28h5.529c4.937-.001 9.601.435 13.927.98V6.706c-.26-.167-.435-.482-.7-.63-.729-.407-1.468-.528-2.31-.84-3.349-1.241-7.648-1.68-12.177-1.68-3.186 0-6.36.022-8.958.7-.477.124-.787.007-1.26.14-2.135.6-4.415 1.041-5.809 2.38v42.28zm-27.154-32.9H23.09c2.292 0 4.351-.542 4.34 1.89-.342.38-.437.864-.98 1.05-.869.295-2.793.07-3.85.07h-8.538c-2.35 0-4.43.546-4.409-1.96.235-.248.34-.65.63-.84.167-.11.353-.087.49-.21zm35.832 0h12.318c1.385 0 3.685-.338 4.059.7.81.822-.116 2.24-1.12 2.24-.43.27-2.924.07-3.64.07h-9.377c-1.446 0-3.08.18-3.22-1.12-.666-.832.62-1.578.98-1.89zm-35.832 8.96H23.09c2.296 0 4.351-.547 4.34 1.89-.345.384-.437.857-.98 1.05-.846.298-2.809.07-3.85.07h-8.538c-2.347 0-4.43.54-4.409-1.96.215-.227.303-.586.56-.77.175-.126.407-.14.56-.28zm35.902 0h12.318c2.13 0 4.257-.427 4.269 1.75-.344.451-.413.965-.98 1.19-.737.292-2.698.07-3.64.07h-8.537c-1.681 0-4.314.414-4.48-1.12-.242-.3-.06-.673 0-1.05.166-.128.199-.363.35-.49.196-.164.5-.191.7-.35zm-35.902 8.96H26.31c.59.183.745.658 1.12 1.05.008 1.02-.26 1.635-.98 1.89-.89.313-2.969.07-4.06.07h-8.118c-.999 0-2.824.212-3.64-.07-.498-.173-.653-.637-.979-.98-.03-1.514.381-1.307 1.12-1.96zm35.902 0h12.318c2.134 0 4.257-.431 4.269 1.75-.338.443-.407.986-.98 1.19-.828.294-2.758.07-3.78.07h-8.397c-1.681 0-4.314.413-4.48-1.12-.242-.3-.06-.672 0-1.05.154-.118.15-.288.28-.42.198-.2.55-.242.77-.42z"/><path fill="#a4c58c" d="M18.121.547c3.576-.057 7.287.033 10.218.77 1.457.365 2.737.386 4.06.84.965.332 1.997.774 2.869 1.26.417.232.736.724 1.26.84.244-.346.62-.466.98-.7 1.263-.825 2.864-1.334 4.478-1.82.614-.185 1.11-.115 1.75-.28 1.29-.335 2.95-.38 4.34-.7h1.119c.878-.19 2.062.079 3.08-.14.64-.138 1.878-.143 2.519 0 1.013.226 2.202-.057 3.079.14h1.12c.72.166 1.58.09 2.38.28 1.841.437 3.78.662 5.388 1.26 1.92.713 3.855 1.443 4.9 3.01.608.914.49 2.525.489 4.06v29.68c0 4.082.098 8.354-.07 12.319-.399.319-.596.762-1.19.91-.444.111-.956-.193-1.26-.28-.839-.237-1.775-.234-2.589-.42-.908-.207-1.887-.095-2.73-.28h-1.05c-.61-.132-1.432.02-2.169-.14-1.34-.29-3.125-.209-4.619-.21-1.568 0-3.447-.312-4.899 0-.612.132-1.435-.042-1.96.07h-1.819c-.811.175-1.948.11-2.73.28l-2.449.14c-1.423.32-2.998.226-4.479.56-.536.122-1.437.44-2.1.28-1.794-.43-3.962-.423-5.808-.84-.99-.223-2.085-.079-3.01-.28l-3.009-.14h-1.12c-.927-.198-2.698-.229-3.639-.07-.503.086-1.366-.112-1.89 0l-4.829.07c-.714.154-1.62-.04-2.45.14-1.893.41-4.1.268-5.878.7-1.264.308-2.825.73-3.5-.28-.44-.658-.209-2.407-.209-3.43v-8.75-33.04c.236-.209.25-.632.42-.91.24-.388.688-.917 1.05-1.19 2.063-1.552 4.621-2.19 7.558-2.94 1.921-.49 4.08-.264 6.089-.7.663-.143 1.797.254 2.31-.07zm-1.19 3.01c-.28.164-.807-.015-1.19.07-.848.187-1.756.001-2.659.21-3.459.798-7.226.872-9.378 2.94v38.99c0 .593-.13 2.859 0 3.08.075.052.066.042.21.07.505-.33 1.353-.13 2.03-.28 1.106-.246 2.51-.175 3.639-.42h1.33c.782-.168 1.816.055 2.73-.14 1.422-.304 3.274-.14 4.898-.14 5.942-.001 11.183.484 16.307 1.12.298-.91.07-2.89.07-3.99v-8.82-29.33c-.056-.083-.054-.118-.07-.28C30.512 3.87 24.05 3.61 16.932 3.556zm20.996 45.5c1.288-.082 2.827-.28 4.06-.56.967-.22 2.041-.083 2.939-.28h1.19c1.053-.228 2.478-.045 3.569-.28h5.529c4.937-.001 9.601.435 13.927.98V6.706c-.26-.167-.435-.482-.7-.63-.729-.407-1.468-.528-2.31-.84-3.349-1.241-7.648-1.68-12.177-1.68-3.186 0-6.36.022-8.958.7-.477.124-.787.007-1.26.14-2.135.6-4.415 1.041-5.809 2.38v42.28zm-27.154-32.9H23.09c2.292 0 4.351-.542 4.34 1.89-.342.38-.437.864-.98 1.05-.869.295-2.793.07-3.85.07h-8.538c-2.35 0-4.43.546-4.409-1.96.235-.248.34-.65.63-.84.167-.11.353-.087.49-.21zm35.832 0h12.318c1.385 0 3.685-.338 4.059.7.81.822-.116 2.24-1.12 2.24-.43.27-2.924.07-3.64.07h-9.377c-1.446 0-3.08.18-3.22-1.12-.666-.832.62-1.578.98-1.89zm-35.832 8.96H23.09c2.296 0 4.351-.547 4.34 1.89-.345.384-.437.857-.98 1.05-.846.298-2.809.07-3.85.07h-8.538c-2.347 0-4.43.54-4.409-1.96.215-.227.303-.586.56-.77.175-.126.407-.14.56-.28zm35.902 0h12.318c2.13 0 4.257-.427 4.269 1.75-.344.451-.413.965-.98 1.19-.737.292-2.698.07-3.64.07h-8.537c-1.681 0-4.314.414-4.48-1.12-.242-.3-.06-.673 0-1.05.166-.128.199-.363.35-.49.196-.164.5-.191.7-.35zm-35.902 8.96H26.31c.59.183.745.658 1.12 1.05.008 1.02-.26 1.635-.98 1.89-.89.313-2.969.07-4.06.07h-8.118c-.999 0-2.824.212-3.64-.07-.498-.173-.653-.637-.979-.98-.03-1.514.381-1.307 1.12-1.96zm35.902 0h12.318c2.134 0 4.257-.431 4.269 1.75-.338.443-.407.986-.98 1.19-.828.294-2.758.07-3.78.07h-8.397c-1.681 0-4.314.413-4.48-1.12-.242-.3-.06-.672 0-1.05.154-.118.15-.288.28-.42.198-.2.55-.242.77-.42z"/></g></g></svg>