<svg xmlns="http://www.w3.org/2000/svg" width="16" height="15" viewBox="0 0 16 15"><g><g><path fill="#737373" d="M2.826.22C3.87.21 4.18.734 4.688 1.242L6.276 2.83c.297.297.469.435.602.913.028.098.073.325.037.475-.122.497-.407.735-.712 1.04l-.53.548c-.118.119-.476.386-.51.547.08.085.116.211.182.311.133.2.293.389.438.584.16.214.388.39.548.602.407.54.992 1.09 1.533 1.497.078.059.14.16.219.22.22.163.426.32.657.473.118.079.228.2.402.22.158-.241.435-.436.638-.639.423-.422.767-.948 1.442-1.114.257-.063.55.04.694.11.612.295 1.005.84 1.46 1.295l1.15 1.151c.177.177.424.341.53.584.064.148.107.334.146.492.045.187.011.518-.037.657-.155.452-.686.833-1.004 1.15-.274.275-.508.586-.876.767-.29.144-.65.208-.986.292-.517.132-1.346.087-1.825-.036l-.31-.037c-.331-.095-.691-.156-1.004-.292a15.854 15.854 0 0 1-1.387-.657c-.25-.138-.498-.335-.749-.474-2.15-1.198-4.058-3.194-5.257-5.349-.128-.23-.299-.466-.438-.693-.184-.302-.295-.629-.438-.967C.373 5.272.058 3.368.745 2.045c.16-.307.475-.53.712-.766l.785-.803a1.79 1.79 0 0 1 .31-.182c.091-.04.206-.016.274-.074zm.11.804c-.064.048-.156.062-.22.11l-.84.857c-.14.14-.352.283-.437.474-.71 1.599.017 3.675.694 4.783.52.852 1.058 1.666 1.642 2.446.093.123.236.223.329.346.164.217.349.439.566.602.067.051.1.15.164.2.269.216.494.49.767.695.319.24.624.502.949.73.615.434 1.275.8 1.953 1.169.868.471 2.384 1.105 3.778.73.218-.059.395-.062.584-.146.25-.112.404-.313.584-.493l.877-.858c.03-.044.037-.09.073-.128.004-.691-.32-.775-.658-1.114-.115-.115-.213-.25-.328-.364-.36-.36-.736-.7-1.095-1.06-.17-.168-.527-.664-.785-.693-.23-.14-.582.272-.676.366l-1.095 1.076c-.105.106-.307.388-.456.42-.103-.075-.28-.055-.402-.109a4.353 4.353 0 0 1-.693-.402c-1.048-.735-2.14-1.753-2.903-2.775-.393-.528-.948-1.008-1.058-1.806.24-.158.47-.47.675-.676.35-.35.714-.683 1.04-1.058h.037c.107-.126.123-.314.11-.512-.054-.042-.068-.108-.11-.164-.12-.163-.345-.344-.493-.492L4.05 1.753c-.303-.303-.51-.728-1.113-.73z"/><path fill="#7eb252" d="M2.826.22C3.87.21 4.18.734 4.688 1.242L6.276 2.83c.297.297.469.435.602.913.028.098.073.325.037.475-.122.497-.407.735-.712 1.04l-.53.548c-.118.119-.476.386-.51.547.08.085.116.211.182.311.133.2.293.389.438.584.16.214.388.39.548.602.407.54.992 1.09 1.533 1.497.078.059.14.16.219.22.22.163.426.32.657.473.118.079.228.2.402.22.158-.241.435-.436.638-.639.423-.422.767-.948 1.442-1.114.257-.063.55.04.694.11.612.295 1.005.84 1.46 1.295l1.15 1.151c.177.177.424.341.53.584.064.148.107.334.146.492.045.187.011.518-.037.657-.155.452-.686.833-1.004 1.15-.274.275-.508.586-.876.767-.29.144-.65.208-.986.292-.517.132-1.346.087-1.825-.036l-.31-.037c-.331-.095-.691-.156-1.004-.292a15.854 15.854 0 0 1-1.387-.657c-.25-.138-.498-.335-.749-.474-2.15-1.198-4.058-3.194-5.257-5.349-.128-.23-.299-.466-.438-.693-.184-.302-.295-.629-.438-.967C.373 5.272.058 3.368.745 2.045c.16-.307.475-.53.712-.766l.785-.803a1.79 1.79 0 0 1 .31-.182c.091-.04.206-.016.274-.074zm.11.804c-.064.048-.156.062-.22.11l-.84.857c-.14.14-.352.283-.437.474-.71 1.599.017 3.675.694 4.783.52.852 1.058 1.666 1.642 2.446.093.123.236.223.329.346.164.217.349.439.566.602.067.051.1.15.164.2.269.216.494.49.767.695.319.24.624.502.949.73.615.434 1.275.8 1.953 1.169.868.471 2.384 1.105 3.778.73.218-.059.395-.062.584-.146.25-.112.404-.313.584-.493l.877-.858c.03-.044.037-.09.073-.128.004-.691-.32-.775-.658-1.114-.115-.115-.213-.25-.328-.364-.36-.36-.736-.7-1.095-1.06-.17-.168-.527-.664-.785-.693-.23-.14-.582.272-.676.366l-1.095 1.076c-.105.106-.307.388-.456.42-.103-.075-.28-.055-.402-.109a4.353 4.353 0 0 1-.693-.402c-1.048-.735-2.14-1.753-2.903-2.775-.393-.528-.948-1.008-1.058-1.806.24-.158.47-.47.675-.676.35-.35.714-.683 1.04-1.058h.037c.107-.126.123-.314.11-.512-.054-.042-.068-.108-.11-.164-.12-.163-.345-.344-.493-.492L4.05 1.753c-.303-.303-.51-.728-1.113-.73z"/></g></g></svg>