<svg xmlns="http://www.w3.org/2000/svg" width="63" height="63" viewBox="0 0 63 63"><g><g><path fill="#737373" d="M41.141.196h.7c.112.134.121.038.28.14.211.137.313.45.489.63.073 4.156-1.08 6.858-2.798 9.175-.358.483-.713 1.042-1.189 1.4-.636.48-1.27.984-1.958 1.401-.3.181-.714.212-.91.49-.176.254-.205.564-.349.84-.518.999-.942 2.017-1.469 3.082-1.106 2.24-2.308 4.721-3.077 7.213H31c.508-.755 1.373-1.413 2.098-1.96.51-.385.953-.949 1.469-1.33 1.319-.98 2.644-1.84 4.056-2.732.93-.587 1.766-1.525 3.218-1.541.348.424.714.492.769 1.26-.426.584-.508 1.362-.84 2.031-.906 1.833-1.625 3.884-2.447 5.813h.21c.272-.554 1.504-1.292 2.028-1.68 1.552-1.152 2.925-2.63 4.476-3.782.517-.385 2.033-1.329 2.238-1.891.117-.312-.219-1.332-.07-1.961.275-1.164.565-2.198 1.119-3.082.976-1.558 2.608-2.695 4.546-3.291 2.74-.843 6.035 1.007 7.064 2.38.577.772 1.202 1.677 1.538 2.662 1.577 4.62-2.248 8.33-5.455 9.245-1.261.36-2.562-.099-3.707-.14-.488.619-1.78 1.147-2.098 1.82 1.163 0 2.477.42 3.497.7 2.74.752 6.459 1.332 7.763 3.432.422.678.28 2.067.28 3.152 0 3.591.317 5.103-2.238 6.303.063 3.088-.889 5.852-1.818 8.054-2.81 6.653-7.9 12.95-15.317 14.917H19.46c-.916-.273-1.946-.561-2.797-.98-6.025-2.97-10.49-8.245-12.939-14.778-.589-1.57-.849-3.29-1.259-5.042l-.14-2.171-.56-.28c-.497-.35-1.077-.878-1.398-1.4-.567-.925-.28-3.926-.28-5.394v-1.82c.303-.991 1.152-1.523 1.959-2.031 2.476-1.562 5.773-2.001 9.092-2.802 1.192-.287 2.405-.215 3.566-.49.443-.105 1.123.063 1.33-.28-.657-.728-.883-1.95-1.26-2.942-.838-2.207-1.277-4.662-1.958-7.143l-.14-1.33c-.35-1.456-.657-2.687 1.33-2.662.378.32 1.008.24 1.538.42 1.281.434 2.616.931 3.776 1.541 4.412 2.32 7.421 5.824 8.533 11.486h.49c1.906-3.4.3-8.424-.91-11.206-4.768-.141-8.084-2.611-10.07-5.602-.632-.95-1.61-2.15-1.61-3.642.198-.222.233-.46.49-.63.338-.274 1.058-.224 1.679-.21 1.268.026 2.602.268 3.636.56 3.424.965 6.02 2.292 7.204 5.462.222.594.276 1.337.42 1.961v.77c.376.946 1.019 1.98 1.398 3.012.179.484.377 2.247.7 2.451.056-.37.282-.637.42-.91.295-.59.395-1.168.699-1.751.378-.725.96-1.57 1.259-2.311v-1.61c.333-1.46.356-2.923.839-4.203.848-2.245 2.301-4.249 4.126-5.532a9.179 9.179 0 0 1 1.47-.84c.367-.162.775-.175 1.048-.421zm-1.049 2.941c-.403.599-1.24.888-1.678 1.471-1.152 1.533-2.35 3.416-2.378 6.023h.14c.44-.576 1.237-.883 1.678-1.47 1.134-1.511 2.343-3.48 2.378-6.024h-.14zm-13.288 8.194c-.11-3.5-4.6-5.077-8.043-5.462v.07h-.07v.14c.223.18.251.463.42.7.336.475.76.924 1.119 1.4 1.043 1.384 4.224 3.042 6.574 3.152zm26.436 1.611c.118.724.646 1.353.98 1.89 1.053 1.699 2.058 2.897 3.706 3.993.353.234 1.776 1.268 2.098.98.653-.804.576-2.84.21-3.852-.697-1.928-1.614-2.747-3.706-3.291-.38-.099-1.242-.283-1.819-.14-.476.117-.98.34-1.469.42zm-38.326 1.12c.023 1.358.619 3.38.98 4.553 1.145 3.727 2.145 7.23 4.755 9.454.437.372.824.973 1.329 1.26.306.175.666.119.98.28.38.198.653.571 1.118.701v-.14c-.48-.61-.67-1.475-1.049-2.17-.862-1.582-1.896-3.169-2.937-4.623-.624-.87-2.096-2.024-2.098-3.362.434-.468.504-.787 1.468-.77 1.855 1.866 3.404 4.157 4.826 6.443.31.499 1.182 2.6 1.539 2.801v-2.1c-.191-.314-.035-.77-.14-1.191-.283-1.136-.495-2.378-.98-3.362-1.485-3.02-3.678-4.962-6.643-6.513-.87-.455-1.973-1.196-3.148-1.26zm43.432 7.564c-.72-.132-1.304-.689-1.818-1.05-1.372-.964-2.598-2.076-3.567-3.432-.333-.466-1.23-2.476-1.679-2.591-.207.736-.63 1.395-.84 2.31-.13.571.04 1.37.14 1.752.555 2.08 1.356 3.021 3.288 3.712.51.181 1.491.472 2.308.28.818-.193 1.475-.572 2.168-.77v-.21zm-19.513-.63c-.692.704-1.708 1.17-2.518 1.75-1.997 1.435-4.036 3.505-5.455 5.533-.81 1.157-1.647 2.4-1.678 4.343h.07v.07c5.459-1.045 6.284-3.474 8.182-7.984.496-1.178 1.206-2.455 1.539-3.712h-.14zm-8.532 15.057c1.233.015 2.814.17 3.916-.07.49-.106 1.154.138 1.539-.07.197-.106.377-.424.56-.56.847-.63 1.617-1.345 2.447-1.961 2.436-1.81 4.694-3.795 7.134-5.603.288-.213 1.068-.778 1.259-1.05.154-.22.194-.495.42-.63.245-.15.543-.124.769-.28.622-.434 1.14-1.087 1.748-1.542.35-.261.957-.549 1.12-.98-.705-.244-1.708-1.567-2.029-2.241-1.068.625-1.89 1.655-2.867 2.38-2.943 2.187-5.6 4.671-8.533 6.864-1.19.89-2.16 2.147-3.427 2.942-1.283.804-2.652 1.025-4.196 1.61.119.332.143.716.14 1.19zm-13.778-8.264c-.334.197-.81.034-1.259.14-.96.226-2.044.167-3.077.42-2.394.587-4.891.905-6.994 1.681-.846.312-2.522.61-2.798 1.4-.291.538 2.015 1.774 2.868 1.542 1.686-.46 3.675-.69 5.525-1.12h.7c1.244-.289 2.805-.272 4.056-.561h.769c.829-.191 1.923-.23 2.728-.42.481-.114.852.087 1.119-.21-.916-.545-2.18-1.949-2.728-2.872h-.91zm32.311.49c-.408.409-.93.703-1.398 1.05-.437.325-.823.797-1.26 1.121-.292.218-.677.358-.839.7h.77c.59.362 2.71.214 3.567.42 1.577.382 3.308.391 4.895.841.852.241 1.892.584 2.728.77.779.175 3.147-1.088 3.217-1.75l-.49-.56c-1.03-.631-2.217-.708-3.496-1.121-2.3-.742-5.07-1.14-7.694-1.47zm-6.014 4.833c-.399.377-.884.65-1.33.98-.316.235-.592.606-.908.84-.335.249-.865.453-1.05.841h1.47c.583-.35 2.837-.087 3.706-.28.836-.186 1.81-.07 2.728-.28 1.597-.367 3.377-.45 4.965-.77v-.07c-.07-.024-.14-.048-.21-.07-.556-.339-1.637-.175-2.378-.35-1.598-.381-3.57-.332-5.245-.701-.623-.138-1.238.034-1.748-.14zm-27.066.42c-.33.205-.8.036-1.26.14-1.312.3-3.113.543-4.545.56v.14l4.685.7c.39-.58 1.417-1.004 1.679-1.54h-.56zm6.224.42c-.235.15-.502.052-.84.14-.776.203-1.65.385-2.377.7-1.655.719-2.992 1.91-3.707 3.572-.218.508-.14.947-.28 1.54-.124.535-.314 1.716-.14 2.452.14.59.26 1.42.42 1.96.307 1.036.474 1.933.84 2.802.146.348.094.743.419.91.329-1.042 1.232-1.959 1.818-2.8 1.717-2.465 3.448-4.913 5.875-6.654a9.786 9.786 0 0 1 2.098-1.12c.498-.187.927-.216 1.33-.49l.629-.77c.039-.817-.196-1.99-.91-2.032-.586.462-1.999.808-2.727 1.19-1.666.875-3.416 2.149-4.476 3.643-.717 1.01-.603 2.648-2.308 2.66-.43-.489-.783-.464-.77-1.47.352-.4.419-1.079.7-1.54.35-.577.783-1.14 1.189-1.681.411-.55 1.6-1.624 2.168-2.031.415-.298 1.167-.518 1.399-.98h-.35zm-19.653.42c-.007.992-.1 2.21.07 3.082 1.464.827 3.004 1.35 4.756 1.96.85.296 1.786.33 2.588.56.326.095 2.573.363 2.588.35.254-.304.082-.716.21-1.19.175-.653.473-1.319.629-1.96h-.07v-.07c-1.015-.02-2.067-.263-2.938-.49-.396-.048-.792-.094-1.188-.14-1.458-.396-3.024-.607-4.407-1.121-.735-.273-1.48-.827-2.238-.98zm58.05 0c-.266.242-.554.243-.91.42-1.418.705-3.219 1.055-4.896 1.541-.426.124-.676.024-1.119.14-1.426.375-3.193.48-4.686.84-.676.048-1.352.094-2.028.14-1.038.243-2.44.179-3.497.42H41.91c-.613.137-1.529.067-2.168.211h-1.328c-.569.126-1.444-.075-2.099.07-1.891.419-5.03.138-7.203.14-.644.803-1.598.912-2.588 1.4-.527.262-1.012.652-1.469.981-.328.237-.83.435-.979.84h1.958c.47.294 1.488-.058 2.099.07.627.133 1.563.07 2.308.07h4.126c.611-.007 1.589-.012 2.168-.14 1.133-.25 2.42.084 3.427-.14.713-.157 1.507-.008 2.098-.14h1.19c1.051-.236 2.401-.183 3.426-.42 1.007-.233 1.955-.04 2.937-.28 1.787-.435 3.796-.618 5.456-1.12.355-.108.554-.032.909-.14 1.105-.34 2.263-.783 3.217-1.261.421-.211.882-.246 1.05-.7.224-.356.077-2.347.069-2.942h-.14zM4.702 40.956c-.247.769.213 2.26.42 2.94.299.985.354 1.824.7 2.732.528 1.39 1.283 2.706 1.958 3.922 2.573 4.638 6.443 8.484 11.96 10.155h23.358c6.08-1.856 10.07-6.254 12.73-11.556 1.153-2.3 2.14-4.9 2.377-8.124h-.07v-.07c-1.906.8-4.276 1.01-6.434 1.541-.86.212-1.576.075-2.448.28-1.785.42-3.948.28-5.805.7H42.33c-1.006.223-2.367.184-3.427.28h-1.818c-1.238.272-3.192.14-4.616.14-2.215-.022-4.43-.046-6.644-.07-.546-.12-1.396.07-2.029-.07-.537-.118-1.17-.138-1.818-.14-.394.69-1.02 1.253-1.469 1.892-.674.958-1.192 1.934-1.818 2.941-.237.381-.62.795-.84 1.19-.514.932-.617 2.117-2.097 2.102-1.395-1.414-2.112-4.11-2.798-6.233-.202-.627-.21-2.367-.49-2.802v-.07c-1.444-.004-3.302-.484-4.546-.84-1.143-.328-2.237-.386-3.217-.84zm45.39 4.061h.7c.112.134.121.038.28.14.211.137.313.451.489.63.025 1.403-.68 2.948-1.12 3.993-1.47 3.498-2.944 6.17-6.224 7.843-.87.444-2.835 1.197-4.406.84-1.539-.35-2.943-.627-4.196-1.26-.424-.214-.884-.695-1.329-.84H32.75c-1.999-.447-5.834-.42-5.805-2.731.434-.47.504-.787 1.468-.77.702.818 4.292 1.5 5.945 1.19.383-1.031 2.126-2.098 3.007-2.732 2.708-1.946 5.878-3.436 9.092-4.902.953-.435 1.956-.725 2.868-1.12.315-.137.549-.078.77-.28zm-1.469 2.942c-.605.516-1.64.612-2.377.98-2.02 1.011-4.107 1.935-5.945 3.082-.739.46-1.821.838-2.308 1.54h.35c.293-.22.712-.157 1.119-.28.857-.258 1.537-.626 2.587-.56.15.198.38.449.56.63.022.502-.028.69-.14 1.12-1.074.654-2.603 1-3.987 1.331v.14c.518.024 1.022.162 1.47.28.845.226 2.032-.086 2.587-.28 2.55-.889 3.743-2.428 4.896-4.691.362-.712.72-1.55 1.049-2.312.09-.21.277-.829.21-.91v-.07h-.07z"/><path fill="#a4c58c" d="M41.141.196h.7c.112.134.121.038.28.14.211.137.313.45.489.63.073 4.156-1.08 6.858-2.798 9.175-.358.483-.713 1.042-1.189 1.4-.636.48-1.27.984-1.958 1.401-.3.181-.714.212-.91.49-.176.254-.205.564-.349.84-.518.999-.942 2.017-1.469 3.082-1.106 2.24-2.308 4.721-3.077 7.213H31c.508-.755 1.373-1.413 2.098-1.96.51-.385.953-.949 1.469-1.33 1.319-.98 2.644-1.84 4.056-2.732.93-.587 1.766-1.525 3.218-1.541.348.424.714.492.769 1.26-.426.584-.508 1.362-.84 2.031-.906 1.833-1.625 3.884-2.447 5.813h.21c.272-.554 1.504-1.292 2.028-1.68 1.552-1.152 2.925-2.63 4.476-3.782.517-.385 2.033-1.329 2.238-1.891.117-.312-.219-1.332-.07-1.961.275-1.164.565-2.198 1.119-3.082.976-1.558 2.608-2.695 4.546-3.291 2.74-.843 6.035 1.007 7.064 2.38.577.772 1.202 1.677 1.538 2.662 1.577 4.62-2.248 8.33-5.455 9.245-1.261.36-2.562-.099-3.707-.14-.488.619-1.78 1.147-2.098 1.82 1.163 0 2.477.42 3.497.7 2.74.752 6.459 1.332 7.763 3.432.422.678.28 2.067.28 3.152 0 3.591.317 5.103-2.238 6.303.063 3.088-.889 5.852-1.818 8.054-2.81 6.653-7.9 12.95-15.317 14.917H19.46c-.916-.273-1.946-.561-2.797-.98-6.025-2.97-10.49-8.245-12.939-14.778-.589-1.57-.849-3.29-1.259-5.042l-.14-2.171-.56-.28c-.497-.35-1.077-.878-1.398-1.4-.567-.925-.28-3.926-.28-5.394v-1.82c.303-.991 1.152-1.523 1.959-2.031 2.476-1.562 5.773-2.001 9.092-2.802 1.192-.287 2.405-.215 3.566-.49.443-.105 1.123.063 1.33-.28-.657-.728-.883-1.95-1.26-2.942-.838-2.207-1.277-4.662-1.958-7.143l-.14-1.33c-.35-1.456-.657-2.687 1.33-2.662.378.32 1.008.24 1.538.42 1.281.434 2.616.931 3.776 1.541 4.412 2.32 7.421 5.824 8.533 11.486h.49c1.906-3.4.3-8.424-.91-11.206-4.768-.141-8.084-2.611-10.07-5.602-.632-.95-1.61-2.15-1.61-3.642.198-.222.233-.46.49-.63.338-.274 1.058-.224 1.679-.21 1.268.026 2.602.268 3.636.56 3.424.965 6.02 2.292 7.204 5.462.222.594.276 1.337.42 1.961v.77c.376.946 1.019 1.98 1.398 3.012.179.484.377 2.247.7 2.451.056-.37.282-.637.42-.91.295-.59.395-1.168.699-1.751.378-.725.96-1.57 1.259-2.311v-1.61c.333-1.46.356-2.923.839-4.203.848-2.245 2.301-4.249 4.126-5.532a9.179 9.179 0 0 1 1.47-.84c.367-.162.775-.175 1.048-.421zm-1.049 2.941c-.403.599-1.24.888-1.678 1.471-1.152 1.533-2.35 3.416-2.378 6.023h.14c.44-.576 1.237-.883 1.678-1.47 1.134-1.511 2.343-3.48 2.378-6.024h-.14zm-13.288 8.194c-.11-3.5-4.6-5.077-8.043-5.462v.07h-.07v.14c.223.18.251.463.42.7.336.475.76.924 1.119 1.4 1.043 1.384 4.224 3.042 6.574 3.152zm26.436 1.611c.118.724.646 1.353.98 1.89 1.053 1.699 2.058 2.897 3.706 3.993.353.234 1.776 1.268 2.098.98.653-.804.576-2.84.21-3.852-.697-1.928-1.614-2.747-3.706-3.291-.38-.099-1.242-.283-1.819-.14-.476.117-.98.34-1.469.42zm-38.326 1.12c.023 1.358.619 3.38.98 4.553 1.145 3.727 2.145 7.23 4.755 9.454.437.372.824.973 1.329 1.26.306.175.666.119.98.28.38.198.653.571 1.118.701v-.14c-.48-.61-.67-1.475-1.049-2.17-.862-1.582-1.896-3.169-2.937-4.623-.624-.87-2.096-2.024-2.098-3.362.434-.468.504-.787 1.468-.77 1.855 1.866 3.404 4.157 4.826 6.443.31.499 1.182 2.6 1.539 2.801v-2.1c-.191-.314-.035-.77-.14-1.191-.283-1.136-.495-2.378-.98-3.362-1.485-3.02-3.678-4.962-6.643-6.513-.87-.455-1.973-1.196-3.148-1.26zm43.432 7.564c-.72-.132-1.304-.689-1.818-1.05-1.372-.964-2.598-2.076-3.567-3.432-.333-.466-1.23-2.476-1.679-2.591-.207.736-.63 1.395-.84 2.31-.13.571.04 1.37.14 1.752.555 2.08 1.356 3.021 3.288 3.712.51.181 1.491.472 2.308.28.818-.193 1.475-.572 2.168-.77v-.21zm-19.513-.63c-.692.704-1.708 1.17-2.518 1.75-1.997 1.435-4.036 3.505-5.455 5.533-.81 1.157-1.647 2.4-1.678 4.343h.07v.07c5.459-1.045 6.284-3.474 8.182-7.984.496-1.178 1.206-2.455 1.539-3.712h-.14zm-8.532 15.057c1.233.015 2.814.17 3.916-.07.49-.106 1.154.138 1.539-.07.197-.106.377-.424.56-.56.847-.63 1.617-1.345 2.447-1.961 2.436-1.81 4.694-3.795 7.134-5.603.288-.213 1.068-.778 1.259-1.05.154-.22.194-.495.42-.63.245-.15.543-.124.769-.28.622-.434 1.14-1.087 1.748-1.542.35-.261.957-.549 1.12-.98-.705-.244-1.708-1.567-2.029-2.241-1.068.625-1.89 1.655-2.867 2.38-2.943 2.187-5.6 4.671-8.533 6.864-1.19.89-2.16 2.147-3.427 2.942-1.283.804-2.652 1.025-4.196 1.61.119.332.143.716.14 1.19zm-13.778-8.264c-.334.197-.81.034-1.259.14-.96.226-2.044.167-3.077.42-2.394.587-4.891.905-6.994 1.681-.846.312-2.522.61-2.798 1.4-.291.538 2.015 1.774 2.868 1.542 1.686-.46 3.675-.69 5.525-1.12h.7c1.244-.289 2.805-.272 4.056-.561h.769c.829-.191 1.923-.23 2.728-.42.481-.114.852.087 1.119-.21-.916-.545-2.18-1.949-2.728-2.872h-.91zm32.311.49c-.408.409-.93.703-1.398 1.05-.437.325-.823.797-1.26 1.121-.292.218-.677.358-.839.7h.77c.59.362 2.71.214 3.567.42 1.577.382 3.308.391 4.895.841.852.241 1.892.584 2.728.77.779.175 3.147-1.088 3.217-1.75l-.49-.56c-1.03-.631-2.217-.708-3.496-1.121-2.3-.742-5.07-1.14-7.694-1.47zm-6.014 4.833c-.399.377-.884.65-1.33.98-.316.235-.592.606-.908.84-.335.249-.865.453-1.05.841h1.47c.583-.35 2.837-.087 3.706-.28.836-.186 1.81-.07 2.728-.28 1.597-.367 3.377-.45 4.965-.77v-.07c-.07-.024-.14-.048-.21-.07-.556-.339-1.637-.175-2.378-.35-1.598-.381-3.57-.332-5.245-.701-.623-.138-1.238.034-1.748-.14zm-27.066.42c-.33.205-.8.036-1.26.14-1.312.3-3.113.543-4.545.56v.14l4.685.7c.39-.58 1.417-1.004 1.679-1.54h-.56zm6.224.42c-.235.15-.502.052-.84.14-.776.203-1.65.385-2.377.7-1.655.719-2.992 1.91-3.707 3.572-.218.508-.14.947-.28 1.54-.124.535-.314 1.716-.14 2.452.14.59.26 1.42.42 1.96.307 1.036.474 1.933.84 2.802.146.348.094.743.419.91.329-1.042 1.232-1.959 1.818-2.8 1.717-2.465 3.448-4.913 5.875-6.654a9.786 9.786 0 0 1 2.098-1.12c.498-.187.927-.216 1.33-.49l.629-.77c.039-.817-.196-1.99-.91-2.032-.586.462-1.999.808-2.727 1.19-1.666.875-3.416 2.149-4.476 3.643-.717 1.01-.603 2.648-2.308 2.66-.43-.489-.783-.464-.77-1.47.352-.4.419-1.079.7-1.54.35-.577.783-1.14 1.189-1.681.411-.55 1.6-1.624 2.168-2.031.415-.298 1.167-.518 1.399-.98h-.35zm-19.653.42c-.007.992-.1 2.21.07 3.082 1.464.827 3.004 1.35 4.756 1.96.85.296 1.786.33 2.588.56.326.095 2.573.363 2.588.35.254-.304.082-.716.21-1.19.175-.653.473-1.319.629-1.96h-.07v-.07c-1.015-.02-2.067-.263-2.938-.49-.396-.048-.792-.094-1.188-.14-1.458-.396-3.024-.607-4.407-1.121-.735-.273-1.48-.827-2.238-.98zm58.05 0c-.266.242-.554.243-.91.42-1.418.705-3.219 1.055-4.896 1.541-.426.124-.676.024-1.119.14-1.426.375-3.193.48-4.686.84-.676.048-1.352.094-2.028.14-1.038.243-2.44.179-3.497.42H41.91c-.613.137-1.529.067-2.168.211h-1.328c-.569.126-1.444-.075-2.099.07-1.891.419-5.03.138-7.203.14-.644.803-1.598.912-2.588 1.4-.527.262-1.012.652-1.469.981-.328.237-.83.435-.979.84h1.958c.47.294 1.488-.058 2.099.07.627.133 1.563.07 2.308.07h4.126c.611-.007 1.589-.012 2.168-.14 1.133-.25 2.42.084 3.427-.14.713-.157 1.507-.008 2.098-.14h1.19c1.051-.236 2.401-.183 3.426-.42 1.007-.233 1.955-.04 2.937-.28 1.787-.435 3.796-.618 5.456-1.12.355-.108.554-.032.909-.14 1.105-.34 2.263-.783 3.217-1.261.421-.211.882-.246 1.05-.7.224-.356.077-2.347.069-2.942h-.14zM4.702 40.956c-.247.769.213 2.26.42 2.94.299.985.354 1.824.7 2.732.528 1.39 1.283 2.706 1.958 3.922 2.573 4.638 6.443 8.484 11.96 10.155h23.358c6.08-1.856 10.07-6.254 12.73-11.556 1.153-2.3 2.14-4.9 2.377-8.124h-.07v-.07c-1.906.8-4.276 1.01-6.434 1.541-.86.212-1.576.075-2.448.28-1.785.42-3.948.28-5.805.7H42.33c-1.006.223-2.367.184-3.427.28h-1.818c-1.238.272-3.192.14-4.616.14-2.215-.022-4.43-.046-6.644-.07-.546-.12-1.396.07-2.029-.07-.537-.118-1.17-.138-1.818-.14-.394.69-1.02 1.253-1.469 1.892-.674.958-1.192 1.934-1.818 2.941-.237.381-.62.795-.84 1.19-.514.932-.617 2.117-2.097 2.102-1.395-1.414-2.112-4.11-2.798-6.233-.202-.627-.21-2.367-.49-2.802v-.07c-1.444-.004-3.302-.484-4.546-.84-1.143-.328-2.237-.386-3.217-.84zm45.39 4.061h.7c.112.134.121.038.28.14.211.137.313.451.489.63.025 1.403-.68 2.948-1.12 3.993-1.47 3.498-2.944 6.17-6.224 7.843-.87.444-2.835 1.197-4.406.84-1.539-.35-2.943-.627-4.196-1.26-.424-.214-.884-.695-1.329-.84H32.75c-1.999-.447-5.834-.42-5.805-2.731.434-.47.504-.787 1.468-.77.702.818 4.292 1.5 5.945 1.19.383-1.031 2.126-2.098 3.007-2.732 2.708-1.946 5.878-3.436 9.092-4.902.953-.435 1.956-.725 2.868-1.12.315-.137.549-.078.77-.28zm-1.469 2.942c-.605.516-1.64.612-2.377.98-2.02 1.011-4.107 1.935-5.945 3.082-.739.46-1.821.838-2.308 1.54h.35c.293-.22.712-.157 1.119-.28.857-.258 1.537-.626 2.587-.56.15.198.38.449.56.63.022.502-.028.69-.14 1.12-1.074.654-2.603 1-3.987 1.331v.14c.518.024 1.022.162 1.47.28.845.226 2.032-.086 2.587-.28 2.55-.889 3.743-2.428 4.896-4.691.362-.712.72-1.55 1.049-2.312.09-.21.277-.829.21-.91v-.07h-.07z"/></g></g></svg>