<svg xmlns="http://www.w3.org/2000/svg" width="25" height="21" viewBox="0 0 25 21"><g><g><path fill="#82f4d3" d="M22.136 4.006c1.086-.656 1.82-1.584 2.203-2.783a9.76 9.76 0 0 1-3.18 1.22C20.164 1.378 18.944.847 17.496.847c-1.386 0-2.568.493-3.545 1.478-.978.984-1.466 2.175-1.466 3.57 0 .376.04.762.124 1.157a13.864 13.864 0 0 1-5.764-1.555 14.217 14.217 0 0 1-4.569-3.727 4.974 4.974 0 0 0-.683 2.548c0 .864.202 1.667.605 2.407.404.74.947 1.339 1.63 1.797a4.948 4.948 0 0 1-2.266-.64v.062c0 1.22.38 2.29 1.14 3.212A4.927 4.927 0 0 0 5.583 12.9a5.183 5.183 0 0 1-1.32.172 6.28 6.28 0 0 1-.946-.078 4.935 4.935 0 0 0 1.77 2.492c.858.652 1.83.988 2.916 1.009-1.82 1.438-3.894 2.157-6.221 2.157-.445 0-.849-.02-1.21-.063 2.327 1.512 4.892 2.267 7.695 2.267 1.778 0 3.449-.283 5.01-.852 1.562-.568 2.897-1.328 4.004-2.282a15.222 15.222 0 0 0 2.862-3.29 14.726 14.726 0 0 0 1.792-3.884 14.445 14.445 0 0 0 .574-4.714 10.521 10.521 0 0 0 2.513-2.61 9.91 9.91 0 0 1-2.885.782z"/></g></g></svg>