<svg class="header__logo logotype logo--desctop" xmlns="http://www.w3.org/2000/svg" height="53.833" width="195.067"><path d="M106.65 39.52c4.98 0 8.243-2.66 8.243-6.611v-.083c0-4.295-3.219-6.527-8.07-6.527h-7.6v13.224h7.427zM95.832 24.883c0-.945.773-1.719 1.674-1.719h9.574c6.782 0 11.248 3.607 11.248 9.53v.084c0 6.481-5.41 9.83-11.806 9.83h-7.298v9.102c0 .944-.774 1.716-1.719 1.716-.901 0-1.675-.774-1.675-1.716V24.882zm28.972-.216c0-.944.772-1.718 1.673-1.718.946 0 1.718.774 1.718 1.718V51.71c0 .944-.772 1.716-1.718 1.716-.901 0-1.673-.772-1.673-1.716zm12.188.043c0-.902.773-1.675 1.674-1.675h.472c.774 0 1.247.387 1.718.987L159.1 47.288V24.624c0-.901.73-1.674 1.675-1.674.9 0 1.633.773 1.633 1.674v27.13c0 .904-.641 1.589-1.545 1.589h-.172c-.73 0-1.247-.43-1.758-1.03L140.3 28.49v23.265c0 .903-.728 1.676-1.675 1.676-.901 0-1.63-.773-1.63-1.676V24.71zm33.906-.043c0-.944.773-1.718 1.676-1.718a1.72 1.72 0 0 1 1.714 1.718v16.441l17.131-17.557c.387-.343.772-.602 1.33-.602.9 0 1.633.816 1.633 1.675 0 .472-.216.859-.56 1.201l-10.646 10.56 11.42 14.082c.3.388.471.728.471 1.246 0 .902-.77 1.718-1.713 1.718-.644 0-1.076-.346-1.374-.774l-11.202-13.952-6.484 6.483v6.525a1.72 1.72 0 0 1-1.715 1.718c-.903 0-1.676-.774-1.676-1.718V24.667z"/><path d="M131.33 13.167a4.83 4.83 0 0 1-4.83-4.832 4.833 4.833 0 0 1-4.834 4.832 4.833 4.833 0 0 1 4.833 4.832 4.83 4.83 0 0 1 4.831-4.832" fill="#d22856"/><path d="M57.458 25.75c.328 0 .652.02.974.045a3.322 3.322 0 0 0-2.848-1.628 2.658 2.658 0 0 1-2.512-1.806c-.97.278-1.9.643-2.786 1.088.083.023.163.051.251.051a2.668 2.668 0 0 1 2.667 2.667c0 .128-.02.25-.038.374 1.334-.509 2.78-.79 4.292-.79"/><path d="M80.616 37.354l-6.9-28.487C73.235 5.738 70.259 0 62.25 0a1.999 1.999 0 1 0 0 4c6.474 0 7.433 4.972 7.518 5.524l6.356 26.268H73.36c-.593-4.742-3.27-8.837-7.073-11.362a3.34 3.34 0 0 0-2.039 3.07c0 .118-.02.228-.034.342a12.049 12.049 0 0 1 5.105 7.953c.11.65.18 1.316.18 2 0 .683-.07 1.35-.18 2-.955 5.696-5.895 10.04-11.861 10.04-5.967 0-10.908-4.344-11.862-10.04-.11-.65-.18-1.317-.18-2 0-.684.07-1.35.18-2 .196-1.172.57-2.283 1.078-3.312a2.66 2.66 0 0 1-2.47-2.647.985.985 0 0 0-.256-.65 15.933 15.933 0 0 0-2.393 6.61h-2.427c-.988-7.904-7.736-14.042-15.902-14.042-8.167 0-14.914 6.136-15.903 14.038H4.56l6.356-26.268C11 8.971 11.96 4 18.435 4a1.999 1.999 0 1 0 0-4C10.427 0 7.45 5.74 6.969 8.867L.07 37.354c-.354 1.479.708 2.435 1.902 2.435.016 0 .03.005.048.005h5.309c.105.839.287 1.65.516 2.441a.963.963 0 0 0 .136-.47 2.667 2.667 0 0 1 2.667-2.667c.22 0 .432.032.637.083a11.098 11.098 0 0 1-.099-1.39c0-.682.07-1.348.18-2 .954-5.693 5.895-10.04 11.862-10.04 5.966 0 10.906 4.347 11.86 10.04.11.652.18 1.318.18 2 0 .683-.07 1.35-.18 2-.952 5.698-5.894 10.042-11.86 10.042-2.696 0-5.178-.894-7.182-2.392a2.641 2.641 0 0 1-1.732.656 1 1 0 0 0-.998.997c0 .385-.087.75-.235 1.081 2.767 2.278 6.296 3.658 10.152 3.658 8.167 0 14.913-6.138 15.903-14.039h2.418c.99 7.901 7.736 14.039 15.903 14.039 8.167 0 14.915-6.138 15.903-14.039h5.308c.016 0 .03-.007.048-.007 1.193.002 2.256-.954 1.9-2.433"/><path d="M67.581 21.5a5.998 5.998 0 0 1-5.998-5.999 5.998 5.998 0 0 1-5.999 5.999 5.998 5.998 0 0 1 5.999 5.999A5.997 5.997 0 0 1 67.58 21.5m-17.042 4.668a3.664 3.664 0 0 1-3.665-3.665 3.664 3.664 0 0 1-3.665 3.665 3.663 3.663 0 0 1 3.665 3.665 3.664 3.664 0 0 1 3.665-3.665M14.312 45.43a3.664 3.664 0 0 1-3.665-3.667A3.664 3.664 0 0 1 6.98 45.43a3.663 3.663 0 0 1 3.666 3.664 3.664 3.664 0 0 1 3.665-3.664" fill="#d22856"/></svg>