<svg fill="#d22856" xmlns="http://www.w3.org/2000/svg" xmlns:xlink="http://www.w3.org/1999/xlink" width="18" height="14"><defs><path id="a" d="M14.91 1.82c1.2-1 .9-1.82-.65-1.82H3.73c-1.56 0-1.85.82-.66 1.82l3.75 3.12c1.2 1 3.16 1 4.35 0z"/><path id="b" d="M11.91 7.05L9.7 8.88l-.02.02c-.08.05-.16.1-.24.13l-.1.05a.96.96 0 0 1-.33.06h-.03a.96.96 0 0 1-.33-.06l-.1-.05a1.05 1.05 0 0 1-.24-.13l-.02-.02c-.02 0-1.02-.83-2.21-1.83L2.18 3.8C.98 2.8 0 3.26 0 4.82v6.32a2.84 2.84 0 0 0 2.84 2.83h12.31A2.84 2.84 0 0 0 18 11.14V4.82c0-1.56-.98-2.02-2.18-1.02z"/></defs><g clip-path="url(#clip-0:1:c)"><use xlink:href="#a"/></g><g clip-path="url(#clip-0:0:c)"><use xlink:href="#b"/></g></svg>