<svg fill="#d22856" xmlns="http://www.w3.org/2000/svg" xmlns:xlink="http://www.w3.org/1999/xlink" width="13" height="12"><defs><path id="a" d="M6.24 11.99a.74.74 0 0 1-.56-.25C1.88 7.42 1.04 6.44.83 6.17A3.8 3.8 0 0 1 6.28.9a3.8 3.8 0 0 1 6.26 2.9c0 .9-.32 1.75-.9 2.38l-4.86 5.56a.74.74 0 0 1-.55.25zm-4.25-6.7c.2.25 2.47 2.83 4.24 4.85l4.33-4.94c.34-.37.52-.86.52-1.4a2.33 2.33 0 0 0-2.33-2.33c-.73 0-1.42.34-1.9.94a.73.73 0 0 1-1.16-.02 2.33 2.33 0 0 0-1.9-.92 2.33 2.33 0 0 0-1.81 3.8l.01.01z"/></defs><g clip-path="url(#clip-0:0:c)"><use xlink:href="#a"/></g></svg>