<svg class="header__logo logotype logo--tablet" xmlns="http://www.w3.org/2000/svg" height="53.835" width="195.067"><path d="M106.65 39.52c4.98 0 8.243-2.66 8.243-6.611v-.083c0-4.295-3.219-6.527-8.07-6.527h-7.6v13.224h7.427zM95.832 24.883c0-.945.773-1.719 1.674-1.719h9.574c6.782 0 11.248 3.607 11.248 9.53v.084c0 6.481-5.41 9.83-11.806 9.83h-7.298v9.102c0 .944-.774 1.716-1.719 1.716-.901 0-1.675-.774-1.675-1.716V24.882zm28.972-.216c0-.944.772-1.718 1.673-1.718.946 0 1.718.774 1.718 1.718V51.71c0 .944-.772 1.716-1.718 1.716-.901 0-1.673-.772-1.673-1.716zm12.188.043c0-.902.773-1.675 1.674-1.675h.472c.774 0 1.247.387 1.718.987L159.1 47.288V24.624c0-.901.73-1.674 1.675-1.674.9 0 1.633.773 1.633 1.674v27.13c0 .904-.641 1.589-1.545 1.589h-.172c-.73 0-1.247-.43-1.758-1.03L140.3 28.49v23.265c0 .903-.728 1.676-1.675 1.676-.901 0-1.63-.773-1.63-1.676V24.71zm33.906-.043c0-.944.773-1.718 1.676-1.718a1.72 1.72 0 0 1 1.714 1.718v16.441l17.131-17.557c.387-.343.772-.602 1.33-.602.9 0 1.633.816 1.633 1.675 0 .472-.216.859-.56 1.201l-10.646 10.56 11.42 14.082c.3.388.471.728.471 1.246 0 .902-.77 1.718-1.713 1.718-.644 0-1.076-.346-1.374-.774l-11.202-13.952-6.484 6.483v6.525a1.72 1.72 0 0 1-1.715 1.718c-.903 0-1.676-.774-1.676-1.718V24.667zM69.32 39.792c-.954 5.696-5.894 10.041-11.861 10.041-5.967 0-10.908-4.345-11.861-10.041-.11-.65-.18-1.318-.18-2 0-.683.07-1.348.18-2 .954-5.695 5.894-10.042 11.86-10.042 5.968 0 10.909 4.347 11.862 10.042.11.652.18 1.317.18 2 0 .682-.07 1.35-.18 2m-34.233 0c-.953 5.696-5.895 10.041-11.861 10.041-5.967 0-10.907-4.345-11.862-10.041-.11-.65-.18-1.318-.18-2 0-.683.07-1.348.18-2 .954-5.695 5.895-10.042 11.862-10.042 5.966 0 10.906 4.347 11.86 10.042.11.652.18 1.317.18 2 0 .682-.07 1.35-.18 2m45.53-2.438l-6.9-28.486C73.235 5.738 70.26 0 62.251 0a1.999 1.999 0 1 0 0 4c6.475 0 7.433 4.972 7.519 5.524l6.356 26.268h-2.764c-.99-7.903-7.736-14.042-15.903-14.042-8.167 0-14.915 6.14-15.903 14.042H39.13c-.988-7.903-7.736-14.042-15.903-14.042-8.167 0-14.913 6.14-15.903 14.042H4.56l6.356-26.268C11 8.972 11.96 4 18.435 4a1.999 1.999 0 1 0 0-4C10.427 0 7.45 5.737 6.97 8.868L.07 37.354c-.355 1.48.708 2.435 1.9 2.435.017 0 .032.005.049.005h5.31c.987 7.902 7.735 14.04 15.902 14.04 8.167 0 14.913-6.138 15.903-14.04h2.418c.99 7.902 7.736 14.04 15.903 14.04 8.167 0 14.915-6.138 15.903-14.04h5.309c.016 0 .03-.005.048-.005 1.193 0 2.256-.956 1.901-2.435"/></svg>