<svg version="1" xmlns="http://www.w3.org/2000/svg" width="75" height="22" viewBox="0 0 750 220"><path d="M0 110V0h68c79 0 105 18 105 71 0 44-32 71-92 77-50 4-51 5-51 38 0 24-5 34-15 34-12 0-15-19-15-110zm128-12c30-30-2-68-59-68-39 0-39 0-39 40v40h43c24 0 48-5 55-12zm82 12C210 7 211 0 230 0s20 7 20 110-1 110-20 110-20-7-20-110zm100 0c0-138 10-141 95-35l60 75 3-75c3-67 5-75 22-75 19 0 20 7 20 110 0 100-2 110-18 110-12 0-45-32-83-80l-64-79-3 79c-2 62-6 80-17 80-12 0-15-20-15-110zm250 0C560 7 561 0 580 0c18 0 20 7 20 57v57l58-57c54-54 92-72 92-45 0 7-19 28-41 48l-42 36 42 47c22 27 41 55 41 63 0 27-28 14-68-33-40-48-40-48-61-29-12 11-21 31-21 48 0 21-5 28-20 28-19 0-20-7-20-110z" fill="#fff"/></svg>