<?xml version="1.0" standalone="no"?>
<!DOCTYPE svg PUBLIC "-//W3C//DTD SVG 20010904//EN"
 "http://www.w3.org/TR/2001/REC-SVG-20010904/DTD/svg10.dtd">
<svg version="1.0" xmlns="http://www.w3.org/2000/svg"
 width="700.000000pt" height="700.000000pt" viewBox="0 0 700.000000 700.000000"
 preserveAspectRatio="xMidYMid meet">
<metadata>
Created by potrace 1.11, written by Peter Selinger 2001-2013
</metadata>
<g transform="translate(0.000000,700.000000) scale(0.100000,-0.100000)"
fill="#000000" stroke="none">
<path d="M400 6987 c-87 -30 -147 -82 -183 -157 l-22 -45 0 -1945 c0 -1070 4
-1981 8 -2025 31 -316 117 -678 213 -903 8 -17 20 -47 28 -65 111 -267 285
-558 472 -792 115 -143 349 -378 489 -489 265 -212 523 -363 865 -505 l135
-56 1029 -3 c1147 -3 1044 -8 1240 70 262 103 545 265 776 442 195 149 407
359 589 581 43 54 165 230 216 314 192 315 340 690 409 1036 25 124 25 125 36
215 6 47 13 99 15 115 3 17 8 75 11 130 9 138 11 3788 2 3849 -25 174 -203
283 -375 231 -57 -18 -69 -29 -649 -607 l-591 -589 -81 40 c-220 110 -567 229
-807 276 -290 57 -481 77 -747 78 -137 0 -343 -9 -401 -18 -12 -2 -49 -6 -82
-10 -140 -15 -329 -53 -505 -101 -202 -54 -368 -116 -568 -210 l-113 -53 -579
579 c-475 477 -587 584 -627 601 -58 25 -155 32 -203 16z"/>
</g>
</svg>
