<svg xmlns="http://www.w3.org/2000/svg" width="25" height="25" fill="#000"><path d="M14.9 12.5a2.4 2.4 0 11-4.8 0 2.4 2.4 0 014.8 0z"/><path d="M18.1 8.27c-.12-.31-.3-.6-.54-.83a2.22 2.22 0 00-.83-.54c-.25-.1-.63-.21-1.33-.24-.76-.04-.98-.04-2.9-.04s-2.14 0-2.9.04c-.7.03-1.08.15-1.33.24-.31.12-.6.3-.83.54-.24.23-.42.52-.54.83-.1.25-.21.63-.24 1.33-.04.76-.04.98-.04 2.9s0 2.14.04 2.9c.03.7.15 1.08.24 1.33.12.32.3.6.54.83.23.24.51.42.83.54.25.1.63.21 1.33.24.76.04.98.04 2.9.04s2.14 0 2.9-.04c.7-.03 1.08-.15 1.33-.24a2.38 2.38 0 001.37-1.37c.1-.25.21-.63.24-1.33.04-.76.04-.98.04-2.9s0-2.14-.04-2.9a3.97 3.97 0 00-.24-1.33zm-5.6 7.92a3.69 3.69 0 110-7.38 3.69 3.69 0 010 7.38zm3.83-6.66a.86.86 0 110-1.72.86.86 0 010 1.72z"/><path d="M12.5 0a12.5 12.5 0 100 25 12.5 12.5 0 000-25zm7.13 15.46a5.27 5.27 0 01-.33 1.74 3.67 3.67 0 01-2.1 2.1c-.45.18-.98.3-1.74.33-.77.04-1.01.05-2.96.05s-2.2-.01-2.96-.05a5.27 5.27 0 01-1.74-.33 3.52 3.52 0 01-1.27-.83c-.37-.36-.65-.79-.83-1.27-.18-.45-.3-.98-.33-1.74-.04-.77-.05-1.01-.05-2.96s.01-2.2.05-2.96c.03-.76.15-1.28.33-1.74.18-.48.46-.91.83-1.27.36-.37.79-.65 1.27-.83.46-.18.98-.3 1.74-.33a50.9 50.9 0 012.96-.05c1.95 0 2.2.01 2.96.05.76.03 1.29.15 1.74.33.48.18.91.46 1.27.83.37.36.65.79.83 1.27.18.46.3.98.33 1.74.04.77.05 1.01.05 2.96s-.01 2.2-.05 2.96z"/></svg>
