<svg xmlns="http://www.w3.org/2000/svg" width="25" height="25" fill="#fff"><path d="M21.05 16.02V11.9c0-1.18-.63-2.13-1.67-2.55a2.27 2.27 0 00-1.6-.08 2.45 2.45 0 00-2.7-.78c-.3-.35-.7-.6-1.2-.74-.42-.1-.83-.1-1.18-.01l-.08-3.75a1.93 1.93 0 00-1.9-1.94c-1.04 0-1.89.88-1.89 1.95v9.35c-.2-.2-.34-.4-.49-.61a2.87 2.87 0 00-1.95-1.38 2.15 2.15 0 00-2.2.82c-.29.43-.31.91-.06 1.29l.25.34c.3.39.72.92 1.12 2.03.56 1.55 1.54 2.24 2.32 2.8.75.54 1.32.95 1.45 1.97a.49.49 0 00-.45.48v3.42c0 .27.22.49.49.49h10.8c.27 0 .49-.22.49-.49V21.1c0-.26-.2-.47-.46-.48.06-.63.24-1.26.42-1.92.24-.86.49-1.76.49-2.67zm-1.43 8H9.79v-2.44h2.72a.49.49 0 100-.97h-2.25c-.16-1.53-1.03-2.15-1.87-2.76-.75-.53-1.51-1.08-1.97-2.34-.46-1.26-.95-1.88-1.27-2.3l-.2-.28c-.05-.06.04-.19.05-.2.2-.28.67-.52 1.18-.41.79.17 1.02.5 1.36.98.28.4.62.87 1.3 1.28v.2a.49.49 0 00.97 0V4c0-.53.41-.97.92-.97.5 0 .9.44.91.98l.14 6.46a.49.49 0 10.98-.02l-.04-1.66c.16-.13.52-.2.91-.1.23.07.97.33.97 1.19a.49.49 0 00.98 0c0-.18-.02-.35-.06-.5.3-.08.7-.04 1.03.12.26.13.71.45.71 1.08a.49.49 0 10.98 0c0-.14-.02-.28-.04-.42a1.67 1.67 0 011.87 1.74v4.12c0 .78-.22 1.57-.45 2.4-.2.72-.4 1.44-.46 2.19H16.9a.49.49 0 100 .97h2.72v2.44z"/><path d="M7.21 4.5c.27 0 .49-.23.49-.5a3.03 3.03 0 016.06 0 .49.49 0 00.97 0 4 4 0 00-8 0c0 .27.21.5.48.5zM14.7 20.6a.49.49 0 100 .98.49.49 0 000-.97z"/></svg>
