<svg xmlns="http://www.w3.org/2000/svg" width="35" height="35" fill="none"><circle cx="17.5" cy="17.5" r="17.5" fill="#fff"/><path fill="#000" d="M24.56 16.85h-1.28a3.73 3.73 0 00-.87-.58 2.8 2.8 0 10-3.65-.36h-2.05a2.78 2.78 0 00-2.03-4.7 2.8 2.8 0 00-1.79 4.93c-.42.16-.82.4-1.17.71h-1.28c-.24 0-.44.2-.44.44v2.35c0 .25.2.44.44.44h.03v3.33c0 .24.2.44.44.44h13.18c.24 0 .44-.2.44-.44v-3.33h.03c.24 0 .44-.2.44-.44V17.3c0-.24-.2-.44-.44-.44zm-.44 2.35h-.74a.74.74 0 010-1.47h.74v1.47zM18.88 14a1.92 1.92 0 113.83 0 1.92 1.92 0 01-3.83 0zm-4.2-1.92a1.92 1.92 0 110 3.83 1.92 1.92 0 010-3.83zm-3.8 5.65h.74a.74.74 0 010 1.47h-.74v-1.47zm.47 2.35h.27a1.62 1.62 0 001.04-2.85h.01c.45-.29.98-.44 1.54-.44h4.18a3.73 3.73 0 00-1.33 2.85v3.33h-3.83v-1.92a.44.44 0 00-.88 0v1.92h-1v-2.89zm12.3 2.89h-1v-1.92a.44.44 0 00-.88 0v1.92h-3.83v-3.33a2.86 2.86 0 014.4-2.4 1.61 1.61 0 001.04 2.84h.27v2.89z"/></svg>