<svg xmlns="http://www.w3.org/2000/svg" width="35" height="35"><circle cx="17.5" cy="17.5" r="17.5" fill="#fff"/><path d="M23.52 13.15A1.85 1.85 0 0022.21 10a1.85 1.85 0 00-1.32 3.15 2.8 2.8 0 00-1.48 2.47v.94c0 .24.2.44.44.44h4.71c.24 0 .44-.2.44-.44v-.94a2.8 2.8 0 00-1.48-2.47zm-1.31-2.27a.97.97 0 110 1.95.97.97 0 010-1.95zm1.91 5.24H20.3v-.5a1.91 1.91 0 013.83 0v.5zM11.62 17h5.17c.9 0 1.62-.73 1.62-1.62v-3.35l1.28-1.28a.44.44 0 00-.3-.75h-7.77c-.9 0-1.62.72-1.62 1.62v3.76c0 .9.72 1.62 1.62 1.62zm-.74-5.38c0-.41.33-.74.74-.74h6.7l-.66.66a.44.44 0 00-.13.31v3.53c0 .4-.33.74-.74.74h-5.17a.74.74 0 01-.74-.74v-3.76z"/><path d="M13.89 15.22a.44.44 0 00.62 0l1.28-1.28a1.34 1.34 0 00-1.58-2.13 1.35 1.35 0 00-1.6 2.14l1.28 1.27zm-.65-2.55a.47.47 0 01.66 0 .44.44 0 00.62 0 .47.47 0 01.66 0c.18.17.17.47 0 .65l-.98.97-.96-.96a.47.47 0 010-.66zM14.1 21.15A1.85 1.85 0 0012.8 18a1.85 1.85 0 00-1.32 3.15A2.8 2.8 0 0010 23.62v.94c0 .24.2.44.44.44h4.7c.25 0 .45-.2.45-.44v-.94a2.8 2.8 0 00-1.48-2.47zm-1.3-2.27a.97.97 0 110 1.95.97.97 0 010-1.95zm1.9 5.24h-3.82v-.5a1.91 1.91 0 013.83 0v.5zM23.38 18h-7.76c-.4 0-.59.48-.31.75l1.28 1.29v3.34c0 .9.73 1.62 1.62 1.62h5.17c.9 0 1.62-.72 1.62-1.62v-3.76c0-.9-.72-1.62-1.62-1.62zm.74 5.38c0 .4-.33.74-.74.74h-5.17a.74.74 0 01-.74-.74v-3.53a.44.44 0 00-.13-.3l-.66-.67h6.7c.4 0 .74.33.74.74v3.76z"/><path d="M20.8 19.81a1.34 1.34 0 00-1.59 2.13l1.28 1.28a.44.44 0 00.62 0l1.28-1.27a1.35 1.35 0 00-1.6-2.14zm.97 1.52l-.97.96-.97-.97a.47.47 0 010-.66.47.47 0 01.65 0c.09.09.2.14.31.14.12 0 .23-.05.32-.13a.47.47 0 01.65 0c.19.18.19.48 0 .66z"/></svg>