<svg width="35" height="35" viewBox="0 0 35 35" fill="none" xmlns="http://www.w3.org/2000/svg">
<circle cx="17.5" cy="17.5" r="17.5" fill="white"/>
<path d="M17.5 25C13.3643 25 10 21.6357 10 17.5C10 13.3643 13.3643 10 17.5 10C21.6357 10 25 13.3643 25 17.5C25 21.6357 21.6357 25 17.5 25ZM17.5 10.9375C13.8813 10.9375 10.9375 13.8813 10.9375 17.5C10.9375 21.1187 13.8813 24.0625 17.5 24.0625C21.1187 24.0625 24.0625 21.1187 24.0625 17.5C24.0625 13.8813 21.1187 10.9375 17.5 10.9375Z" fill="black"/>
<path d="M20.7812 21.5625C20.6612 21.5625 20.5413 21.5169 20.4499 21.425L17.1687 18.1437C17.0806 18.0556 17.0312 17.9362 17.0312 17.8125V13.4374C17.0312 13.1787 17.2412 12.9687 17.5 12.9687C17.7588 12.9687 17.9688 13.1787 17.9688 13.4374V17.6181L21.1126 20.7619C21.2957 20.945 21.2957 21.2419 21.1126 21.425C21.0212 21.5169 20.9013 21.5625 20.7812 21.5625Z" fill="black"/>
</svg>
