<svg xmlns="http://www.w3.org/2000/svg" width="35" height="35" fill="none"><circle cx="17.5" cy="17.5" r="17.5" fill="#fff"/><path fill="#000" d="M25 11.78A1.75 1.75 0 0023.23 10h-.01c-.48 0-.93.2-1.26.54l-2.63 2.74L12.46 11l-2.03 2.02 5.75 3.54-2.37 2.46-1.85-.3L10 20.69l3.2 1.12L14.3 25l1.96-1.96-.3-1.85 2.46-2.37 3.54 5.75 2.02-2.03-2.27-6.87 2.74-2.63c.34-.33.54-.78.54-1.26zm-1.15.63l-3.14 3L23 22.3l-.86.86-3.52-5.73-3.58 3.44.3 1.87-.65.65-.8-2.28-2.27-.8.65-.64 1.87.3 3.44-3.58-5.73-3.52.86-.86 6.88 2.28 3.01-3.14a.88.88 0 01.63-.27h.01a.88.88 0 01.89.9c0 .24-.1.46-.27.63z"/></svg>