<svg xmlns="http://www.w3.org/2000/svg" width="512" height="512" fill="none"><g clip-path="url(#clip0)"><path fill="#fff" d="M57.8 439.3a35.1 35.1 0 01-21.3 6.7c-7.8 0-14.2-2-19-6-4.7-4.2-7-9-7-14.3 0-5.3.8-9.2 2.5-11.7a47.3 47.3 0 0023 4.3c4.2 0 8.8-2.1 13.8-6.3 5-4.3 9-10.3 12-17.8V277c0-7.8-1.7-13.7-5-17.5-5-6-13.5-12-25.5-17.8a75.4 75.4 0 0023-14.4c5-6.4 7.5-13.5 7.5-21.3L62 97c-4-10.5-12.8-15.8-26.5-15.8-7 0-12.2 1.5-15.5 4.3-1.7-2.2-2.5-5-2.5-8.5s.8-6.7 2.3-9.5c1.4-2.8 3.5-5.3 6.2-7.5a36.5 36.5 0 0122.8-6.5 34 34 0 0123.5 8.3c5.5-5.5 11.9-8.3 19.2-8.3 7.3 0 13.6 3 18.8 9.3 6.5-6.2 12.2-9.3 17.2-9.3s8.8.4 11.5 1.3c2.7.8 5.3 2.4 8 4.7a70 70 0 0116.8 25.3l95.7 198.7 79-194.8 7-16.2c4.2-9.2 8-14.6 11.8-16.3a26.4 26.4 0 0128 2.8 49 49 0 0124.7-5.5 44 44 0 0126.8 8.3 32.3 32.3 0 0120.7-8.3c7.3 0 13 .6 17 1.8 4.2 1.1 7.8 2.7 10.8 4.7 6.3 4.5 9.4 10 9.4 16.8 0 3.3-.9 6.2-2.7 8.7a22.2 22.2 0 00-14-4.3c-12.7 0-21.3 6-25.8 17.8v107c0 8.2 1.8 14.3 5.3 18.3 5.5 6.4 14 12.3 25.3 17.4-12.2 6-20 11-23.3 14.8-4.8 6-7.3 12.8-7.3 20.5v122.3c5.7 12.6 16 19 30.8 19 5.7 0 10.3-1.5 14-4.3 1.8 2.5 2.8 5.4 2.8 8.8 0 3.1-1 6.1-3 9a23.3 23.3 0 01-7.8 7.2c-7.7 4.7-16.4 7-26.3 7-9.8 0-19-2.7-27.4-8-7.9 5.3-16.8 8-26.8 8-10.7 0-20-2.7-28.3-8-8.4 5.3-16.4 8-23.7 8a66 66 0 01-17.8-2 42.9 42.9 0 01-12.2-5c-7.2-4.3-10.8-9.8-10.8-16.3 0-3.3 1-6.2 2.8-8.7 3.7 2.8 8.3 4.3 14 4.3 14.8 0 25-6.4 30.8-19V126l-97.6 241.5L255 392c-5.2 11.7-8.8 18.3-11 19.8-2 1.4-3.7 2.2-5 2.2-4.2 0-7-.4-8.8-1.3L96.8 149.6V394a43.4 43.4 0 0013 18 34 34 0 0036 2 24 24 0 012.7 12.5c0 5.2-2.6 9.8-7.8 13.8a32.7 32.7 0 01-20 5.7c-8.1 0-15.6-2-22.5-6.3-6 4.2-12.9 6.3-20.7 6.3-7.7 0-14.3-2.3-19.8-6.8zm74.2-311c-1.7 2.4-2.5 6-2.5 10.7 0 13.5 5.7 31.4 17 53.8l91 181.7c1.2-1.5 1.8-4.7 1.8-9.5 0-14.5-7-35.8-20.8-63.8l-86.5-173zm255.3 246.4c8.3-3.1 12.9-14 13.7-32.7 1-18.7 1.5-44.5 1.5-77.5a5368.2 5368.2 0 00-.5-92.3c-.5-19.6-2.4-31.4-5.8-35.4-3.1-4.2-6.1-7-9-8.3v246.3zm-294 3.3c0 1.3 0 2.3.2 3l-.3-3zm-28 0c-.2.7-.3 1.7-.3 3l.3-3z"/></g><defs><clipPath id="clip0"><path fill="#fff" d="M0 0h512v512H0z"/></clipPath></defs></svg>