<svg xmlns="http://www.w3.org/2000/svg" width="279" height="68" fill="none"><path fill="#fff" d="M4.5 35.9c-.4.3-1 .5-1.5.5a2 2 0 01-1.3-.5c-.4-.3-.5-.6-.5-1l.1-.8c.4.2 1 .3 1.7.3.3 0 .6-.1 1-.4l.8-1.3v-8.2c0-.6-.2-1-.4-1.3A5.4 5.4 0 002.6 22a5.3 5.3 0 001.6-1c.4-.5.6-1 .6-1.5v-7.7c-.3-.7-1-1-1.9-1-.5 0-.8 0-1 .2a1 1 0 01-.3-.6l.2-.7.4-.5c.4-.3 1-.4 1.6-.4s1.3.1 1.7.5c.4-.4.8-.6 1.4-.6.5 0 1 .3 1.3.7.4-.4.8-.7 1.2-.7l.8.2.6.3c.3.3.7.9 1.1 1.8l6.8 14 5.5-13.8.5-1.1c.3-.6.6-1 .8-1.1a1.9 1.9 0 012 .1 3.5 3.5 0 011.8-.4c.7 0 1.3.2 1.8.6.5-.4 1-.6 1.5-.6s.9 0 1.2.2c.3 0 .5.2.7.3.5.3.7.7.7 1.2 0 .2 0 .4-.2.6-.2-.2-.6-.3-1-.3-.9 0-1.5.4-1.8 1.2v7.6c0 .5.1 1 .4 1.3.4.4 1 .8 1.8 1.2-.9.4-1.4.8-1.7 1-.3.4-.5 1-.5 1.5V33c.4.9 1.1 1.3 2.2 1.3.4 0 .7-.1 1-.3l.2.6-.2.6-.6.6a3.6 3.6 0 01-3.8 0c-.5.3-1.1.5-1.9.5-.7 0-1.4-.2-2-.6-.5.4-1.1.6-1.6.6l-1.3-.2a3 3 0 01-.8-.3c-.5-.3-.8-.7-.8-1.2 0-.2 0-.4.2-.6.3.2.6.3 1 .3 1 0 1.8-.4 2.2-1.3V13.9l-6.9 17-.7 1.6a4.6 4.6 0 01-.8 1.4l-.4.2h-.6L7.2 15.4v17.2c.3.5.6 1 1 1.3.3.3.8.4 1.2.4.5 0 1-.1 1.3-.3l.2.9c0 .3-.2.7-.6 1-.3.2-.8.4-1.4.4a3 3 0 01-1.6-.5c-.4.3-.9.5-1.4.5-.6 0-1-.2-1.4-.5zM9.7 14l-.2.8a9 9 0 001.2 3.7l6.4 12.8.1-.6c0-1-.4-2.6-1.4-4.5L9.7 14zm18 17.3c.5-.2.8-1 1-2.3v-5.4a378.2 378.2 0 000-6.5c0-1.4-.2-2.2-.4-2.5l-.7-.6v17.3zM7 31.6v.2-.2zm-2 0a1 1 0 000 .2v-.2zM39 35.9c-.4.3-1 .4-1.5.4a2 2 0 01-1.3-.4 1.3 1.3 0 01-.5-1l.1-.8c.4.2.8.3 1.3.3s.9 0 1.1-.2l.8-.6 2.5-7.4.3-1.2.2-1c0-1-.5-1.7-1.5-2a5.1 5.1 0 002-1.2 6.9 6.9 0 001.3-2.5l2-6.5c-.4-.5-.9-.8-1.4-.8a3 3 0 00-1.4.4 1.4 1.4 0 01-.2-.7l.1-.8.5-.6a2.9 2.9 0 012-.6c.7 0 1.4.3 2 .8.6-.5 1.3-.8 2.2-.8a3 3 0 012 .7c.8-.4 1.6-.7 2.4-.7.7 0 1.3.2 1.8.5.4.3.6.7.6 1.2 0 .2 0 .4-.2.6-.3-.2-.6-.3-1-.3-.7 0-1.3.5-1.5 1.6l2.3 7.2c.2.9 1 1.6 2 2l1 .5c-1.1.4-1.7 1-1.7 1.7l.1.8 3.4 9c.5.5 1 .8 1.5.8.6 0 1-.1 1.3-.3l.2.5c0 .2 0 .5-.2.7 0 .3-.2.4-.3.6-.4.4-1 .5-1.7.5a3.1 3.1 0 01-1.9-.6c-.6.4-1.3.6-2 .6-.8 0-1.5-.2-2-.5a3 3 0 01-1.9.5 3.3 3.3 0 01-1.8-.4c-.4-.3-.7-.7-.7-1.3 0-.3 0-.5.2-.6.3.2.6.3 1 .3.6 0 1.1-.1 1.4-.4l-1.3-4.5H43l-1.2 3.9c.5.7 1 1 1.7 1s1.2 0 1.6-.2l.2.9c0 .3-.2.7-.6 1-.3.2-.8.3-1.4.3s-1-.1-1.5-.4c-.5.3-1 .4-1.5.4s-1-.1-1.4-.4zM51.7 27l-4-13.5-4 13.5h8zm3.4 4.3c.2 0 .3-.2.3-.7l-.3-2.4-.7-2c-.5-1.6-.7-2.5-.7-3 0-.6.3-1 .8-1.2-.8-.2-1.3-.4-1.4-.8a27 27 0 01-.4-.6l-.2-.4a23.1 23.1 0 01-.3-.8l-1-3.3a3.9 3.9 0 00-1.2-1.9 1 1 0 00-.4-.2 305 305 0 001.5 5.5 744.5 744.5 0 003 9.3l1 2.5zm5.2 1.6v.1zm8.3 2.4c-1 1-1.8 1.4-2.6 1.4-.6 0-1-.2-1.1-.6.2-.3.4-.8.4-1.5v-.4a2.4 2.4 0 01-1-1.9c0-.7.4-1.5 1-2.2l-.2-1.3a3.5 3.5 0 01.7-2.3c.5-.6 1-1 1.5-1s.8.2 1 .6c-.4.5-.6 1.2-.6 2.1s.1 1.8.4 2.5a5.5 5.5 0 005.3 3.5c1.1 0 2-.4 2.8-1a3.5 3.5 0 001.3-2.8c0-.9-.2-1.6-.6-2-.6-1-1.6-1.8-2.9-2.7-1-.7-1.8-1-2.4-1-.7 0-1.3.2-2.1.7l.3-1.7-.3-.4-.7-.6c-2-1.9-3.3-3.7-3.6-5.3a9.7 9.7 0 01-.2-2 6.6 6.6 0 012.3-4.9 8.6 8.6 0 015.8-2c1.4 0 2.7.3 3.9.7.5.2 1 .3 1.7.3h.7a.9.9 0 00.6-.4 1 1 0 00.2-1 1 1 0 01.8.1l.5.4c.3.4.4.9.4 1.4 0 .5 0 .8-.4 1.1.4.3.6.9.6 1.6 0 .8-.2 1.4-.7 1.9l.1.8a2 2 0 01-.5 1.3c-.3.4-.6.6-1 .6A2.7 2.7 0 0179 17a3.8 3.8 0 00-.1-3.1 4.4 4.4 0 00-1-1.5 5 5 0 00-3.6-1.3c-1 0-1.7.3-2.3.8a2.6 2.6 0 00-.8 2c0 .5 0 1 .4 1.4.5.7 1.2 1.4 2.3 2l.9.6.9.5h.5a5.4 5.4 0 001.8-.8l-.3 1v.7c0 .2 0 .5.3.7 2.2 1.9 3.7 3.5 4.4 4.7a7.9 7.9 0 01.3 7 7.3 7.3 0 01-1.8 2.4 10 10 0 01-7 2.4c-2 0-3.7-.4-5.2-1.2zM67.4 14c-.4.2-.6.7-.6 1.5 0 1.6 1 3.4 3.2 5.3l1 1c.4.2.5.5.5.7v.4l-.2.3v.2c.4-.2.7-.4 1-.4.5 0 1 .2 1.4.5 2.3 1.4 3.8 2.6 4.6 3.7a5 5 0 011 3l-.2 1.1c.7-.4 1-1 1-1.9a4.4 4.4 0 00-1.2-3.1L77.7 25 76 23.7 73.4 22a17.3 17.3 0 01-4.6-4.3 6.1 6.1 0 01-1.4-3.7zm32.4 21.8a3.9 3.9 0 01-4 0c-.7.4-1.3.5-1.8.5l-1.3-.1c-.4 0-.7-.2-1-.3-.4-.3-.7-.7-.7-1.2l.2-.6c.3.2.6.3 1 .3.5 0 1-.1 1.3-.3.5-.3.8-.6 1-1v-8.6c0-.6 0-1-.3-1.2a5.4 5.4 0 00-1.8-1.3l1.6-1c.4-.4.6-1 .6-1.5v-8.2a4 4 0 00-3.1.2c-.6.3-1.1.7-1.6 1.3a7.1 7.1 0 00-1.6 4.8c0 1 .2 2 .6 2.5-.1.3-.4.4-.8.4s-.7 0-1-.3a3.2 3.2 0 01-1.5-2.6c0-.7.1-1.3.4-1.8a2.6 2.6 0 01-.7-1.8c0-.6.2-1.2.6-1.6a3 3 0 01-.8-2.1c0-1 .5-1.7 1.4-2.1l.8-.2c.4 0 .7.1.9.3a2.5 2.5 0 00-.1.6c0 .5.1.7.5.7h.5l.8-.3a14 14 0 013.4-.5c1 0 1.7.2 2.4.6.6-.4 1.3-.6 2-.6s1.5.2 2.1.6a4 4 0 012.1-.6c1.2 0 2.1 0 3 .3l1.6.4.5.1c.3 0 .5-.2.5-.7l-.1-.6c.2-.2.4-.3.7-.3l1 .2.7.5c.4.4.6 1 .6 1.7s-.2 1.5-.7 2c.3.4.5 1 .5 1.6 0 .7-.2 1.2-.7 1.8.3.4.4 1 .4 1.4l-.1 1.3a3.2 3.2 0 01-.5 1c-.5.7-1.1 1-1.8 1-.4 0-.7-.1-.8-.4.3-.6.5-1.4.5-2.5a8.2 8.2 0 00-.4-2.8 6.3 6.3 0 00-1.1-2 4.3 4.3 0 00-3.4-1.7c-.5 0-1 0-1.3.2v8.2c0 .6.1 1 .4 1.3a5 5 0 001.8 1.2c-.9.4-1.4.8-1.7 1-.3.5-.5 1-.5 1.5V33c.2.5.6.9 1 1 .4.3.9.4 1.3.4s.8 0 1-.3c.2.2.2.4.2.6 0 .3 0 .5-.2.7l-.5.5c-.6.3-1.2.5-2 .5a4 4 0 01-2-.6zm-3.6-4.5c.6-.2 1-1 1-2.3l.1-5.4a378.2 378.2 0 000-6.5c0-1.4-.2-2.2-.4-2.5l-.7-.6c0 4.1 0 6.4-.2 7-.1.5-.5.8-1.2 1 .7.2 1.1.5 1.2.9.2.5.2 2.6.2 6.2v2.2zm22.8 5c-.8 0-1.5-.1-2-.5-.7.4-1.2.5-1.8.5l-1.2-.1-.9-.3c-.5-.3-.7-.7-.7-1.2 0-.2 0-.4.2-.6.2.2.6.3 1 .3 1 0 1.7-.4 2.1-1.3v-8.7c0-.5 0-.9-.3-1.1a5.4 5.4 0 00-1.8-1.3c.8-.4 1.3-.7 1.5-1 .4-.4.6-1 .6-1.5V12c-.4-.9-1.1-1.3-2.1-1.3-.4 0-.8.1-1 .3a1 1 0 01-.2-.6c0-.2 0-.5.2-.7l.5-.5c.6-.3 1.2-.5 1.9-.5s1.3.2 2 .6a3.8 3.8 0 014.1.1c1.3-.4 2.7-.7 4.3-.7 1.3 0 2.3.2 3.1.4l1.6.4h.6c.3 0 .5-.2.5-.6l-.2-.6a7.3 7.3 0 011.3-.1c.5 0 1 .2 1.3.5.3.3.5.8.5 1.4 0 .7-.1 1.1-.3 1.4.3.5.4 1 .4 1.7a2.3 2.3 0 01-.7 1.7c.2.4.2.7.2 1a2.5 2.5 0 01-.5 1.7c-.4.3-.7.5-1 .5a3 3 0 01-1.4-.3c.2-.3.2-.7.2-1.3a6 6 0 00-1-3.4c-.8-1.3-2.1-2-3.9-2-.9 0-1.7.2-2.4.7a3.5 3.5 0 00-1.5 1.8v6.8c.4.3.8.4 1.1.4h1.4a4 4 0 001.1-.4c.5-.2.8-.8.8-1.7 0-.5-.2-.9-.4-1.2l.9-.2c.7 0 1.3.3 1.7 1l.2.7-.3 1c.5.5.8 1.2.8 2 0 .7-.3 1.3-.8 1.9.2.4.2.8.2 1l-.1 1a2 2 0 01-.5.7c-.4.3-.8.5-1.2.5-.4 0-.7-.1-1-.3.3-.4.4-.9.4-1.4 0-1.1-.3-1.8-.9-2a4.8 4.8 0 00-1.8-.4c-.6 0-1.2.2-1.6.4v8.8c.7 1.2 2 1.8 4 1.8 2.1 0 3.6-.7 4.4-2a9.6 9.6 0 001.4-5l-.1-1.3c.3-.3.6-.4.9-.4a1.5 1.5 0 011.1.5c.3.3.5.6.5 1l-.1.8.1.5c.3.3.4.5.4.7 0 .2 0 .5-.2.8l.7.7c.2.3.3.6.3 1a2.4 2.4 0 01-.8 1.7c.2.3.4.9.4 1.5 0 .7-.2 1.2-.6 1.7-.4.5-.9.7-1.5.7a5.2 5.2 0 01-1-.1V36c0-.5-.2-.8-.7-.8l-1.6.3c-1.3.6-2.8.8-4.5.8-1.6 0-3-.2-4.2-.6-.6.4-1.3.6-2.1.6zm-1.6-5c.6-.2 1-1 1-2.3v-5.4a369 369 0 000-6.5c0-1.4-.1-2.2-.4-2.5l-.6-.6c0 4.1 0 6.4-.2 7-.2.5-.6.8-1.2 1 .7.2 1.1.5 1.2.9.1.5.2 2.6.2 6.2v2.2zm4.4-.1zm24.5 4.6c-.6.4-1.2.5-2 .5s-1.4-.1-2-.5c-.6.4-1.2.5-1.7.5l-1.3-.1a3 3 0 01-.8-.3c-.5-.3-.8-.7-.8-1.2 0-.2 0-.4.2-.6.3.2.6.3 1 .3 1 0 1.8-.4 2.2-1.3v-8.7c0-.5-.1-.9-.4-1.1A5.4 5.4 0 00139 22l1.6-1c.4-.4.6-1 .6-1.5V12c-.4-.9-1.2-1.3-2.2-1.3-.4 0-.7.1-1 .3a1 1 0 01-.2-.6c0-.2 0-.5.2-.7l.6-.5a3.5 3.5 0 013.8 0c.6-.3 1.2-.5 2-.5s1.4.2 2 .6a15.6 15.6 0 018.5-.3c1 .3 2 .7 2.8 1.3a7 7 0 013 4.5c.1.9.7 1.5 1.6 2a3.7 3.7 0 00-1.8 2.4 5.5 5.5 0 01-4.3 4.4c1.2.3 2.2 1 3 2a5.8 5.8 0 011 3.5V31c0 1.7.6 2.8 1.7 3.3l1.1.2c.4 0 .7-.1 1-.3l.2.6-.2.6-.5.5c-.4.4-1 .5-1.5.5s-1-.1-1.6-.4c-1 .5-2 .6-2.8.1a2 2 0 01-1 .3 2.4 2.4 0 01-1-.2 2.4 2.4 0 01-1-.8c-.5-.8-.8-2-.8-3.7v-1.3c0-2.7-.8-4.5-2.3-5.3a3.9 3.9 0 00-1.8-.4h-2V33c.2.9.8 1.3 1.7 1.3.4 0 .8-.1 1-.3.2.2.2.4.2.8 0 .3-.2.6-.5 1-.4.3-1 .4-1.7.4s-1.4-.2-2-.5zm4.6-24.9c-2.2 0-3.4.9-3.4 2.6v7.2c0 .6.3 1 .8 1.3l2 .2a8 8 0 001.9-.1l.9-.5c.5-.5.8-1.4.8-2.6v-5c0-1.5-.6-2.5-1.9-2.9l-1-.2zm4.2 1.1c.3.9.5 2.2.5 4 0 3-.1 5-.4 5.5.6 0 1-1 1.4-2.5v-.8c.2-.7.6-1.2 1.2-1.4l-.9-.6a4.5 4.5 0 01-.4-1.2c0-.6-.2-1-.3-1.5a4 4 0 00-.3-.8c-.3-.4-.5-.6-.9-.7zm-12.3 19.3c.5-.2.9-1 1-2.3v-5.4a398.6 398.6 0 000-6.5c0-1.4-.2-2.2-.4-2.5l-.7-.6-.1 7c-.2.5-.6.8-1.2 1 .7.2 1 .5 1.2.9 0 .5.2 2.6.2 6.2v2.2zm12-4.8c.5.5.8 1.2.8 2v2.3c0 2 .4 3 1.1 3h.7a3.8 3.8 0 01-.7-2v-2.5c0-.9-.1-1.6-.4-2-.4-.6-.9-.9-1.4-.8zm18.8 9.3c-.5.4-1.2.5-2 .5s-1.4-.1-2-.5c-.6.4-1.2.5-1.7.5l-1.2-.1a3 3 0 01-.9-.3c-.5-.3-.8-.7-.8-1.2l.2-.6c.3.2.6.3 1 .3 1 0 1.8-.4 2.2-1.3v-8.7c0-.5-.1-.9-.4-1.1a5.4 5.4 0 00-1.8-1.3l1.6-1c.4-.4.6-1 .6-1.5V12c-.4-.9-1.1-1.3-2.2-1.3-.4 0-.7.1-1 .3a1 1 0 01-.2-.6l.2-.7.6-.5a3.5 3.5 0 013.8 0 3.7 3.7 0 012-.5c.7 0 1.4.2 2 .6a10 10 0 014-.7 10.8 10.8 0 016.7 2 8.9 8.9 0 013.4 5c.3.7.8 1.4 1.7 1.9-.9.5-1.5 1.3-1.8 2.3a8.2 8.2 0 01-1.5 2.8 10.8 10.8 0 01-8.4 4c-.9 0-1.9-.1-2.9-.4V33c.4.6 1 1 2 1.3h.9c.3 0 .6 0 .8-.2l.2.6c0 .2 0 .4-.3.6-.1.2-.3.4-.6.5a4.3 4.3 0 01-4.2 0zm1.3-14.1c0 .8.2 1.4.8 1.9.6.4 1.3.7 2.1.7 1.3 0 2.2-.5 2.8-1.5.2-.4.3-.8.3-1.3v-7.9c0-.8-.3-1.5-1-2a2.9 2.9 0 00-1.7-.7l-1.4.2-1 .5c-.6.5-1 1.2-1 2v8zm7.1 1.8c.3 0 .6-.4.9-1 .3-.6.5-1.3.6-2.1l.6-1.9c.2-.4.6-.7 1-.8-.7-.3-1.3-1-1.5-2.2a9.3 9.3 0 00-.7-2.5c-.3-.6-.6-.9-.9-1 .5 1 .7 2.9.7 5.7a23 23 0 01-.3 4.2l-.4 1.6zm-12 7.8c.6-.2 1-1 1-2.3l.1-5.4a369 369 0 000-6.5c0-1.4-.2-2.2-.4-2.5l-.6-.6c0 4.1-.1 6.4-.2 7-.2.5-.6.8-1.2 1 .7.2 1 .5 1.2.9.1.5.2 2.6.2 6.2v2.2zm28.7 4.5c-.6.4-1.3.5-2 .5-.8 0-1.5-.1-2-.5-.7.4-1.2.5-1.8.5l-1.2-.1a3 3 0 01-.9-.3c-.5-.3-.7-.7-.7-1.2 0-.2 0-.4.2-.6.2.2.5.3 1 .3 1 0 1.7-.4 2.1-1.3v-8.7c0-.5 0-.9-.3-1.1a5.4 5.4 0 00-1.8-1.3c.8-.4 1.3-.7 1.5-1 .4-.4.6-1 .6-1.5V12c-.4-.9-1.1-1.3-2.2-1.3-.4 0-.7.1-1 .3a1 1 0 01-.1-.6c0-.2 0-.5.2-.7l.5-.5c.6-.3 1.2-.5 1.9-.5s1.3.2 2 .6a3.7 3.7 0 012-.6c.7 0 1.4.2 2 .6a3 3 0 011.6-.6c.5 0 1 0 1.3.2l.9.3c.5.3.7.7.7 1.2 0 .2 0 .4-.2.6-.2-.2-.6-.3-1-.3-1 0-1.7.4-2.1 1.3v7.5c0 .5.1 1 .3 1.2.4.5 1 1 1.8 1.3-.8.4-1.4.7-1.6 1-.3.4-.5 1-.5 1.5V33c.4.8 1.1 1.3 2.1 1.3.4 0 .8-.1 1-.3.2.2.2.4.2.6 0 .2 0 .4-.2.6l-.5.5c-.6.4-1.2.5-1.9.5s-1.3-.2-2-.5zm-3.6-4.5c.6-.2.9-1 1-2.3v-5.4a369 369 0 000-6.5c0-1.4-.1-2.2-.4-2.5l-.6-.6c0 4.1 0 6.4-.2 7-.2.5-.6.8-1.2 1 .7.2 1 .5 1.2.9.1.5.2 2.6.2 6.2v2.2zm17.4 5c-.8 0-1.5-.1-2.1-.5-.6.4-1.2.5-1.7.5l-1.2-.1a3 3 0 01-.9-.3c-.5-.3-.7-.7-.7-1.2 0-.2 0-.4.2-.6.2.2.5.3 1 .3 1 0 1.7-.4 2.1-1.3v-8.7c0-.5-.1-.9-.3-1.1A5.4 5.4 0 00207 22c.7-.4 1.3-.7 1.5-1 .4-.4.6-1 .6-1.5V12c-.4-.9-1.1-1.3-2.2-1.3-.4 0-.7.1-1 .3a1 1 0 01-.2-.6l.2-.7.6-.5c.5-.3 1.2-.5 1.9-.5s1.3.2 1.9.6a3.8 3.8 0 014.2.1c1.3-.4 2.7-.7 4.3-.7 1.2 0 2.3.2 3.1.4l1.6.4h.5c.4 0 .5-.2.5-.6v-.6a7.3 7.3 0 011.2-.1c.5 0 .9.2 1.2.5.4.3.6.8.6 1.4 0 .7-.1 1.1-.4 1.4a3 3 0 01.5 1.7c0 .7-.2 1.3-.7 1.7.2.4.2.7.2 1a2.5 2.5 0 01-.5 1.7c-.4.3-.7.5-1 .5a3 3 0 01-1.4-.3c.2-.3.2-.7.2-1.3a6 6 0 00-1-3.4c-.8-1.3-2.1-2-3.9-2-.9 0-1.7.2-2.4.7a3.5 3.5 0 00-1.5 1.8v6.8c.4.3.8.4 1.1.4h1.4a4 4 0 001-.4c.6-.2.8-.8.8-1.7 0-.5-.1-.9-.3-1.2l.8-.2c.8 0 1.4.3 1.7 1 .2.2.2.4.2.7 0 .2 0 .6-.2 1 .5.5.7 1.2.7 2 0 .7-.2 1.3-.7 1.9.2.4.2.8.2 1 0 .4 0 .7-.2 1a2 2 0 01-.4.7c-.4.3-.8.5-1.3.5-.3 0-.6-.1-.8-.3.2-.4.3-.9.3-1.4 0-1.1-.3-1.8-.9-2a4.8 4.8 0 00-1.8-.4c-.7 0-1.2.2-1.6.4v8.8c.6 1.2 2 1.8 3.9 1.8 2.2 0 3.7-.7 4.5-2a9.7 9.7 0 001.4-5c0-.6 0-1-.2-1.3.3-.3.6-.4 1-.4a1.5 1.5 0 011.1.5c.3.3.4.6.4 1v.8l.1.5.4.7-.2.8.7.7c.2.3.3.6.3 1a2.4 2.4 0 01-.8 1.7c.2.3.3.9.3 1.5 0 .7-.2 1.2-.5 1.7-.4.5-1 .7-1.5.7a5.2 5.2 0 01-1-.1V36c0-.5-.2-.8-.7-.8-.6 0-1.1.1-1.7.3-1.3.6-2.7.8-4.4.8a12.1 12.1 0 01-4.2-.6c-.6.4-1.3.6-2.2.6zm-1.6-5c.6-.2.9-1 1-2.3v-5.4a369 369 0 000-6.5c0-1.4-.2-2.2-.4-2.5l-.6-.6c0 4.1 0 6.4-.2 7-.2.5-.6.8-1.2 1 .7.2 1 .5 1.2.9.1.5.2 2.6.2 6.2v2.2zm4.4-.1zm32.8 1.8a4.8 4.8 0 001.5-3.6c0-.7-.1-1.2-.4-1.6.2-.3.6-.5 1.2-.5s1 .2 1.3.6c.4.4.5 1 .5 1.8s-.2 1.6-.6 2.5a6.9 6.9 0 01-1.8 2.2 9.8 9.8 0 01-6.4 2.1c-3 0-5.6-1-7.6-2.9-2-2-3.2-4.7-3.6-8.4-.2-1.6-.8-2.7-1.8-3.2.6-.3 1-.5 1.2-.8.3-.5.5-1.2.6-2a14.7 14.7 0 011.7-5 11.4 11.4 0 013.9-4 11.8 11.8 0 016.1-1.6 9 9 0 015.7 1.7 7.2 7.2 0 012.6 4.2c.2 1 .5 1.5.8 1.7l.4.3a2 2 0 01-1.6 1c-.3 0-.7 0-1-.3A3.3 3.3 0 01248 19l-.5-.1a2.2 2.2 0 00.4-1.8c-.6 0-1 0-1.4-.2-.6-.3-1-.7-1-1.1l.1-.3c.7.2 1.4 0 2-.5.5-.4.7-.8.7-1.2a2.7 2.7 0 00-.3-1.2 3 3 0 00-.8-1c-.8-.6-1.8-.9-3-.9-2 0-3.4 1-4 2.8a7 7 0 00-.3 2.1v3.6c0 1.3.7 2.2 2 2.8a3.1 3.1 0 00-2 3v4.4c0 2.2 1 3.7 2.7 4.4a6.9 6.9 0 003.8 0 4.5 4.5 0 001.7-.9zm-11.9-1.7c.2 0 .3-.2.3-.3l-.4-1.2c-.6-1.5-1-4-1-7.8a21.7 21.7 0 011.2-7.7l-.3-.3a7 7 0 00-1.1 2 25 25 0 00-1 5.1c-.1.3-.5.6-1.1.9.6.3 1 .6 1 .9.4 3.6 1 6 1.6 7.3l.8 1.1zm24.8 5a3.8 3.8 0 01-2-.5c-.7.4-1.2.5-1.7.5l-1.3-.1c-.3 0-.6-.2-.8-.3-.5-.3-.8-.7-.8-1.2 0-.2 0-.4.2-.6.3.2.6.3 1 .3 1 0 1.7-.4 2.1-1.3v-8.7c0-.5 0-.9-.3-1.1a5.4 5.4 0 00-1.8-1.3c.8-.4 1.3-.7 1.5-1 .4-.4.6-1 .6-1.5V12c-.3-.9-1-1.3-2.1-1.3-.4 0-.7.1-1 .3a1 1 0 01-.2-.6c0-.2 0-.5.2-.7l.6-.5a3.5 3.5 0 013.8 0 3.8 3.8 0 014.2.2c1.2-.4 2.7-.7 4.3-.7 1.2 0 2.2.2 3 .4l1.6.4h.6c.3 0 .5-.2.5-.6l-.1-.6a7.3 7.3 0 011.2-.1c.5 0 1 .2 1.3.5.3.3.5.8.5 1.4 0 .7 0 1.1-.3 1.4a3 3 0 01.5 1.7 2.3 2.3 0 01-.7 1.7l.2 1c0 .4 0 .7-.2 1l-.4.7c-.3.3-.7.5-1 .5a3 3 0 01-1.3-.3l.2-1.3a6 6 0 00-1-3.4c-.9-1.3-2.2-2-4-2-.8 0-1.6.2-2.4.7a3.5 3.5 0 00-1.5 1.8v6.8c.4.3.8.4 1.2.4h1.3a4 4 0 001.1-.4c.5-.2.8-.8.8-1.7 0-.5-.1-.9-.4-1.2l.9-.2c.8 0 1.3.3 1.7 1l.2.7c0 .2 0 .6-.2 1 .5.5.7 1.2.7 2 0 .7-.2 1.3-.7 1.9l.2 1c0 .4 0 .7-.2 1a2 2 0 01-.5.7c-.4.3-.8.5-1.2.5l-.9-.3c.2-.4.4-.9.4-1.4 0-1.1-.3-1.8-1-2a4.8 4.8 0 00-1.7-.4c-.7 0-1.3.2-1.7.4v8.8c.7 1.2 2 1.8 4 1.8 2.2 0 3.7-.7 4.5-2a9.6 9.6 0 001.4-5l-.2-1.3c.3-.3.6-.4 1-.4a1.5 1.5 0 011 .5c.4.3.5.6.5 1l-.1.8c0 .2 0 .4.2.5l.3.7c0 .2 0 .5-.2.8l.7.7c.3.3.4.6.4 1a2.4 2.4 0 01-.9 1.7c.3.3.4.9.4 1.5 0 .7-.2 1.2-.6 1.7-.4.5-.9.7-1.5.7a5.2 5.2 0 01-1-.1V36c0-.5-.2-.8-.7-.8l-1.6.3c-1.3.6-2.8.8-4.4.8-1.7 0-3.1-.2-4.3-.6-.6.4-1.3.6-2.1.6zm-1.6-5c.6-.2 1-1 1-2.3l.1-5.4a369 369 0 000-6.5c0-1.4-.2-2.2-.4-2.5l-.7-.6c0 4.1 0 6.4-.2 7-.1.5-.5.8-1.2 1 .7.2 1.1.5 1.2.9.2.5.2 2.6.2 6.2v2.2zm4.5-.1zM109 64.2c-.3 0-.6-.1-.8-.3a1.3 1.3 0 01-1.2.2 1.2 1.2 0 01-.3-.1c-.2-.2-.3-.3-.3-.5v-.2h.5c.4 0 .7-.1.8-.4v-3.4l-.1-.5a2.1 2.1 0 00-.7-.5c.3 0 .5-.2.6-.3a.9.9 0 00.2-.6v-3c-.1-.3-.4-.4-.8-.4a.6.6 0 00-.4 0 .4.4 0 010-.2v-.2a.7.7 0 01.2-.2 1.4 1.4 0 011.5 0 1.5 1.5 0 011.6 0 4.8 4.8 0 011.7-.2l1.2.1.6.2h.2c.1 0 .2 0 .2-.2a1 1 0 000-.3h.4c.2 0 .4 0 .5.2l.2.5v.6l.1.6a.9.9 0 01-.3.7 1 1 0 010 .8l-.1.2c-.1.2-.3.2-.4.2h-.5v-.6c0-.5 0-1-.3-1.3a1.7 1.7 0 00-1.5-.8c-.4 0-.7.1-1 .3-.3.1-.5.4-.6.7v2.6l.5.2a5.3 5.3 0 00.5 0l.4-.1c.2-.1.3-.4.3-.7l-.1-.5h.3c.3 0 .6 0 .7.3v.7c.2.2.3.4.3.7 0 .3-.1.6-.3.8v.4a.9.9 0 01-.2.6.7.7 0 01-.5.2.6.6 0 01-.3 0l.1-.6c0-.5 0-.7-.3-.8l-.7-.1-.7.1v3.4c.3.5.8.7 1.6.7s1.4-.2 1.7-.8c.4-.6.6-1.2.6-2l-.1-.4.4-.2a.6.6 0 01.4.2l.2.4v.5l.1.3v.3l.2.3.2.3c0 .3-.2.5-.4.7l.2.6c0 .3-.1.5-.3.7a.7.7 0 01-.5.3h-.4V64c0-.2-.1-.3-.3-.3l-.6.1c-.5.2-1.1.3-1.8.3a4.7 4.7 0 01-1.6-.2c-.2.2-.5.2-.8.2zm-.6-2c.2-.1.3-.4.3-1v-2a158.6 158.6 0 000-2.6v-1a.7.7 0 00-.3-.1 22 22 0 01-.1 2.7c0 .1-.2.3-.5.4.3 0 .4.2.5.3v3.3zm1.7 0zm8 1.5c-.3.4-.6.6-1 .6l-.4-.2.2-.6v-.2a1 1 0 01-.4-.7c0-.3.1-.6.4-.9a1 1 0 01-.1-.5 1.5 1.5 0 01.3-.9l.5-.3c.2 0 .4 0 .4.2l-.2.8.1 1a2.1 2.1 0 002.1 1.3c.4 0 .8-.1 1.1-.4.4-.3.5-.6.5-1s0-.7-.2-.9a5 5 0 00-1.1-1c-.4-.3-.8-.4-1-.4-.2 0-.5 0-.8.3l.1-.7-.1-.1-.3-.3a4.3 4.3 0 01-1.4-2V56a2.6 2.6 0 01.9-2 4.1 4.1 0 013.8-.5c.1.2.3.2.6.2h.3a.3.3 0 00.2-.1.4.4 0 000-.3v-.1a.3.3 0 01.2 0h.2a.6.6 0 01.2.2l.1.5-.1.4.2.7c0 .2 0 .5-.3.7v.3a.8.8 0 01-.1.5c-.1.2-.3.2-.4.2a1 1 0 01-.5 0l.2-.7a1.7 1.7 0 00-.6-1.2 2 2 0 00-1.4-.5l-.9.3a1 1 0 00-.3.8c0 .2 0 .4.2.6l.9.8.3.2.4.2h.2a2.1 2.1 0 00.7-.3l-.1.3v.6a8.2 8.2 0 011.8 1.8 3.1 3.1 0 01.1 2.7l-.7 1c-.7.6-1.6 1-2.7 1-.8 0-1.5-.2-2-.6zm-.4-8.2c-.2 0-.3.2-.3.5 0 .6.5 1.3 1.3 2l.4.4.2.3a1.7 1.7 0 010 .3 1 1 0 00-.1.1l.4-.1.5.1a6.6 6.6 0 011.8 1.5c.3.3.4.7.4 1.2v.4c.2-.2.3-.4.3-.7a1.7 1.7 0 00-.4-1.3 7.7 7.7 0 00-1.2-1l-1-.6a6.7 6.7 0 01-1.8-1.7c-.3-.5-.5-1-.5-1.4zm12.6 8.4a1.5 1.5 0 01-1.6 0 1.4 1.4 0 01-1.2.2 1.2 1.2 0 01-.3-.1c-.2-.2-.3-.3-.3-.5v-.2h1l.4-.5v-3.3l-.2-.5a2.1 2.1 0 00-.7-.5c.3 0 .5-.2.6-.3a.9.9 0 00.3-.6v-3.2a1.5 1.5 0 00-1.2 0l-.7.6c-.4.4-.6 1-.6 1.8 0 .5.1.8.3 1l-.3.2a.8.8 0 01-.4-.1 1.3 1.3 0 01-.6-1l.1-.8a1 1 0 01-.2-.7c0-.2 0-.4.2-.6-.2-.2-.3-.5-.3-.8 0-.4.2-.7.5-.8h.7a1 1 0 000 .3l.1.2h.5a5.4 5.4 0 011.4-.3c.3 0 .6 0 1 .2a1.5 1.5 0 011.5 0l.8-.2 1.2.1.6.2h.2c.1 0 .2 0 .2-.2a1 1 0 000-.3H134s.2 0 .3.2l.2.7c0 .2 0 .5-.3.7.2.2.2.4.2.6l-.2.7.1.6v.5l-.2.4a.8.8 0 01-.7.4c-.2 0-.3 0-.3-.2l.2-1a3 3 0 00-.6-1.8 1.7 1.7 0 00-1.8-.6v3.2l.1.5.7.4-.6.4a.9.9 0 00-.2.6v3.3c0 .2.2.4.3.4l.6.2.4-.1a.4.4 0 010 .4.6.6 0 01-.3.2 1.6 1.6 0 01-1.5 0zm-1.4-1.7c.2 0 .4-.4.4-.9a137 137 0 000-4.6c0-.6 0-.9-.2-1a.7.7 0 00-.2-.2v2.7l-.5.4c.2 0 .4.2.4.3l.1 2.4v.9zm6.3.7l.5-.4.1-.3.5-.4c.2-.2.5-.2.7-.2.5 0 .9.2 1.1.6.2.4.4.6.7.7a4.7 4.7 0 01-.4.2l-.3.4-.5.5-.6.2c-.2 0-.5 0-.7-.2l-.5-.5a1.1 1.1 0 00-.6-.6zm1.5.4a.8.8 0 010-.2v-.3c0-.1 0-.4.2-.7h-.3a.6.6 0 00-.2.2l-.1.2-.1.2a.7.7 0 01-.2.2l.2.2.2.3a.6.6 0 00.5.2 9.9 9.9 0 00-.2-.3zm5 .6c-.3.3-.6.4-.8.4-.2 0-.4 0-.5-.2a.6.6 0 01-.1-.4.8.8 0 00.2-.2 3 3 0 01.5-2.7 7.1 7.1 0 012-1.6 3.8 3.8 0 001.2-1.1c.3-.5.4-1 .4-1.8 0-1.3-.5-2-1.4-2-.4 0-.8.2-1.1.5-.4.4-.5.8-.5 1.4 0 .6 0 1 .3 1.3a.5.5 0 01-.3.2 1.1 1.1 0 01-.7-.3 1 1 0 01-.3-.7V56a.7.7 0 01-.3-.6c0-.3 0-.5.3-.7a.9.9 0 01-.2-.5v-.4l.2-.3a.8.8 0 011-.2.5.5 0 00-.2.3c0 .1.1.2.3.2l.5-.2 1.5-.2 1.3.1a3 3 0 012.2 1.8c.1.4.4.6.6.8-.2.1-.5.4-.6.9a4.5 4.5 0 01-1.7 2 9 9 0 01-1 .6 15.5 15.5 0 00-2 1.2 2 2 0 00-.8 1 11.7 11.7 0 004.2 0 .8.8 0 00.5-.8.7.7 0 00-.1-.4H147l.2.2c.2.2.3.4.3.7 0 .3-.1.5-.4.8.2 0 .3.2.3.4s0 .4-.2.5a.6.6 0 010 .6.5.5 0 01-.1.2.9.9 0 01-.5.2l-.6-.2a13.7 13.7 0 01-4.3 0zm3-9.5c.4.4.5 1 .5 1.8l-.2 1.6c.2 0 .4-.2.5-.5a13.8 13.8 0 00.2-.7.6.6 0 01.4-.5c-.2 0-.3-.1-.3-.2a.9.9 0 01-.1-.2v-.2l-.7-1a.7.7 0 00-.3 0zm1.4 8.1a6.1 6.1 0 01-2.3.3 6 6 0 01-2.2-.2l.1.2.3.2a8.2 8.2 0 001.6.1 24.8 24.8 0 001.6 0c.5 0 .8-.2.9-.3a.4.4 0 000-.3zm7.1 1.6c-2.4 0-3.7-1.4-4-4.4-.1-.6-.3-1-.7-1.1.4-.2.6-.6.7-1.2 0-.6.2-1.1.4-1.6a3.7 3.7 0 013.6-2.4c1.2 0 2 .3 2.8 1a5 5 0 011.2 3c0 .6.3 1 .7 1.2-.4.2-.6.6-.7 1.2a7 7 0 01-.4 1.8c-.2.6-.5 1-.9 1.4a3.5 3.5 0 01-2.7 1.2zm0-.9c.8 0 1.1-.5 1.1-1.4v-6c0-.7-.2-1.1-.6-1.4a1 1 0 00-.5 0 1 1 0 00-.9.3c-.2.3-.3.6-.3 1.1v6c0 .4.1.8.3 1 .2.3.5.4 1 .4zm2.2-4.2c0-.2.2-.4.5-.5-.3-.1-.5-.3-.5-.7v-.5c0-1.1-.1-1.7-.4-1.8v6.7c.2 0 .3-.4.4-.9V59zm-4.7 3.2l.1-.2a8.5 8.5 0 01-.5-3.5 8.3 8.3 0 01.4-3c-.3.2-.4.5-.5.8a9.7 9.7 0 00-.4 2l-.4.3c.2 0 .4.2.4.3a9.1 9.1 0 00.6 2.8l.3.5zm9.8 1.7c-.2.3-.5.4-.7.4-.2 0-.4 0-.5-.2a.6.6 0 01-.1-.4l.2-.2a3 3 0 01.5-2.7c.4-.5 1-1 2-1.6a3.8 3.8 0 001.2-1.1c.3-.5.4-1 .4-1.8 0-1.3-.5-2-1.4-2-.4 0-.8.2-1.1.5-.4.4-.6.8-.6 1.4 0 .6.2 1 .4 1.3a.5.5 0 01-.3.2 1 1 0 01-.7-.3 1 1 0 01-.3-.7V56l-.3-.6c0-.3 0-.5.3-.7a.9.9 0 01-.3-.5l.1-.4a1 1 0 01.2-.3.8.8 0 011-.2.5.5 0 00-.2.3l.2.2.6-.2 1.5-.2 1.3.1a3 3 0 012.2 1.8c.1.4.4.6.6.8-.2.1-.5.4-.6.9a4.5 4.5 0 01-1.7 2 8 8 0 01-1 .6 13.8 13.8 0 00-2 1.2 2 2 0 00-.8 1 11.7 11.7 0 004.2 0 .8.8 0 00.5-.8.7.7 0 00-.1-.4h.2a.7.7 0 01.3 0l.3.2a1 1 0 010 1.5l.2.4c0 .2 0 .4-.2.5a.6.6 0 010 .6.6.6 0 01-.1.2.9.9 0 01-.5.2l-.6-.2a15 15 0 01-2 .2c-.8 0-1.5-.1-2.3-.3zm3.1-9.5c.3.4.5 1 .5 1.8l-.2 1.6c.2 0 .4-.2.5-.5v-.4l.2-.4a.7.7 0 010-.2l.4-.2c-.2 0-.3-.1-.3-.2a.8.8 0 01-.1-.2l-.1-.2c-.1-.4-.3-.7-.6-1a.7.7 0 00-.3 0zm1.4 8.1a6.1 6.1 0 01-2.3.3 6 6 0 01-2.2-.2l.1.2.3.2a8.2 8.2 0 001.6.1 24.8 24.8 0 001.6 0c.5 0 .8-.2.9-.3a.4.4 0 000-.3zm6.3 1.4a1.5 1.5 0 01-1.6 0 1.3 1.3 0 01-1.1.2 1.2 1.2 0 01-.4-.1c-.2-.2-.3-.3-.3-.5l.1-.2h.4c.4 0 .7 0 .8-.4v-3.4l-.1-.4a2.1 2.1 0 00-.7-.5l.6-.4a.9.9 0 00.2-.6V56c0-.4 0-.6-.3-.6s-.5.1-.7.3v-.2-.4s0-.2.2-.3a1.7 1.7 0 011.3-.8h.4c.3-.4.7-.7 1-.7l.5.1c.2.1.3.3.3.6v.7a13.9 13.9 0 00-.1.7v2.6l.8.4-.6.4a.9.9 0 00-.2.6V63c.1.3.4.5.8.5a.6.6 0 00.4-.1.4.4 0 010 .4.6.6 0 01-.2.2 1.4 1.4 0 01-1.5 0zm-1.4-1.7c.2 0 .3-.4.4-.9a126.8 126.8 0 000-4.8v-.3l-.4-.5V58l-.1.3c0 .2-.2.3-.5.4.3 0 .5.2.5.3v3.3z"/></svg>