<svg xmlns="http://www.w3.org/2000/svg" width="88" height="106" fill="none">
  <g fill="#000" opacity=".9">
    <path d="M87.3 91.9l-11-14.3a16 16 0 008.7-6.4c2.6-4.5 1.4-10 .3-15.4-.7-2.7-1.1-5.5-1.3-8.3.2-2.8.6-5.6 1.3-8.3 1.1-5.3 2.3-10.8-.3-15.3-2.7-4.7-8.2-6.4-13.4-8a39 39 0 01-7.6-3 37 37 0 01-6-5C54 4.3 49.6.2 44 .2S34 4.3 30 8a37 37 0 01-6 5 39 39 0 01-7.5 3c-5.3 1.6-10.7 3.3-13.4 8-2.6 4.5-1.5 10-.3 15.3.7 2.7 1 5.5 1.2 8.3-.1 2.8-.5 5.6-1.2 8.4C1.6 61.2.5 66.7 3 71.2a16 16 0 008.7 6.4L.8 92a1.8 1.8 0 001.6 2.9l13-1.6 3.2 11.2a1.8 1.8 0 003.2.6l11.6-15C36.3 93 40 94.6 44 94.9c4-.3 7.8-2 10.6-4.7l11.6 15a1.8 1.8 0 003.2-.7l3.2-11.2 13 1.6a1.8 1.8 0 001.7-3zm-66.2 8l-2.6-9.2c-.3-.9-1.1-1.5-2-1.3L6.3 90.6 15.5 79l1 .3a39 39 0 017.5 3 37 37 0 016 4.9l.7.6-9.6 12.3zm23-8.7c-4.3 0-7.8-3.3-11.6-6.8a40 40 0 00-6.7-5.4 42.2 42.2 0 00-8.2-3.2c-4.9-1.6-9.4-3-11.4-6.5-1.9-3.3-1-7.8.1-12.7.8-3 1.2-6 1.3-9 0-3.2-.5-6.2-1.3-9.2-1-4.8-2-9.4 0-12.7 2-3.5 6.4-4.9 11.3-6.4 2.8-.8 5.6-2 8.2-3.3a40 40 0 006.7-5.4C36.3 7.1 39.8 4 44 4s7.8 3.2 11.5 6.7c2 2 4.3 3.9 6.7 5.4 2.6 1.4 5.4 2.5 8.3 3.3 4.8 1.5 9.3 3 11.3 6.4 2 3.3 1 7.9 0 12.7-.8 3-1.3 6-1.4 9.1.1 3 .6 6.1 1.3 9.1 1 4.9 2 9.4.1 12.7-2 3.5-6.5 5-11.3 6.5-2.9.7-5.7 1.8-8.3 3.2a40 40 0 00-6.7 5.4c-3.7 3.5-7.3 6.8-11.5 6.8zm27.4-1.8c-.9-.2-1.7.4-2 1.3L67 100l-9.6-12.3.7-.6a37 37 0 016-5 39 39 0 017.6-2.9l1-.3 9.1 11.7-10.2-1.2z"/>
    <path d="M44 14.8a32.7 32.7 0 100 65.5 32.7 32.7 0 000-65.5zm0 61.8a29.1 29.1 0 110-58.2 29.1 29.1 0 010 58.2z"/>
    <path d="M65 40c-.7-1-1.8-1.6-3-1.6H51l-3.5-10.6a3.6 3.6 0 00-7 0l-3.4 10.6H26a3.6 3.6 0 00-2.2 6.6l9 6.5-3.4 10.6a3.6 3.6 0 005.6 4.1l9-6.5 9 6.5c1.3 1 3 1 4.3 0 1.3-.9 1.8-2.6 1.3-4l-3.4-10.7 9-6.5c1.6-1.2 2-3.5.8-5zm-13 9.4c-.7.4-1 1.3-.7 2l3.9 11.9L45 55.9c-.6-.4-1.5-.4-2.1 0l-10.1 7.4 3.8-11.9c.3-.7 0-1.6-.6-2L26 42h12.4c.8 0 1.5-.5 1.8-1.3L44 28.9 48 40.8c.2.8 1 1.3 1.7 1.3h12.5L52 49.4z"/>
  </g>
</svg>
