<svg xmlns="http://www.w3.org/2000/svg" width="95" height="95" fill="none" viewBox="0 0 114 114">
  <g fill="#000" clip-path="url(#clip0)">
    <path d="M108.54 61.73h-4.28V22.1c0-6.36-5.17-11.53-11.52-11.53h-2.32c-1.44-4.07-7.29-6.8-8.04-7.13a1.82 1.82 0 00-1.48 0c-.75.33-6.6 3.06-8.04 7.13h-3.83C67.46 4.77 58.82.74 57.74.26a1.82 1.82 0 00-1.48 0c-1.08.48-9.72 4.51-11.3 10.31h-3.82c-1.44-4.07-7.29-6.8-8.04-7.13a1.82 1.82 0 00-1.49 0c-.74.33-6.6 3.06-8.03 7.13h-2.32A11.53 11.53 0 009.74 22.1v39.63H5.46a5.46 5.46 0 000 10.91h33a9.11 9.11 0 008.9 7.28h3.22v8.88a13.87 13.87 0 00-7.4 10.55h-6.25a9.95 9.95 0 00-8.48 5.51l-2.4 5.4h-3.67a1.82 1.82 0 100 3.64h69.24a1.82 1.82 0 100-3.64h-3.67l-2.4-5.4a9.95 9.95 0 00-8.48-5.51H70.8a13.87 13.87 0 00-7.39-10.55v-8.88h3.21c4.4 0 8.07-3.13 8.91-7.28h33a5.46 5.46 0 000-10.91zM81.64 7.12c1.65.84 3.56 2.15 4.63 3.45h-9.26a15.83 15.83 0 014.63-3.45zM57 3.93c2.36 1.18 6.7 3.83 8.15 6.64h-16.3c1.45-2.8 5.79-5.45 8.15-6.64zM32.36 7.12c1.64.84 3.56 2.15 4.63 3.45h-9.26a15.84 15.84 0 014.63-3.45zm-11.1 7.1h71.48a7.9 7.9 0 017.88 7.88v5.57c-3.29.45-5.2 2.05-6.93 3.5-1.83 1.54-3.28 2.76-6.4 2.76-3.12 0-4.57-1.22-6.4-2.76-2.01-1.7-4.3-3.62-8.75-3.62s-6.73 1.92-8.74 3.62c-1.83 1.54-3.28 2.76-6.4 2.76-3.13 0-4.57-1.22-6.4-2.76-2.02-1.7-4.3-3.62-8.75-3.62s-6.73 1.92-8.74 3.62c-1.08.9-2.1 1.76-3.41 2.26-.7.27-1.17.94-1.17 1.7v10.01a1.82 1.82 0 01-3.64 0v-9.98a1.82 1.82 0 00-1.18-1.73c-1.31-.5-2.33-1.36-3.4-2.26-1.72-1.45-3.64-3.05-6.93-3.5V22.1a7.9 7.9 0 017.88-7.89zm-7.88 17.14c1.95.38 3.15 1.38 4.58 2.59.94.8 1.98 1.66 3.29 2.35v8.84a5.46 5.46 0 0010.91 0V36.3c1.32-.69 2.35-1.56 3.3-2.35 1.82-1.54 3.27-2.76 6.4-2.76 3.11 0 4.56 1.22 6.4 2.76 2 1.7 4.29 3.62 8.74 3.62s6.73-1.92 8.74-3.62c1.83-1.54 3.28-2.76 6.4-2.76 3.13 0 4.57 1.22 6.4 2.76 2.02 1.7 4.3 3.62 8.75 3.62s6.73-1.92 8.75-3.62c1.43-1.2 2.63-2.21 4.58-2.6v30.38H13.38V31.36zm47.53 60.29a10.26 10.26 0 016.22 7.7H57.02a1.82 1.82 0 000 3.64h20.05a6.32 6.32 0 015.16 3.35l1.74 3.92H30.03l1.75-3.92a6.32 6.32 0 015.15-3.35h12.8a1.82 1.82 0 000-3.64h-2.86c.6-3.43 2.91-6.34 6.22-7.7a1.82 1.82 0 001.12-1.69V79.92h5.58v10.04c0 .74.44 1.4 1.12 1.69zm5.72-15.37H47.37a5.47 5.47 0 01-5.15-3.64h29.56a5.47 5.47 0 01-5.15 3.64zM108.54 69H5.46a1.82 1.82 0 010-3.64h103.08a1.82 1.82 0 010 3.64z"/>
    <path d="M82.03 55.95a1.82 1.82 0 100-3.64 1.82 1.82 0 000 3.64zM89.3 48.67a1.82 1.82 0 100-3.64 1.82 1.82 0 000 3.64z"/>
  </g>
  <defs>
    <clipPath id="clip0">
      <path fill="#fff" d="M0 0h114v114H0z"/>
    </clipPath>
  </defs>
</svg>
