<svg xmlns="http://www.w3.org/2000/svg" width="98" height="98" fill="none">
  <path fill="#000" d="M83.65 14.35A48.68 48.68 0 0049 0C35.91 0 23.6 5.1 14.35 14.35A48.68 48.68 0 000 49c0 13.09 5.1 25.4 14.35 34.65A48.68 48.68 0 0049 98c13.09 0 25.4-5.1 34.65-14.35A48.68 48.68 0 0098 49c0-13.09-5.1-25.4-14.35-34.65zm-2.17 67.13A45.64 45.64 0 0149 94.94a45.64 45.64 0 01-32.48-13.46A45.64 45.64 0 013.06 49c0-12.27 4.78-23.8 13.46-32.48A45.64 45.64 0 0149 3.06c12.27 0 23.8 4.78 32.48 13.46A45.64 45.64 0 0194.94 49c0 12.27-4.78 23.8-13.46 32.48z"/>
  <path fill="#000" d="M9.19 49A39.86 39.86 0 0149 9.19c7.92 0 15.57 2.32 22.12 6.7a1.53 1.53 0 101.7-2.54A42.67 42.67 0 0049 6.13a42.6 42.6 0 00-30.32 12.55A42.6 42.6 0 006.13 49a42.8 42.8 0 0010.91 28.58 1.53 1.53 0 002.16.12c.63-.56.69-1.53.12-2.16A39.74 39.74 0 019.2 49zM84.65 25.18a1.53 1.53 0 00-2.54 1.7A39.62 39.62 0 0188.8 49 39.86 39.86 0 0149 88.81a39.9 39.9 0 01-25.07-8.88A1.53 1.53 0 1022 82.31a42.97 42.97 0 0027 9.56 42.6 42.6 0 0030.32-12.55A42.6 42.6 0 0091.88 49c0-8.53-2.5-16.76-7.23-23.82zM75.54 19.32c1.03.92 2.02 1.91 2.95 2.93a1.53 1.53 0 002.16.1c.63-.56.68-1.53.1-2.15-.99-1.1-2.06-2.17-3.17-3.16a1.53 1.53 0 00-2.04 2.28z"/>
  <path fill="#000" d="M49 19.9c.85 0 1.53-.68 1.53-1.52v-4.6a1.53 1.53 0 00-3.06 0v4.6c0 .84.68 1.53 1.53 1.53zM47.47 79.63v4.59a1.53 1.53 0 003.06 0v-4.6a1.53 1.53 0 00-3.06 0zM19.9 49c0-.85-.68-1.53-1.52-1.53h-4.6a1.53 1.53 0 000 3.06h4.6c.84 0 1.53-.68 1.53-1.53zM78.1 49c0 .85.68 1.53 1.53 1.53h4.59a1.53 1.53 0 100-3.06h-4.6c-.84 0-1.53.68-1.53 1.53zM35.01 21.71l-2.3-3.98a1.53 1.53 0 00-2.65 1.54l2.3 3.97a1.53 1.53 0 102.65-1.53zM65.64 74.76a1.53 1.53 0 00-2.65 1.53l2.3 3.98a1.53 1.53 0 102.65-1.54l-2.3-3.97zM18.5 68.14c.26 0 .52-.07.77-.2l3.97-2.3a1.53 1.53 0 00-1.53-2.65l-3.98 2.3a1.53 1.53 0 00.77 2.85zM75.52 35.22c.26 0 .53-.07.77-.2l3.98-2.3a1.53 1.53 0 00-1.54-2.66l-3.97 2.3a1.53 1.53 0 00.76 2.86zM67.38 17.17a1.53 1.53 0 00-2.1.56l-2.3 3.98a1.53 1.53 0 002.66 1.53l2.3-3.97c.42-.74.17-1.67-.56-2.1zM34.45 74.2a1.53 1.53 0 00-2.09.56l-2.3 3.97a1.53 1.53 0 102.66 1.54l2.3-3.98c.42-.73.17-1.67-.57-2.1zM74.76 65.64l3.97 2.3a1.52 1.52 0 002.1-.56c.42-.74.17-1.67-.56-2.1l-3.98-2.3a1.53 1.53 0 00-1.53 2.66zM23.24 32.36l-3.97-2.3a1.53 1.53 0 10-1.54 2.66l3.98 2.3a1.52 1.52 0 002.1-.57c.42-.73.17-1.67-.57-2.09zM59.66 69a1.53 1.53 0 001.32-2.3L52.5 51.98a4.57 4.57 0 00-1.96-7.31V24.5a1.53 1.53 0 00-3.06 0v20.17a4.6 4.6 0 002.37 8.85l8.5 14.7c.28.5.8.77 1.32.77zm-12.2-20a1.53 1.53 0 113.07 0 1.53 1.53 0 01-3.06 0z"/>
</svg>
