<svg xmlns="http://www.w3.org/2000/svg" width="37" height="36" fill="none">
  <g clip-path="url(#clip0)">
    <path fill="#000" d="M20.99 35.93h-5.8c-.97 0-1.75-.78-1.75-1.75v-13h-3.39c-.96 0-1.75-.78-1.75-1.75v-5.57c0-.96.79-1.74 1.75-1.74h3.39v-2.8c0-2.76.87-5.12 2.52-6.8a9.13 9.13 0 016.71-2.59h4.42c.97 0 1.76.8 1.76 1.75v5.18c0 .96-.8 1.74-1.76 1.74h-2.98c-.9 0-1.14.18-1.19.24-.08.1-.17.35-.17 1.07v2.2h4.12a1.75 1.75 0 011.77 1.75v5.57c0 .97-.8 1.75-1.76 1.75h-4.13v13c0 .97-.8 1.75-1.76 1.75zm-5.43-2.11h5.06V20.24c0-.65.53-1.17 1.18-1.17h4.71v-4.84H21.8c-.65 0-1.18-.53-1.18-1.17V9.91c0-.82.09-1.76.71-2.47.76-.85 1.95-.95 2.78-.95h2.61V2.05l-4.05-.01c-4.39 0-7.11 2.8-7.11 7.29v3.73c0 .64-.53 1.17-1.17 1.17h-3.97v4.84h3.97c.64 0 1.17.52 1.17 1.17v13.58zM27.09 2.05z"/>
  </g>
  <defs>
    <clipPath id="clip0">
      <path fill="#fff" d="M0 0h36.13v36H0z" transform="translate(.48)"/>
    </clipPath>
  </defs>
</svg>
