<svg xmlns="http://www.w3.org/2000/svg" width="37" height="36" fill="none">
  <g fill="#000" clip-path="url(#clip0)">
    <path d="M25.9 0H10.78C4.97 0 .27 4.7.27 10.46v15.08C.27 31.31 4.97 36 10.77 36H25.9c5.78 0 10.5-4.7 10.5-10.46V10.46C36.4 4.69 31.68 0 25.9 0zm7.68 25.54a7.67 7.67 0 01-7.67 7.65H10.77a7.67 7.67 0 01-7.68-7.65V10.46a7.67 7.67 0 017.68-7.65H25.9a7.67 7.67 0 017.67 7.65v15.08z"/>
    <path d="M18.34 8.3A9.73 9.73 0 008.6 18a9.73 9.73 0 0019.47 0c0-5.35-4.36-9.7-9.73-9.7zm0 16.6a6.91 6.91 0 01-6.92-6.9 6.91 6.91 0 0113.83 0c0 3.8-3.1 6.9-6.91 6.9zM28.22 9.56a1.4 1.4 0 100-2.82 1.4 1.4 0 000 2.82z"/>
  </g>
  <defs>
    <clipPath id="clip0">
      <path fill="#fff" d="M0 0h36.13v36H0z" transform="translate(.27)"/>
    </clipPath>
  </defs>
</svg>
