<svg width="27" height="27" viewBox="0 0 27 27" fill="none" xmlns="http://www.w3.org/2000/svg">
<path d="M9.19719 19.4885C7.48725 19.4885 6.1012 20.9586 6.1012 22.7722C6.1012 24.5856 7.48725 26.0557 9.19719 26.0557C10.9069 26.0557 12.293 24.5856 12.293 22.7722C12.2912 20.9596 10.9062 19.4904 9.19719 19.4885V19.4885ZM9.19719 24.8485C8.11591 24.8485 7.23938 23.9188 7.23938 22.7722C7.23938 21.6254 8.11591 20.6957 9.19719 20.6957C10.2782 20.6957 11.1548 21.6254 11.1548 22.7722C11.1548 23.9188 10.2782 24.8485 9.19719 24.8485V24.8485Z" fill="white"/>
<path d="M26.0716 5.70873H5.9759L5.56618 3.2762C5.31364 1.77877 4.20697 0.607425 2.79462 0.342646L1.30913 0.0651343C0.999451 0.00666127 0.703998 0.225699 0.648865 0.553903C0.593953 0.882342 0.800259 1.19569 1.10994 1.25416L2.60099 1.53168C3.54181 1.70851 4.27833 2.48964 4.44506 3.48746L6.45966 15.5412C6.69753 16.9834 7.87912 18.0355 9.25968 18.034H21.2112C22.4668 18.0381 23.5757 17.1664 23.9374 15.8913L26.6122 6.48727C26.6618 6.30383 26.6305 6.10625 26.5269 5.95016C26.4186 5.79903 26.2503 5.70991 26.0716 5.70873V5.70873ZM22.8503 15.535C22.6355 16.3008 21.9701 16.8247 21.2169 16.8207H9.26546C8.43645 16.8231 7.72683 16.1905 7.58656 15.3238L6.18088 6.90978H25.3088L22.8503 15.535Z" fill="white"/>
<path d="M21.1489 19.4885C19.4389 19.4885 18.0527 20.9586 18.0527 22.7722C18.0527 24.5856 19.4389 26.0557 21.1489 26.0557C22.8587 26.0557 24.2449 24.5856 24.2449 22.7722C24.2431 20.9596 22.8581 19.4904 21.1489 19.4885V19.4885ZM21.1489 24.8485C20.0676 24.8485 19.191 23.9188 19.191 22.7722C19.191 21.6254 20.0676 20.6957 21.1489 20.6957C22.23 20.6957 23.1066 21.6254 23.1066 22.7722C23.1066 23.9188 22.23 24.8485 21.1489 24.8485V24.8485Z" fill="white"/>
</svg>
