<svg xmlns="http://www.w3.org/2000/svg" width="37" height="36" fill="none">
  <g clip-path="url(#clip0)">
    <path fill="#000" d="M35.6 3.6c-.4-.6-1-.9-1.8-.9-.5 0-.9.1-1.3.3L1.9 14.6c-1.7.6-1.9 1.6-1.9 2 0 .6.3 1.5 2 2l6.4 1.8 3.4 9.8c.5 1.3 1.5 2.2 2.7 2.2.8 0 1.6-.4 2.2-1l4-3.6 5.6 4.6h.1c.6.5 1.3.8 2 .8 1.3 0 2.4-1 2.7-2.5l5-24.6c.2-1 0-2-.5-2.5zM10.5 20l12.2-6.2-7.6 8a1 1 0 00-.3.5l-1.4 6-3-8.3zm4.8 9.8l-.2.1 1.4-5.5 2.5 2-3.7 3.4zM34 5.7l-5 24.6c0 .2-.2.8-.6.8l-.7-.3-6.4-5.2-3.9-3 11-11.7a1 1 0 00-1.3-1.7l-18 9.2-6.5-1.8L33.2 5l.6-.1h.2s.1.3 0 .8z"/>
  </g>
  <defs>
    <clipPath id="clip0">
      <path fill="#fff" d="M0 0h36.1v36H0z"/>
    </clipPath>
  </defs>
</svg>
