<svg xmlns="http://www.w3.org/2000/svg"><symbol id="icon-1" viewBox="0 0 320 370">
<g fill="#63d1bb" stroke="none">
 <path d="M72 350 c-39 -24 -72 -75 -72 -112 0 -24 4 -28 28 -28 36 0 89 34 110 70 9 16 19 30 22 30 3 0 13 -14 22 -30 21 -36 74 -70 111 -70 23 0 27 4 27 28 0 37 -33 88 -72 112 -45 27 -131 27 -176 0z"/>
 <path d="M118 230 c-7 -11 -22 -20 -33 -20 -39 0 -61 -50 -34 -77 8 -8 8 -13 0 -17 -20 -13 -12 -55 14 -72 14 -9 28 -14 32 -10 3 3 12 -3 20 -14 19 -26 67 -26 86 0 8 11 17 17 20 14 4 -4 18 1 32 10 26 17 33 54 14 73 -8 8 -8 13 0 17 15 9 14 49 -1 64 -7 7 -21 12 -33 12 -11 0 -26 9 -33 20 -8 13 -23 20 -42 20 -19 0 -34 -7 -42 -20z m73 -86 c17 -21 0 -49 -31 -49 -31 0 -48 28 -31 49 8 9 21 16 31 16 10 0 23 -7 31 -16z"/>
 </g>
</symbol><symbol id="icon-2" viewBox="0 0 350 340">
    <g fill="#63d1bb" stroke="none">
        <path d="M103 333 c-21 -8 -15 -19 28 -49 36 -25 43 -26 62 -14 22 13 22 12 4 -7 -17 -19 -17 -21 -1 -27 10 -4 29 3 48 17 38 29 56 40 56 34 0 -2 -18 -17 -40 -32 -24 -17 -39 -34 -36 -42 3 -7 -28 12 -69 43 -49 37 -80 54 -91 50 -15 -6 -15 -8 2 -28 19 -21 19 -21 -3 -7 -17 10 -25 11 -34 2 -8 -8 21 -35 110 -102 67 -51 121 -94 121 -97 0 -2 -54 36 -120 86 -65 49 -121 90 -124 90 -2 0 -6 -6 -9 -14 -4 -9 14 -30 50 -56 l55 -42 -30 -15 c-17 -8 -38 -23 -48 -34 -15 -17 -15 -19 0 -25 9 -3 24 0 34 7 14 11 14 10 -2 -8 -17 -21 -17 -23 -2 -29 15 -6 86 38 94 58 2 4 28 -11 58 -34 40 -30 58 -38 66 -30 8 8 7 16 -3 29 -13 16 -12 17 3 5 17 -13 38 -9 38 7 0 5 -43 41 -95 80 -52 39 -95 74 -95 77 0 2 45 -29 100 -71 79 -59 102 -73 106 -60 4 8 1 22 -6 30 -11 13 -10 14 4 9 13 -5 16 1 16 36 l0 42 -27 -16 -28 -17 27 23 c19 16 25 27 19 37 -5 8 -14 10 -22 6 -11 -6 -12 -5 -2 6 11 10 8 18 -14 41 l-26 27 -31 -20 -31 -21 24 22 c21 18 22 23 10 31 -15 9 -125 11 -146 2z m180 -112 c-25 -21 -30 -41 -10 -41 7 0 18 -9 25 -21 11 -18 7 -16 -23 7 l-37 28 28 23 c35 27 49 30 17 4z m-142 -108 c7 -10 9 -15 4 -10 -4 4 -19 0 -33 -9 l-25 -16 19 26 c23 31 19 30 35 9z"/>
        <path d="M0 170 l0 -40 25 16 c31 20 31 28 0 48 l-25 16 0 -40z"/>
        <path d="M28 137 c-20 -15 -25 -26 -19 -36 7 -11 16 -8 45 14 34 26 39 45 13 45 -7 0 -24 -10 -39 -23z"/>
        <path d="M127 53 c-43 -30 -46 -40 -14 -48 34 -9 130 -2 133 10 3 8 -65 65 -78 65 -2 0 -20 -12 -41 -27z"/>
    </g>
</symbol><symbol id="icon-3" viewBox="0 0 470 270">
    <g fill="#63d1bb" stroke="none">
        <path d="M4 257 c-2 -7 -3 -67 -2 -133 l3 -119 230 0 230 0 0 130 0 130 -228 3 c-182 2 -229 0 -233 -11z m426 -122 l0 -105 -195 0 -195 0 0 105 0 105 195 0 195 0 0 -105z"/>
        <path d="M60 135 l0 -75 170 0 170 0 0 75 0 75 -170 0 -170 0 0 -75z m208 33 c36 -36 -11 -93 -57 -69 -39 21 -21 81 24 81 12 0 26 -5 33 -12z"/>
    </g>
</symbol><symbol id="icon-4" viewBox="0 0 550 230">
    <g fill="#63d1bb" stroke="none">
        <path d="M0 223 c0 -18 56 -63 79 -63 23 -1 24 -2 9 -11 -10 -5 -18 -21 -18 -34 0 -13 8 -29 18 -34 15 -9 14 -10 -9 -11 -23 0 -79 -45 -79 -63 0 -4 35 -7 78 -7 61 0 82 4 102 20 20 16 41 20 115 20 50 0 95 4 100 8 13 9 13 125 0 134 -5 4 -50 8 -100 8 -74 0 -95 4 -115 20 -20 16 -41 20 -102 20 -43 0 -78 -3 -78 -7z"/>
        <path d="M432 158 c-16 -16 -15 -73 2 -87 16 -14 116 24 116 44 0 11 -16 20 -95 51 -6 3 -16 -1 -23 -8z"/>
    </g>
</symbol><symbol id="icon-5" viewBox="0 0 340 270">
    <g fill="#63d1bb" stroke="none">
        <path d="M92 231 c-63 -50 -92 -97 -92 -148 0 -54 31 -83 90 -83 26 0 51 6 62 17 17 15 19 15 36 0 29 -26 103 -23 130 6 29 30 29 88 1 134 -31 49 -115 113 -149 113 -18 0 -47 -15 -78 -39z"/>
    </g>
</symbol><symbol id="icon-6" viewBox="0 0 330 320">
<g fill="#63d1bb" stroke="none">
 <path d="M20 250 l0 -70 70 0 70 0 0 70 0 70 -70 0 -70 0 0 -70z"/>
 <path d="M170 250 l0 -70 70 0 70 0 0 70 0 70 -70 0 -70 0 0 -70z"/>
 <path d="M0 125 c0 -42 2 -45 26 -45 22 0 25 -4 21 -22 -3 -12 -2 -30 4 -40 13 -24 73 -24 97 0 16 16 18 16 35 -1 12 -12 30 -17 55 -15 36 3 37 4 37 41 0 34 2 37 28 37 25 0 27 3 27 45 l0 45 -79 0 -80 0 -4 -42 -4 -43 -1 43 -2 42 -80 0 -80 0 0 -45z m125 -75 c-18 -20 -45 -27 -45 -12 0 15 24 32 44 32 18 0 19 -1 1 -20z m106 10 c10 -6 19 -15 19 -20 0 -17 -26 -11 -45 10 -20 22 -7 27 26 10z"/>
 </g>
</symbol></svg>