<svg xmlns="http://www.w3.org/2000/svg" width="24" height="24" viewBox="0 0 24 24"><g><g><path fill="#fff" d="M.553 8.032v15.491h5.12V8.033zm4.655-6.697C4.69.83 4.002.577 3.144.577c-.858 0-1.554.253-2.087.758C.525 1.841.26 2.48.26 3.25c0 .76.258 1.396.775 1.907.517.51 1.2.766 2.048.766h.031c.869 0 1.57-.256 2.102-.766.533-.51.794-1.147.784-1.907-.01-.771-.274-1.41-.791-1.915zm17.267 8.113C21.4 8.265 19.977 7.673 18.21 7.673c-.652 0-1.244.081-1.777.243-.532.161-.982.388-1.35.68-.367.291-.659.562-.876.813a6.69 6.69 0 0 0-.605.825V8.032H8.497l.015.751c.01.5.016 2.043.016 4.627 0 2.584-.01 5.955-.031 10.113H13.6V14.88c0-.532.057-.954.17-1.266.218-.532.546-.977.986-1.337.44-.36.985-.539 1.637-.539.89 0 1.543.31 1.962.93.42.62.628 1.477.628 2.571v8.285h5.105v-8.879c0-2.282-.538-4.014-1.614-5.196z"/></g></g></svg>