<svg xmlns="http://www.w3.org/2000/svg" width="24" height="28" viewBox="0 0 24 28"><g><g><path fill="#fff" d="M14.611 18.37c.406 0 .61.348.61 1.046v3.298c0 .699-.204 1.047-.61 1.047-.24 0-.473-.113-.702-.343v-4.705c.229-.23.463-.343.702-.343zm5.886 1.062v.719h-1.405v-.719c0-.708.234-1.062.703-1.062.468 0 .702.354.702 1.062zM5.416 16.024h1.67v-1.468h-4.87v1.468h1.639v8.895h1.561zm4.496 8.895h1.39v-7.722h-1.39v5.909c-.312.437-.609.655-.89.655-.187 0-.296-.109-.328-.327-.01-.032-.015-.214-.015-.548v-5.69h-1.39v6.112c0 .511.042.892.125 1.141.125.385.427.58.906.58.5 0 1.03-.32 1.592-.954zm6.557-.75c.094-.282.14-.803.14-1.564v-3.079c0-.76-.046-1.277-.14-1.548-.177-.582-.546-.875-1.108-.875-.52 0-1.005.282-1.452.845v-3.392h-1.39v10.363h1.39v-.75c.468.572.952.86 1.452.86.562 0 .931-.288 1.108-.86zm5.386-.814c.021-.093.032-.396.032-.906v-.204h-1.42c0 .532-.011.85-.032.954-.073.375-.281.562-.625.562-.478 0-.718-.359-.718-1.078v-1.36h2.795v-1.61c0-.822-.14-1.427-.422-1.813-.406-.531-.958-.797-1.655-.797-.708 0-1.264.266-1.67.797-.292.386-.437.99-.437 1.813v2.705c0 .823.15 1.427.452 1.812.406.532.968.798 1.687.798.749 0 1.311-.276 1.686-.828.187-.282.296-.564.327-.845zm-9.46-15.177V4.896c0-.72-.224-1.08-.672-1.08-.447 0-.671.36-.671 1.08v3.282c0 .73.224 1.095.671 1.095.448 0 .671-.366.671-1.095zm10.819 6.268c.27 1.167.406 2.99.406 5.471 0 2.438-.136 4.262-.406 5.47a2.976 2.976 0 0 1-.906 1.548 2.732 2.732 0 0 1-1.592.72c-1.915.217-4.804.327-8.665.327-3.861 0-6.75-.11-8.665-.328a2.767 2.767 0 0 1-1.6-.719 2.861 2.861 0 0 1-.898-1.547c-.27-1.168-.405-2.992-.405-5.471 0-2.439.135-4.262.405-5.471.146-.615.448-1.13.906-1.548a2.832 2.832 0 0 1 1.608-.734c1.905-.209 4.788-.313 8.65-.313 3.86 0 6.749.104 8.664.313a2.858 2.858 0 0 1 1.6.734c.463.417.762.933.898 1.548zM8.039-.028H9.63L7.742 6.21v4.236H6.181V6.209c-.146-.772-.463-1.876-.952-3.314A135.46 135.46 0 0 1 4.214-.028h1.655l1.108 4.11zm5.34 3.376c.29.386.436.996.436 1.829v2.735c0 .845-.146 1.46-.437 1.844-.385.532-.937.798-1.655.798-.697 0-1.244-.266-1.64-.798-.29-.396-.436-1.01-.436-1.844V5.177c0-.833.145-1.443.437-1.829.395-.531.942-.798 1.64-.798.717 0 1.269.267 1.654.798zm5.666-.703v7.8h-1.42v-.86c-.552.646-1.088.969-1.608.969-.48 0-.786-.193-.922-.579-.083-.25-.124-.64-.124-1.172V2.645h1.42v5.736c0 .344.005.526.016.547.031.23.14.345.328.345.28 0 .577-.225.89-.673V2.645z"/></g></g></svg>