<svg xmlns="http://www.w3.org/2000/svg" viewBox="0 0 710 1110"><path fill="#020202" d="M111 1081 l-31 -29 0 -242 0 -241 -35 -33 c-31 -30 -35 -39 -35 -83 0 -36 6 -58 21 -77 l20 -26 -20 -26 c-14 -18 -21 -41 -21 -71 0 -38 5 -50 34 -79 23 -23 43 -34 64 -34 27 0 30 -4 36 -39 14 -91 128 -127 198 -64 16 15 20 15 36 0 10 -9 32 -21 48 -27 59 -21 130 27 140 92 6 33 10 38 34 38 49 0 110 67 110 121 0 12 -11 37 -25 55 l-25 33 25 37 c14 20 25 49 25 63 0 32 -32 86 -59 101 -20 10 -21 19 -21 256 l0 246 -29 29 c-16 16 -39 29 -51 29 -26 0 -72 -23 -90 -45 -7 -8 -34 -33 -59 -55 l-47 -38 -78 69 c-91 79 -116 86 -165 40z m140 -136 c90 -85 116 -87 192 -17 29 26 62 56 75 66 l22 19 0 -171 0 -170 -31 15 c-39 20 -105 12 -133 -16 l-20 -21 -22 21 c-30 28 -93 35 -132 15 l-32 -17 0 171 c0 93 3 170 6 170 4 0 38 -29 75 -65z m49 -370 c19 -19 43 -35 54 -35 11 0 37 16 57 36 51 49 69 42 69 -29 0 -29 5 -58 12 -65 7 -7 36 -12 64 -12 29 0 56 -5 60 -11 3 -6 -12 -30 -35 -53 -22 -23 -41 -46 -41 -51 1 -6 19 -28 41 -50 55 -55 49 -69 -31 -75 l-65 -5 -3 -63 c-4 -80 -19 -88 -71 -38 -20 20 -45 36 -56 36 -11 0 -36 -16 -56 -36 -52 -50 -67 -42 -71 38 l-3 63 -60 3 c-33 2 -64 7 -70 13 -6 6 6 25 33 52 23 23 42 49 42 57 0 8 -19 33 -41 56 -23 23 -38 47 -35 53 4 6 31 11 60 11 28 0 57 5 64 12 7 7 12 35 12 63 0 78 17 85 70 30z"/><g fill="#585858" stroke="none"><path d="M153 1103 c9 -2 25 -2 35 0 9 3 1 5 -18 5 -19 0 -27 -2 -17 -5z"/><path d="M514 998 l-19 -23 23 19 22 19 2 -174 2 -174 3 169 c2 93 0 173 -5 178 -5 5 -17 -2 -28 -14z"/><path d="M702 450 c0 -19 2 -27 5 -17 2 9 2 25 0 35 -3 9 -5 1 -5 -18z"/><path d="M702 260 c0 -19 2 -27 5 -17 2 9 2 25 0 35 -3 9 -5 1 -5 -18z"/></g></svg>