<?xml version="1.0" standalone="no"?>
<!DOCTYPE svg PUBLIC "-//W3C//DTD SVG 20010904//EN"
 "http://www.w3.org/TR/2001/REC-SVG-20010904/DTD/svg10.dtd">
<svg version="1.0" xmlns="http://www.w3.org/2000/svg"
 width="400.000000pt" height="400.000000pt" viewBox="0 0 400.000000 400.000000"
 preserveAspectRatio="xMidYMid meet">
<metadata>
Created by potrace 1.11, written by Peter Selinger 2001-2013
</metadata>
<g transform="translate(0.000000,400.000000) scale(0.100000,-0.100000)"
fill="#000000" stroke="none">
<path d="M1690 3959 c0 -52 -32 -94 -125 -164 -39 -30 -119 -103 -177 -162
-117 -120 -145 -146 -171 -156 -9 -3 -17 -13 -17 -22 0 -8 -8 -15 -19 -15 -10
0 -21 -9 -24 -20 -3 -11 -12 -20 -21 -20 -9 0 -16 -8 -16 -20 0 -13 -7 -20
-20 -20 -13 0 -20 -7 -20 -20 0 -11 -7 -20 -15 -20 -8 0 -15 -4 -15 -9 0 -10
-92 -104 -139 -141 -17 -14 -31 -28 -31 -32 0 -4 -21 -29 -48 -55 -26 -26 -62
-70 -79 -98 -18 -27 -36 -54 -40 -60 -28 -35 -73 -111 -73 -123 0 -7 -9 -25
-20 -39 -11 -14 -20 -31 -20 -38 0 -6 -7 -25 -15 -42 -37 -73 -23 -178 46
-352 9 -25 20 -67 24 -92 4 -31 21 -68 52 -115 25 -38 58 -90 72 -116 15 -26
65 -89 111 -141 47 -52 104 -117 126 -144 25 -30 93 -83 170 -135 171 -114
188 -122 226 -109 47 17 195 151 316 289 35 40 70 72 78 72 7 0 19 9 26 20 7
11 19 20 26 20 7 0 22 9 34 20 12 11 27 20 34 20 6 0 71 9 145 20 170 26 202
43 247 133 44 87 69 112 134 132 62 20 90 16 135 -17 96 -71 191 -144 210
-162 12 -12 28 -26 35 -32 7 -6 25 -24 40 -40 15 -16 41 -42 58 -59 16 -16 30
-36 30 -42 0 -7 4 -13 8 -13 10 0 43 -72 66 -143 18 -55 45 -96 63 -97 35 -1
54 -116 33 -205 -5 -22 -10 -71 -11 -110 -3 -108 -17 -191 -50 -295 -33 -104
-53 -138 -55 -92 -1 15 -6 52 -13 82 -6 30 -16 93 -21 141 -5 47 -17 105 -25
129 -8 24 -13 45 -11 48 3 2 15 -30 28 -72 13 -42 26 -76 30 -76 10 0 48 126
55 183 12 94 -27 273 -67 307 -40 35 -130 188 -130 222 0 14 -25 36 -71 62
-27 16 -51 41 -68 72 -38 69 -67 88 -117 75 -106 -26 -160 -44 -213 -71 -32
-17 -63 -30 -68 -30 -6 0 -17 -8 -26 -18 -20 -22 -10 -66 35 -156 21 -42 28
-68 24 -88 -4 -18 -1 -28 7 -28 6 -1 -17 -11 -52 -22 -42 -14 -66 -28 -69 -40
-2 -11 -14 -18 -27 -18 -27 0 -55 -29 -55 -58 0 -15 -6 -22 -18 -22 -23 0 -62
-40 -62 -63 0 -10 -8 -17 -20 -17 -13 0 -20 -7 -20 -20 0 -11 -3 -20 -7 -20
-9 0 -33 -49 -33 -67 0 -7 -9 -13 -20 -13 -13 0 -20 -7 -20 -20 0 -11 -4 -20
-8 -20 -18 0 -32 -54 -32 -125 0 -40 -4 -85 -10 -99 -5 -14 -8 -26 -7 -26 1 0
23 -7 50 -15 47 -14 47 -14 82 16 19 17 35 35 35 40 0 16 35 89 42 89 5 0 8 9
8 20 0 13 7 20 20 20 17 0 20 7 20 40 0 33 3 40 20 40 11 0 20 6 20 13 0 18
24 67 33 67 4 0 7 9 7 20 0 13 7 20 20 20 11 0 20 7 20 15 0 9 8 19 18 22 9 4
29 21 44 37 16 17 35 38 43 47 8 9 15 30 15 46 0 23 9 39 31 57 29 25 32 25
66 11 19 -8 43 -15 52 -15 10 0 37 -22 62 -50 24 -27 47 -50 52 -50 4 0 20
-14 36 -32 21 -24 30 -46 34 -85 5 -51 13 -83 44 -173 27 -80 33 -123 27 -215
-4 -68 -2 -101 10 -134 20 -53 20 -98 1 -131 -8 -14 -14 -44 -15 -67 l0 -43
-120 0 -120 0 0 40 c0 40 0 40 -38 40 -26 0 -41 6 -50 20 -10 16 -23 20 -72
20 -36 0 -81 8 -112 20 -29 11 -70 20 -90 20 -24 0 -38 5 -38 13 0 7 -17 21
-37 32 -20 11 -67 50 -104 87 -71 71 -98 84 -156 75 -25 -4 -47 0 -74 13 -21
11 -54 20 -74 20 -28 0 -35 4 -35 20 0 11 -6 20 -13 20 -18 0 -67 24 -67 33 0
4 -36 7 -80 7 l-80 0 0 29 c0 46 -20 55 -128 53 -93 -1 -152 10 -152 29 0 5
-27 9 -60 9 -53 0 -60 -2 -60 -19 0 -16 -8 -20 -37 -23 -36 -3 -38 -5 -41 -40
-3 -37 -4 -38 -43 -38 -32 0 -39 -3 -39 -20 0 -13 -7 -20 -20 -20 -13 0 -20
-7 -20 -20 0 -13 -7 -20 -19 -20 -16 0 -20 -8 -23 -37 -2 -31 -7 -39 -27 -41
-28 -4 -51 -24 -51 -44 0 -8 -18 -30 -40 -49 -22 -19 -40 -41 -40 -50 0 -9 -6
-19 -13 -22 -8 -3 -26 -29 -41 -58 -15 -28 -41 -66 -57 -83 -16 -17 -34 -44
-40 -61 -16 -44 -49 -105 -79 -147 -35 -49 -52 -110 -48 -178 3 -47 7 -56 28
-67 30 -15 174 -17 201 -3 28 15 23 54 -11 93 -22 26 -30 44 -30 73 1 34 7 44
47 79 46 39 48 39 147 46 136 9 156 16 242 86 76 63 175 133 187 133 25 1 -61
32 -123 45 -36 7 -97 21 -136 30 -57 13 -85 15 -135 7 -35 -5 -65 -9 -66 -8
-1 1 31 18 71 39 90 45 124 47 222 7 41 -16 104 -34 142 -40 105 -17 110 -19
136 -45 14 -14 29 -25 34 -25 4 0 17 -8 28 -18 31 -28 96 -59 138 -67 59 -10
114 -37 119 -57 3 -10 13 -18 24 -18 10 0 31 -11 47 -25 64 -55 150 -85 391
-136 76 -16 95 -21 95 -29 0 -4 13 -10 29 -13 16 -3 36 -13 44 -22 9 -8 23
-15 32 -15 9 0 33 -9 55 -20 22 -11 45 -20 53 -20 26 0 142 -63 170 -92 l28
-29 18 20 c10 12 23 21 29 21 6 0 16 9 22 20 6 11 17 20 25 20 8 0 15 7 15 16
0 9 9 18 20 21 11 3 20 12 20 20 0 8 9 17 20 20 11 3 20 10 20 15 0 10 54 68
64 68 9 0 53 47 59 64 4 10 19 16 42 16 25 0 35 4 35 15 0 18 49 64 68 65 6 0
12 12 12 28 0 36 16 52 52 52 21 0 28 5 28 20 0 11 6 20 13 20 18 0 67 24 67
33 0 4 10 7 23 7 26 1 46 15 70 53 11 17 26 27 42 27 18 0 25 5 25 20 0 11 7
20 15 20 9 0 31 16 51 35 19 19 47 43 62 52 37 24 50 35 70 55 9 10 22 18 29
18 7 0 13 9 13 19 0 11 4 23 10 26 12 8 13 48 1 61 -5 5 -11 92 -13 194 -3
145 -8 193 -21 224 -9 21 -17 46 -17 55 0 10 -9 36 -20 59 -12 24 -20 61 -20
92 0 27 -4 50 -8 50 -5 0 -15 12 -23 28 -8 15 -20 33 -27 41 -7 7 -15 26 -19
41 -3 16 -13 30 -24 33 -14 4 -19 14 -19 41 0 29 -4 36 -20 36 -17 0 -20 7
-20 40 0 33 -3 40 -20 40 -11 0 -20 7 -20 15 0 8 -13 28 -30 43 -16 16 -30 35
-30 42 0 18 -99 114 -138 134 -18 9 -36 24 -39 32 -3 7 -14 14 -24 14 -12 0
-19 7 -19 20 0 17 -7 20 -43 20 -29 0 -50 6 -65 20 -12 11 -28 20 -37 20 -8 0
-15 9 -15 20 0 17 -7 20 -40 20 -33 0 -40 3 -40 20 0 11 -7 20 -15 20 -9 0
-35 9 -57 20 -35 17 -62 20 -159 20 -116 0 -117 0 -134 -27 -24 -36 -283 -293
-296 -293 -16 0 -59 -47 -59 -65 0 -8 -7 -15 -16 -15 -9 0 -24 -8 -33 -18 -9
-10 -31 -28 -49 -41 -29 -20 -33 -21 -48 -7 -8 9 -19 16 -23 16 -4 0 -21 11
-37 25 -16 14 -35 25 -41 25 -7 0 -18 9 -25 20 -7 11 -21 20 -30 20 -11 0 -18
8 -18 20 0 17 -7 20 -40 20 -22 0 -40 4 -40 10 0 5 -15 20 -34 32 -18 12 -51
50 -72 85 -21 35 -42 63 -47 63 -4 0 -6 4 -3 9 4 5 24 2 47 -7 32 -12 45 -13
60 -4 10 7 26 12 34 12 8 0 15 9 15 20 0 17 7 20 40 20 37 0 40 2 40 28 0 35
16 52 50 52 14 0 32 9 40 20 8 12 26 20 42 20 21 0 28 5 28 20 0 13 7 20 20
20 11 0 20 7 20 15 0 9 11 27 24 40 14 13 27 34 31 45 3 11 11 20 16 20 5 0 9
9 9 20 0 13 7 20 20 20 17 0 20 7 20 40 l0 40 40 0 c32 0 40 4 40 19 0 30 30
35 334 46 157 5 184 4 228 -12 50 -18 50 -18 68 5 10 12 29 22 42 22 38 0 48
19 48 92 0 37 4 68 8 68 5 0 15 12 23 28 8 15 31 44 52 64 20 20 37 42 37 48
0 6 7 18 15 27 9 8 19 28 22 44 3 16 9 29 14 29 5 0 9 9 9 20 0 11 5 20 10 20
6 0 10 9 10 20 0 13 7 20 20 20 19 0 20 7 20 99 0 77 3 100 15 104 8 3 24 27
36 54 17 38 23 73 27 175 l5 128 -82 0 -81 0 0 -148 c0 -102 -4 -152 -12 -160
-8 -8 -62 -12 -178 -12 l-166 0 -38 40 c-33 35 -43 40 -84 40 -31 0 -55 7 -72
20 -14 11 -36 20 -50 20 -14 1 -43 8 -65 17 -22 9 -74 19 -115 22 -73 6 -75 7
-107 49 -22 30 -33 54 -33 78 l0 34 -215 0 -215 0 0 -41z m17 -311 c15 -7 35
-20 43 -29 8 -9 27 -19 41 -22 14 -4 43 -22 65 -42 35 -33 42 -35 104 -35 54
0 67 -3 78 -20 7 -11 19 -20 27 -20 8 0 15 -9 15 -20 0 -16 7 -20 36 -20 19 0
42 -7 50 -15 9 -8 25 -17 37 -19 12 -2 60 -12 107 -22 60 -13 142 -19 275 -22
127 -2 194 -7 204 -15 8 -7 20 -26 28 -44 11 -28 11 -37 -4 -68 l-17 -35 -214
0 c-205 0 -214 1 -219 20 -3 11 -12 20 -20 20 -8 0 -21 7 -29 15 -9 8 -27 18
-42 22 -15 3 -34 14 -42 23 -8 9 -28 20 -45 23 -16 3 -48 11 -70 17 -22 7 -58
14 -80 17 -22 2 -59 13 -82 24 -24 10 -48 19 -54 19 -7 0 -19 8 -28 18 -22 25
-137 102 -188 127 -23 11 -48 31 -57 45 -14 24 -13 26 12 47 32 26 33 27 69
11z m-173 -200 c12 -19 -8 -48 -33 -48 -9 0 -28 -8 -43 -18 -25 -17 -26 -18
-12 -57 7 -22 18 -41 24 -43 5 -2 10 -11 11 -20 1 -31 81 -80 105 -64 20 14
44 57 44 79 0 32 39 39 105 18 49 -15 53 -19 46 -38 -5 -12 -22 -26 -39 -31
-42 -12 -96 -69 -88 -93 3 -11 22 -37 42 -58 32 -35 40 -39 84 -38 42 1 52 5
84 39 20 21 36 41 36 44 0 15 117 62 171 70 32 5 74 14 93 21 47 17 58 3 21
-27 -16 -13 -49 -41 -73 -60 -47 -39 -128 -84 -152 -84 -9 0 -32 -17 -51 -38
-19 -21 -43 -41 -52 -45 -12 -4 -17 -18 -17 -42 0 -28 -4 -35 -20 -35 -13 0
-20 -7 -20 -20 0 -12 -7 -20 -16 -20 -9 0 -18 -9 -21 -20 -3 -11 -14 -20 -24
-20 -11 0 -19 -3 -19 -7 0 -5 -18 -19 -40 -33 -22 -13 -40 -28 -40 -32 0 -4
-9 -8 -21 -8 -11 0 -33 -8 -47 -18 -15 -10 -48 -25 -74 -32 -27 -7 -48 -17
-48 -22 0 -19 -48 48 -70 97 -12 28 -39 88 -61 135 -22 49 -39 101 -39 121 0
20 -9 74 -21 120 -18 75 -19 90 -8 143 15 71 70 136 117 136 33 0 102 31 121
54 16 19 30 17 45 -6z m-665 -824 c13 -9 43 -58 66 -109 24 -51 48 -96 54 -99
14 -9 91 -162 91 -182 0 -58 157 -251 264 -323 62 -42 118 -98 132 -129 8 -19
13 -36 12 -37 -2 -2 -22 -6 -45 -10 l-42 -7 -96 97 c-66 66 -113 103 -148 119
-29 13 -88 50 -132 83 -44 32 -97 69 -117 82 -27 16 -41 34 -49 62 -7 21 -9
42 -6 46 12 11 60 -20 99 -63 23 -25 72 -59 128 -88 83 -43 90 -45 74 -21 -9
14 -20 25 -24 25 -5 0 -21 24 -38 53 -16 28 -53 81 -81 116 -28 35 -51 69 -51
77 0 19 -119 247 -136 260 -17 14 -18 36 -2 52 16 16 19 15 47 -4z m1788 -754
c12 -10 24 -34 28 -52 8 -35 36 -78 98 -145 27 -30 42 -58 52 -98 10 -47 10
-54 -1 -44 -8 6 -23 9 -34 6 -26 -7 -39 18 -50 93 -11 77 -52 140 -90 140 -47
0 -102 85 -73 113 13 13 50 7 70 -13z"/>
<path d="M1185 629 c-30 -8 -71 -61 -61 -77 3 -5 49 -28 103 -52 54 -23 99
-44 101 -45 2 -2 -13 -3 -32 -3 -19 0 -41 7 -47 15 -33 39 -121 67 -169 52
-63 -19 -129 -52 -123 -62 16 -26 157 -106 196 -111 124 -15 137 -15 137 -4 0
6 12 26 26 45 14 19 27 42 28 51 2 10 21 24 43 32 56 21 73 38 73 72 0 25 -6
32 -44 48 -38 17 -175 52 -194 49 -4 0 -21 -5 -37 -10z"/>
<path d="M1547 460 c-16 -5 -35 -14 -42 -20 -24 -20 -128 -81 -162 -95 -40
-17 -41 -25 -8 -63 58 -70 234 -117 332 -90 46 12 110 79 146 152 29 59 33 55
-75 92 -83 28 -152 37 -191 24z"/>
<path d="M1864 302 c-6 -31 -26 -81 -43 -109 -25 -41 -33 -67 -38 -122 l-6
-71 367 0 366 0 2 40 c1 22 2 50 2 62 1 18 -10 25 -69 43 -81 26 -167 68 -208
102 -16 12 -41 26 -55 29 -15 4 -32 11 -38 15 -6 5 -43 15 -82 24 -40 8 -88
22 -108 30 -67 28 -78 22 -90 -43z"/>
</g>
</svg>
