<?xml version="1.0" standalone="no"?>
<!DOCTYPE svg PUBLIC "-//W3C//DTD SVG 20010904//EN"
 "http://www.w3.org/TR/2001/REC-SVG-20010904/DTD/svg10.dtd">
<svg version="1.0" xmlns="http://www.w3.org/2000/svg"
 width="980.000000pt" height="980.000000pt" viewBox="0 0 980.000000 980.000000"
 preserveAspectRatio="xMidYMid meet">
<metadata>
Created by potrace 1.14, written by Peter Selinger 2001-2017
</metadata>
<g transform="translate(0.000000,980.000000) scale(0.100000,-0.100000)"
fill="#000000" stroke="none">
<path d="M603 8806 c-234 -45 -378 -157 -434 -337 -23 -72 -24 -148 -5 -213
21 -70 32 -80 65 -57 66 46 118 56 286 56 141 0 168 -3 227 -23 128 -45 213
-114 272 -226 l26 -49 0 -1081 c0 -595 -4 -1119 -10 -1166 -11 -108 -39 -198
-87 -279 -71 -119 -145 -179 -380 -306 l-134 -72 83 -43 c202 -104 405 -266
461 -368 63 -117 61 -55 64 -1402 l4 -1225 -41 -85 c-93 -190 -225 -325 -375
-383 -96 -37 -374 -17 -507 37 l-59 24 -14 -27 c-22 -44 -38 -158 -32 -232 20
-234 257 -394 557 -376 136 8 239 40 351 108 l37 22 45 -32 c105 -72 246 -107
392 -98 116 8 191 27 291 78 l82 40 60 -30 c34 -17 101 -43 149 -58 77 -23
105 -26 233 -27 160 0 229 13 330 64 81 41 164 120 197 188 26 52 28 66 27
162 -1 83 -5 117 -23 162 l-22 57 -56 -25 c-85 -38 -173 -55 -287 -55 -115 0
-173 11 -261 51 -137 62 -263 192 -344 355 l-41 83 0 2431 c0 1337 3 2431 8
2431 4 0 206 -393 450 -872 808 -1595 1601 -3158 1816 -3583 118 -231 255
-502 305 -602 51 -101 101 -188 111 -193 11 -6 55 -13 98 -17 142 -11 182 26
307 282 128 261 288 637 583 1370 259 642 770 1909 987 2445 274 679 448 1110
551 1365 64 159 115 274 118 265 4 -8 5 -1237 4 -2730 l-3 -2715 -48 -77
c-120 -193 -304 -288 -557 -289 -110 -1 -163 11 -237 51 -58 31 -62 29 -88
-33 -9 -22 -15 -67 -15 -115 0 -68 4 -87 30 -139 55 -109 187 -207 355 -261
135 -44 223 -57 395 -57 149 1 159 2 251 33 52 19 131 52 174 76 l78 43 96
-49 c53 -26 141 -60 196 -75 89 -23 118 -26 270 -26 205 -1 275 15 436 95
l105 53 80 -40 c168 -86 331 -121 519 -112 386 19 687 220 686 460 0 67 -12
116 -35 152 l-15 23 -53 -28 c-76 -40 -128 -52 -238 -51 -251 1 -437 96 -555
286 l-45 72 2 1304 3 1304 26 72 c32 87 104 196 159 242 61 49 202 136 314
193 l99 50 -104 55 c-142 75 -239 143 -337 237 -89 86 -130 155 -151 254 -8
37 -11 399 -11 1191 l0 1138 33 64 c17 35 59 90 92 124 105 106 208 145 382
145 110 0 199 -21 255 -61 l28 -20 20 33 c25 41 34 102 28 186 -19 262 -341
442 -753 419 -134 -7 -236 -44 -349 -124 -48 -35 -50 -35 -75 -19 -56 37 -194
98 -268 118 -66 18 -105 21 -258 21 -162 0 -190 -3 -278 -26 -54 -14 -121 -37
-150 -50 l-52 -23 -70 37 c-124 67 -232 83 -366 55 -153 -33 -226 -100 -326
-301 -75 -149 -102 -215 -851 -2060 -131 -324 -387 -956 -568 -1402 -181 -447
-331 -813 -334 -813 -3 0 -405 831 -895 1848 -1138 2364 -1112 2310 -1185
2422 -79 119 -189 228 -272 269 -100 49 -275 66 -374 36 -57 -17 -152 -75
-213 -130 l-41 -37 -57 51 c-109 97 -226 138 -364 128 -114 -9 -255 -70 -313
-136 -24 -27 -32 -27 -69 5 -42 36 -152 89 -223 109 -81 22 -289 28 -381 11z
m2750 -3308 c498 -997 940 -1894 982 -1993 89 -206 174 -456 211 -612 41 -172
44 -483 6 -483 -11 0 -1909 3801 -1973 3951 -69 163 -131 356 -161 493 -29
137 -31 338 -5 414 10 28 22 50 26 47 4 -2 415 -820 914 -1817z m4258 1778
c46 -35 115 -118 142 -171 24 -48 45 -139 62 -270 25 -189 38 -1124 31 -2305
-5 -1007 -14 -1394 -37 -1610 -20 -187 -68 -337 -136 -428 -28 -38 -99 -92
-120 -92 -11 0 -13 401 -13 2455 0 2060 2 2455 14 2455 7 0 33 -15 57 -34z"/>
</g>
</svg>
