<svg xmlns="http://www.w3.org/2000/svg" xmlns:xlink="http://www.w3.org/1999/xlink" width="102" height="34" viewBox="0 0 102 34"><defs><path id="c5xma" d="M19.13 21.5c-.08-2.68-.5-5.35-.47-8.04.03-2.17.39-4.4-.36-6.49l.14-.71c.2-1.05-3.27-.5-3.81.46-.35.28-.52.62-.38.96l.1.26a78.3 78.3 0 0 1-2.62 9.41c-.4 1.2-.89 2.35-1.3 3.54-.58-1.1-1.17-2.2-1.64-3.38-1.37-3.43-2.61-6.9-4.29-10.2.2-1.54-3.2-1.38-3.87.02-.8 1.7-.7 3.4-.44 5.22.3 2.04.36 4.05.38 6.11.05 3.98.36 7.94.42 11.92-.36.4-.46.88-.1 1.37.17.22.37.39.58.55.9.73 3.5.11 3.5-1.27-.02-4.12-.32-8.24-.43-12.36l-.02-1.2.17.43c.64 1.6 1.31 3.16 2.19 4.65.86 1.48 1.3 3.06 1.8 4.68-.19.21-.3.46-.23.7-.04.18.07.3.25.37.64.54 1.84.27 2.5-.01.3-.12.57-.26.83-.43.35-.2.89-.67.73-1.15l-.08-.28c.46-1.27.7-2.6.96-3.93.27-1.43.78-2.78 1.3-4.14l.15 1.86c.2 2.55.03 5.07 0 7.63 0 .84.06 1.63.23 2.46.07.34.36 1.8.28 1.88-.61.57-.43 1.26.38 1.44.92.2 2.08-.1 2.77-.74 1.2-1.1.63-2.85.36-4.24-.45-2.34.1-4.97.02-7.35z"/><path id="c5xmb" d="M27.5 22.17c-.08-1.98-.77-3.86-.78-5.87 0-2.3.19-4.59-.15-6.88-.1-.73-4.06.1-3.92 1.05.31 2.1.2 4.23.16 6.35-.04 2.04.47 3.9.73 5.9.27 2.06-.08 4.16.15 6.22.11.96.75 2.74.1 3.58-.43.53 1.46.34 1.54.32.77-.14 1.8-.39 2.3-1.03.66-.83.2-2.43.06-3.36-.32-2.06-.11-4.2-.2-6.28z"/><path id="c5xmc" d="M43.83 18.86c-2.06-2.79-5.9-.78-8.56-1.54-1.38-.4-1.4-2.28-1.4-3.4 0-1.43-.1-2.73-.27-4.15-.12-1.05-.02-2.12.75-2.9.14-.14.86-.34.8-.34.36-.06.68-.07 1.08-.1 1.54-.06 4.6.24 4.02 2.5-.27 1 3.6.42 3.87-.65 1.22-4.6-7.28-3.71-9.68-3.07-2.21.58-4.65 1.84-4.78 4.4-.06 1.21.27 2.37.33 3.58.06 1.4-.2 2.78.28 4.12 1.09 2.98 5.52 1.58 7.78 1.74 3.85.3 2.7 5.47 2.75 7.89.03 1.29 1.18 3.43.21 4.5-.6.67-1.98.7-2.8.77-.8.07-2.2.31-2.73-.46-1-1.42.09-3.8-.12-5.42-.12-.93-4.07-.1-3.92 1.05.34 2.62-1.4 6.14 2.4 6.6 2.44.28 5.2-.17 7.5-.94 1.2-.4 2.3-.94 3.24-1.79 1.04-.94.7-2.35.42-3.55-.68-2.91.73-6.27-1.17-8.84z"/><path id="c5xmd" d="M61.16 18.67c-.13-3.78-.7-7.52-.71-11.3 0-1.97-3.96-1.3-3.96.34.02 3.61.5 7.17.69 10.77v.22c-1.94-.02-3.9.17-5.84.24.2-4.63-.62-9.22-.44-13.85.02-.59-3.87-.1-3.92 1.04-.17 4.48.59 8.92.46 13.4-.07 2.13-.25 4.26-.26 6.4-.01 1.1.17 2.18.33 3.26.14 1 .48 2.33.18 3.32-.24.77 3.56.29 3.86-.7.54-1.77-.22-4.03-.4-5.83-.18-1.73-.04-3.5.08-5.25 2.03-.13 4.06-.3 6.08-.01.09 1.37.2 2.75.32 4.13.1 1.16.18 2.31.2 3.48.01 1.01.14 2.5-.22 3.46-.78 2.05 3.15 1.89 3.72.36.7-1.87.5-4.2.38-6.16-.15-2.45-.48-4.88-.55-7.32z"/><path id="c5xme" d="M78.09 23.14c-.94-2.76-2.38-5.18-3.62-7.8 1-1.95 2.02-3.9 2.93-5.89.83-1.8 1.45-3.81 3.08-5.09.58-.44.55-.9-.25-.95-.88-.06-2.07.2-2.77.74a10.74 10.74 0 0 0-3.2 4.27c-.94 2.05-1.9 4.06-2.92 6.08l-.22.44c-.5.31-.79.76-.64 1.27-.79 1.56-1.6 3.11-2.5 4.6-.3-5.53-.95-11.05-1.15-16.6-.04-1.26-3.97-.47-3.92 1.06.25 6.86 1.22 13.71 1.3 20.58l-.06.05c-.3.31-.19.5.05.6 0 1.76-.05 3.5-.2 5.26-.48.74.46 1.14 1.08 1.14h.1c.74 0 2.62-.35 2.71-1.37.2-2.1.26-4.2.24-6.29a31.38 31.38 0 0 0 4.05-5.63 29.35 29.35 0 0 1 1.99 4.58c.86 2.74 2.3 5.26 3.13 8.01.55 1.81 4.46.74 3.92-1.05-.83-2.75-2.2-5.3-3.13-8z"/><path id="c5xmf" d="M101.6 18.5c-.22-.83-1.38-.84-2.28-.76l-.04-1.01c-.12-2.66-.16-5.38-.39-8.03-.2-2.46-1.58-3.34-3.97-3.25-2.42.1-5.23.53-7.48 1.4-2.61 1.02-4.06 2.94-4.56 5.69-.55 3 .24 6.21.37 9.24.16 3.5.07 7.01.06 10.52 0 .57 3.92.03 3.92-1.05 0-2.78.04-5.55 0-8.33-.01-.81-.05-1.63-.1-2.44 1.37-.6 3.69.01 5.05.14 1.1.1 2.17-.16 3.24-.29.02 2.31.11 4.63.2 6.94.05 1.19.48 3.53-.35 4.52-.43.51 1.48.34 1.56.33.79-.15 1.76-.4 2.3-1.05.95-1.12.46-3.79.4-5.12-.08-1.91-.1-3.83-.14-5.74 1.15-.15 2.41-.86 2.2-1.7zm-14.63-.15c-.1-1.24-.22-2.49-.3-3.74-.16-2.33.12-5.58 2.29-7 .58-.38 1.67-.31 2.35-.44.97-.17 1.96-.38 2.83.2 1.21.8.91 3.65.91 4.86 0 2.01.21 4 .31 6-.55.06-1.1.1-1.68.08-2.29-.05-4.54-.41-6.7.04z"/><path id="c5xmg" d="M24.1 6.7a3.16 3.16 0 0 0 1.48-.52c.1-.07.18-.14.26-.22.52-.33.97-.82.73-1.36-.5-1.1-.42-2.23-.42-3.41.01-.96-.96-1.25-1.78-1.18-.72.07-2.17.59-2.17 1.52 0 1-.07 2.02.1 3l-.1.35a.7.7 0 0 0 .14.6v.13l.02.33c.08.23.22.41.43.53.39.23.88.28 1.32.23z"/></defs><g><g><use xlink:href="#c5xma"/></g><g><use xlink:href="#c5xmb"/></g><g><use xlink:href="#c5xmc"/></g><g><use xlink:href="#c5xmd"/></g><g><use xlink:href="#c5xme"/></g><g><use xlink:href="#c5xmf"/></g><g><use xlink:href="#c5xmg"/></g></g></svg>