<svg xmlns="http://www.w3.org/2000/svg" xmlns:xlink="http://www.w3.org/1999/xlink" width="15" height="28" viewBox="0 0 15 28"><defs><path id="otaua" d="M11.66 5.2c1.03.02 2 0 2.68-.3.4-.82.56-1.86.62-3-.19 0-.06-.33-.2-.4-.03-.2-.28-.19-.31-.4-.28-.16-.46-.41-.73-.59l-2.16-.5c-.85.05-1.9-.1-2.58.1-2.62-.04-4 1.12-5.26 2.4-.02.07 0 .19-.1.2-.58 1.58-.13 3.61-.2 5.57.09.44.1.96.2 1.4-1 .3-2.22.38-3.4.5-.32.32-.19 1.09-.21 1.69.08.58.27 1.06.41 1.6.21.19.6.4.82.5.07.02.08.08.1.1.51.26 1.46 0 2.28.1-.14 1.97.25 3.9 0 5.67 0 .33.29.38.2.8 0 .96-.06 1.99.21 2.69-.29.46-.5.98-.41 1.8.12.01.1.15.1.3-.07.46.64.17.52.7.16.45-.43.18-.42.49v.9c.53.28 1.46.18 2.27.2.9-.42 2.19-.48 2.79-1.2.45.23.91-.01 1.23-.2-.01-.32.28-.33.21-.7 0-.33-.17-.5-.1-.9v-2.88c-.2-2.3-.05-4.94-.31-7.18.89-.1 1.91-.07 2.58-.4.35-.45.37-1.23.51-1.9.18-.22.22-.58.2-.99.2-.21.08-.73.11-1.1-.14-.59-.17-1.3-.82-1.39-.89-.23-2.05.6-3 .3.05-1.13-.29-2.34 0-3.39.75-.17 1.45-.4 2.17-.6zM7.84 9.97c.12.25.26.48.42.7.08.02.2 0 .2.1 1.2.05 2.2-.07 3.1-.3 0 1-.27 1.73-.52 2.49-.66.04-1.47.3-1.96.2-.27.16-.37.5-.62.7-.05.44.15.49 0 .8-.2.13-.05.6-.2.79v1.5c.08.27-.15.25-.1.49v3.49c-.09.28.14.26.1.5v2.99c.06.27-.13.79.1.9-.07.36-.41-.03-.82.1-.53.11-.93.36-1.55.4.12-.36.32-.63.31-1.1.05-.38-.37-.32-.52-.5.2-.65.57-1.12.73-1.8.2-.51.71-1.3.3-1.79-.52-.1-.52.3-.82.4-.02.08 0 .2-.1.2-.03.08 0 .2-.1.2 0 .12-.16.06 0 0 .02-.08 0-.2.1-.2.02-.08 0-.2.1-.2v-.3c.37-.57.67-1.21.83-2 .19-.27.28-.65.4-.99.16-.26.35-.87.11-1.2-.51.04-.8.3-.93.7-.32-.19.16-.43.1-.7.14-.23.18-.56.32-.8.2-.4.56-1.3 0-1.59-.44-.02-.62.2-.73.5-.21.2-.43.38-.51.7-.38-.07-.15-.73-.2-1.1-.08-.52.11-.9 0-1.2-.57-.8-2.04-.1-3.2-.3-.11-.3-.23-.98-.1-1.19 1.04-.09 2.47.2 3.19-.2.02-.07 0-.2.1-.2.1-.72-.27-1-.51-1.4.23-.8.04-2.01.1-2.98.23-.14.33-.41.51-.6.12-.95.68-1.47.73-2.5-.28.01-.61-.05-.62.2-.3-.1-.38.49-.52.2-.11-.53.25-.62.31-.99.6-.42 1.21-.82 1.86-1.2 1.74-.24 4.65-.44 6.08.2.05.62-.28.86-.2 1.5h-1.55c-1.1.24-1.99.67-2.99 1-.24.06-.28.33-.52.4-.03.4-.22.64-.3 1-.09 1.43.12 2.59.1 3.98z"/></defs><g><g><use fill="#231f20" xlink:href="#otaua"/></g></g></svg>