<svg xmlns="http://www.w3.org/2000/svg" xmlns:xlink="http://www.w3.org/1999/xlink" width="32" height="38" viewBox="0 0 32 38"><defs><path id="wi6ea" d="M15.99 37.3c0-8.83 7.15-15.99 15.98-15.99 0 8.83-7.16 15.99-15.98 15.99zM4.63 16.43a4.42 4.42 0 0 1 2.54-4A4.42 4.42 0 0 1 9.07 4c.93 0 1.8.28 2.51.78l-.04-.34a4.44 4.44 0 0 1 8.89 0l-.04.34a4.44 4.44 0 0 1 6.95 3.66 4.43 4.43 0 0 1-2.54 4 4.42 4.42 0 0 1-1.9 8.43 4.4 4.4 0 0 1-2.51-.78l.04.33a4.44 4.44 0 0 1-8.88 0l.03-.33a4.43 4.43 0 0 1-6.95-3.66zm11.36-8.44a4.44 4.44 0 1 0 0 8.89 4.44 4.44 0 0 0 0-8.89zM0 21.31c8.83 0 15.99 7.16 15.99 15.99A15.99 15.99 0 0 1 0 21.31z"/></defs><g><g><use fill="#231f20" xlink:href="#wi6ea"/></g></g></svg>