<svg xmlns="http://www.w3.org/2000/svg" xmlns:xlink="http://www.w3.org/1999/xlink" width="54" height="24" viewBox="0 0 54 24"><defs><path id="zp3ea" d="M40.31 5.7a48.11 48.11 0 0 0-12.36-1.66c-2.89 0-5.45.25-7.7.63L13.44 0H0L5.81 6.2h8.45C9.68 7.79 7.5 9.7 7.5 9.7v3.78s2.32 1.91 6.93 3.52l-8.62-.01L0 23.18h13.46l6.81-4.7c2.26.4 4.82.66 7.68.66 4.52 0 8.71-.7 12.36-1.67a10.62 10.62 0 0 1-1.92-5.88c0-2.14.74-4.1 1.92-5.88z"/><path id="zp3eb" d="M43.73 6.74c-1.28 1.6-1.96 3.25-1.96 4.84 0 1.6.68 3.24 1.97 4.85 6.4-2.16 10.42-4.84 10.42-4.84S50.14 8.9 43.73 6.74z"/></defs><g><g><use xlink:href="#zp3ea"/></g><g><use xlink:href="#zp3eb"/></g></g></svg>