<svg xmlns="http://www.w3.org/2000/svg" xmlns:xlink="http://www.w3.org/1999/xlink" width="21" height="19" viewBox="0 0 21 19"><defs><path id="xu40a" d="M19.54 7.23a.75.75 0 0 1 0 1.5h-.15l-.86 2.99c.19.14.32.35.32.6 0 .4-.31.7-.7.73l-1.65 5.8H3.8l-1.66-5.8a.74.74 0 0 1-.7-.73c0-.25.14-.46.32-.6L.91 8.73H.75a.75.75 0 0 1 0-1.5H3.9L7.3.42a.75.75 0 0 1 1.35.67L5.58 7.23h9.14l-3.08-6.14A.75.75 0 0 1 13 .42l3.4 6.81zm-2.95 5.84H3.7l1.22 4.28h10.43zm1.24-4.34H2.47l.8 2.84h13.75z"/></defs><g><g><use fill="#231f20" xlink:href="#xu40a"/></g></g></svg>