<svg xmlns="http://www.w3.org/2000/svg" xmlns:xlink="http://www.w3.org/1999/xlink" width="148" height="73" viewBox="0 0 148 73"><defs><path id="29x1a" d="M143.16 31.4a39.02 39.02 0 0 1-4.65 2.78c.03-1.75-.12-3.47-.6-5.13.06-.33.1-.67.15-1 .38-3 .66-7.12-2-9.23-.34-.26-1.25-.03-1.92.28a4.64 4.64 0 0 0-.5-.42l-.23-.73c-.03-.12-.17-.19-.36-.22.29-.38.26-.81-.42-1.09-.38-.15-.76-.29-1.14-.41-.07-.07-.13-.1-.17-.06-.95-.3-1.9-.53-2.87-.7.14-.33.4-.81.55-1 .14-.16.28-.3.43-.44l.2-.17.06-.06.08-.06c.38-.29.85-.86.23-1.2-.57-.3-1.51-.14-2.01.24a6.56 6.56 0 0 0-2.1 2.36 50.08 50.08 0 0 0-6.07-.08.76.76 0 0 0 .14-.25c.18-.58-.91-.52-1.19-.49l-4.69.6c1.37-3.77 3.09-8.57 1-12.26-1.19-2.1-3.9-2.58-6.1-2.65-2.43-.08-4.9.46-7.03 1.64-4.76 2.61-7.11 7.7-8.21 13.13-.5-.65-2.3-.42-2.64.47-.13.32-.23.65-.33.97-.16.18-.28.39-.35.64l-.04.17h-.2l.07-.3c.15-.11.25-.24.28-.37.57-2.3 1.16-4.59 1.95-6.82.27-.76-2.51-.4-2.8.43-.43 1.19-.8 2.4-1.13 3.62-.16.08-.35.18-.42.32l-.05.1a.9.9 0 0 0-.47-.17v-.96c0-.43-2.82-.03-2.82.76v1.57c-.16.07-.32.15-.47.26l-.19.17a.38.38 0 0 0-.12.25l-.02.08-.05.06c-.13.13-.19.34-.03.47.19.16.5.17.74.16l.14-.01v.47l-.67-.01-.41-.05c-.02-.39-.68-.45-1.35-.33v-.15c-.1-.6-.18-1.19-.23-1.79.23-.08.47-.18.68-.31.15-.1.32-.22.32-.43v-.2c0-.17-.4-.2-.5-.2-.2-.01-.4 0-.58.04-.08-1.3-.09-2.62-.09-3.93 0-.84-2.82-.31-2.82.76 0 1.79 0 3.57.2 5.34l-.28.01v-1.53c0-1.04-1.3-1.22-2.14-.8.31-.27.49-.63.37-1.05-.4-1.41-.78-2.82-.98-4.28-.18-1.4-3.01-.68-2.82.75.2 1.46.57 2.87.97 4.29.24.83 1.34.89 2.1.5a1 1 0 0 0-.37.77v.63c-.18-.1-.43-.16-.76-.16-1.06 0-1.68.88-1.4 1.48l-.5-.09a14.1 14.1 0 0 1-.71-3.83c-.02-.94-1.27-1.05-2.1-.67a.57.57 0 0 0-.06-.17c-.38-.8-.56-1.67-.78-2.53-.33-1.35-3.15-.6-2.82.76.16.63.3 1.28.52 1.9h-.06c-.3.09-.6.21-.85.4-.83.07-1.83.56-1.75 1.2l.2 1.43-1.63.26c-.3-.79-.5-1.6-.62-2.44-.13-.93-1.56-.86-2.33-.26a22.56 22.56 0 0 0-3.12-5.76c-2.63-3.44-7.1-4.62-11.25-3.8a8.97 8.97 0 0 0-5.04 2.65c-1.21 1.35-1.35 3.09-1.17 4.8.16 1.5.61 4 1.58 5.98-.35-.01-.7.04-.94.14-.29.11-.57.25-.84.39-1.94.02-3.87.01-5.8-.07-4.18-.2-8.3-.86-12.5-.75-.92.03-1.53.72-1.46 1.27a4.31 4.31 0 0 0-2.15 2.28 53.99 53.99 0 0 0-5.33-3.2c-.69-.36-3.3.7-2.29 1.22 1.84.93 3.57 2.07 5.28 3.21.51.34 1.32.13 1.84-.07l.17-.08a9.72 9.72 0 0 0 .24 4.5c.03.1.1.2.17.27-.02.34-.02.67 0 1.01v.17c-.4.19-.72.48-.77.84a37.38 37.38 0 0 0-.3 4.23c-.27.2-.46.46-.49.8a49.9 49.9 0 0 0 .47 9.94c.19 2.7.69 5.35 1.17 8l.17 1.25a9.7 9.7 0 0 0-.24 3.48c-.88.17-1.73.87-1.23 1.62a9.09 9.09 0 0 0 2.6 2.65 2.3 2.3 0 0 0-1.87.55c-.81.81-1.71 1.53-2.53 2.34-.43.43-.31.94.29 1.08a2.3 2.3 0 0 0 2-.53c.81-.81 1.71-1.53 2.53-2.34.25-.25.3-.52.2-.73 3.21 1.73 7.24 1.27 11.12.94a34.5 34.5 0 0 0-2.17 5c-.26.72 2.5.37 2.8-.44a33.36 33.36 0 0 1 2.1-4.9c3.74.12 7.48.13 11.22.06.15.18.41.3.74.33 3.27.31 6.5-.1 9.7-.7 4.78-.23 9.57-.52 14.36-.8 7.52-.2 15.05-.35 22.58-.32l.32.31c.27.26.62.35.98.33l.2.02a69.72 69.72 0 0 1 2.7.2l2.35.2c.17.21.5.34.79.36 3.8.25 7.61.52 11.42.7.14.23.54.34.82.35 7.07.06 15.28 2.8 21.56-1.74.5-.36.27-.88-.26-.98a1.9 1.9 0 0 0-.33-.04l.02-.04a60.67 60.67 0 0 0 2.95-8.55c.36-.2.63-.5.64-.86.05-1.2.2-2.41.38-3.64.16-.89.3-1.77.44-2.66.38-2.17.8-4.37 1.01-6.54a50.1 50.1 0 0 0 6.63-3.82c1.56-1.12-.79-1.89-1.84-1.14zM87.83 16.35l-.13.13.23-.94h.1l-.2.81z"/><path id="29x1b" d="M20.68 10.91c.22.65 1.11.65 1.65.5.47-.12 1.4-.61 1.18-1.26-.21-.62-.44-1.29-.9-1.78-.48-.5-1.32-.41-1.9-.15-.41.2-1.18.84-.7 1.35.39.4.48.77.67 1.34z"/><path id="29x1c" d="M30.66 13.9c.84 0 3.07-1.28 1.19-1.28-.85 0-3.08 1.28-1.19 1.28z"/><path id="29x1d" d="M122.56 12.28c.35.07.72.03 1.06-.06.32-.09.7-.24.94-.48.35-.35.73-.73.96-1.18.1-.2.17-.4 0-.58-.2-.2-.51-.25-.77-.26-.37 0-.76.08-1.1.22-.26.11-.63.3-.76.56-.1.18-.22.35-.35.51l-.03.03a.52.52 0 0 0-.02.03l-.2.2c-.16.16-.34.36-.28.61.07.24.34.35.55.4z"/><path id="29x1e" d="M135.86 17.7c.63-.07 1.4-.25 1.9-.67 1.31-1.1 2.6-2.25 3.62-3.64.29-.4-1.05-.24-1.12-.23-.53.1-1.32.28-1.66.75a19.72 19.72 0 0 1-3.4 3.37c-.49.42.45.43.66.41z"/><path id="29x1f" d="M146.74 44.77h-4.87c-.62 0-1.48.47-1.56 1.14-.09.74.76.92 1.3.92h4.88c.61 0 1.47-.47 1.55-1.14.1-.73-.75-.92-1.3-.92z"/><path id="29x1g" d="M57.02 60.79c-.5.08-1.41.3-1.64.83a34.58 34.58 0 0 0-1.36 3.9c-.21.73 2.57.33 2.8-.46.38-1.32.82-2.62 1.36-3.9.22-.52-.97-.4-1.16-.37z"/><path id="29x1h" d="M61.6 63.38c-.35 0-.7.06-1.03.15-.33.09-.67.2-.97.38-.14.09-.33.2-.33.4l-.02.34a.76.76 0 0 1-.12.27c-.06.08-.1.18.02.25.2.12.5.09.71.07.38-.04.75-.13 1.1-.26.24-.08.61-.2.8-.4a.96.96 0 0 0 .28-.5c.04-.18.05-.35.05-.53 0-.17-.42-.17-.49-.17z"/><path id="29x1i" d="M116.65 67.05c-.35-.68-3.04.33-2.82.76.84 1.64 1.94 3.12 2.92 4.68.44.69 3.04-.42 2.82-.76-.98-1.55-2.07-3.04-2.92-4.68z"/><path id="29x1j" d="M120.74 64.72c-.29-.6-1.06-.57-1.62-.42-.35.1-1.49.6-1.2 1.17l1.17 2.34c.3.59 1.07.56 1.62.42.35-.1 1.49-.6 1.2-1.18l-1.17-2.33z"/><path id="29x1k" d="M5.67 43.1c-1.49.37-3 .58-4.48.98-.54.15-1.35.64-1.16 1.32.18.68 1.12.71 1.66.56 1.48-.4 3-.61 4.48-.97.54-.13 1.34-.65 1.16-1.32-.18-.68-1.12-.7-1.66-.56z"/><path id="29x1l" d="M43.75 40.1c-.08-2.7-.51-5.39-.48-8.1.03-2.2.4-4.45-.36-6.55l.14-.72c.2-1.06-3.3-.5-3.85.47-.34.28-.52.62-.38.96l.1.27a78.83 78.83 0 0 1-2.64 9.5c-.4 1.2-.9 2.36-1.3 3.56-.6-1.11-1.19-2.22-1.67-3.4-1.38-3.47-2.63-6.97-4.32-10.3.19-1.55-3.23-1.39-3.91.02-.82 1.71-.71 3.44-.44 5.27.3 2.06.35 4.08.38 6.16.05 4.01.36 8.02.42 12.03-.36.4-.47.89-.1 1.39.17.22.37.38.58.55.92.73 3.54.1 3.53-1.28-.01-4.16-.31-8.31-.42-12.47L29 36.24l.18.43c.64 1.62 1.32 3.2 2.2 4.7.88 1.49 1.32 3.1 1.82 4.72-.19.22-.3.47-.23.71-.04.19.07.3.25.37.65.55 1.86.27 2.53-.01.3-.12.57-.26.84-.43.34-.21.89-.68.73-1.17l-.09-.28c.48-1.28.72-2.61.98-3.96.27-1.44.79-2.8 1.3-4.17l.16 1.87c.2 2.57.04 5.12.01 7.7 0 .85.05 1.64.22 2.48.07.34.37 1.82.28 1.9-.61.57-.43 1.27.4 1.45.92.2 2.1-.1 2.79-.75 1.2-1.11.64-2.87.36-4.28-.46-2.36.1-5 .02-7.41z"/><path id="29x1m" d="M52.2 40.8c-.08-2.02-.78-3.9-.79-5.93-.01-2.33.18-4.64-.16-6.95-.1-.73-4.09.1-3.95 1.06.31 2.13.2 4.26.16 6.4-.03 2.07.47 3.94.74 5.97.27 2.07-.09 4.2.15 6.27.1.97.76 2.77.09 3.6-.42.55 1.48.35 1.57.34.77-.14 1.8-.4 2.32-1.05.66-.83.2-2.45.06-3.39-.32-2.08-.12-4.23-.2-6.33z"/><path id="29x1n" d="M68.67 37.44c-2.08-2.8-5.94-.79-8.64-1.55-1.39-.4-1.4-2.3-1.4-3.43 0-1.44-.12-2.76-.28-4.19-.12-1.06-.02-2.14.75-2.93.15-.14.87-.33.82-.34.36-.06.68-.07 1.08-.09 1.56-.07 4.65.23 4.05 2.5-.26 1.02 3.63.44 3.92-.64 1.22-4.64-7.35-3.75-9.78-3.1-2.23.59-4.69 1.86-4.82 4.43-.06 1.23.28 2.4.33 3.62.06 1.4-.2 2.8.3 4.16 1.09 3 5.56 1.59 7.84 1.76 3.88.29 2.72 5.52 2.77 7.95.03 1.3 1.2 3.47.22 4.55-.6.67-2 .71-2.82.78-.82.07-2.22.31-2.77-.47-1-1.43.1-3.83-.12-5.47-.12-.93-4.1-.1-3.95 1.06.34 2.65-1.41 6.2 2.42 6.65 2.47.3 5.24-.16 7.57-.93 1.2-.4 2.33-.95 3.27-1.81 1.05-.95.7-2.37.42-3.58-.68-2.95.74-6.33-1.18-8.93z"/><path id="29x1o" d="M86.15 37.25c-.12-3.81-.7-7.58-.7-11.4-.02-1.99-4-1.32-4 .35.02 3.64.5 7.23.69 10.86l.01.22c-1.97-.02-3.93.18-5.9.25.2-4.67-.62-9.31-.44-13.98.02-.59-3.91-.1-3.96 1.06-.17 4.51.6 9 .46 13.51-.06 2.15-.25 4.3-.26 6.46 0 1.1.17 2.2.33 3.3.15 1 .49 2.35.18 3.34-.23.78 3.6.3 3.9-.7.55-1.8-.22-4.08-.4-5.9-.18-1.73-.05-3.52.08-5.29 2.04-.13 4.1-.3 6.13 0 .1 1.38.2 2.77.33 4.16.1 1.17.18 2.34.2 3.51.01 1.03.14 2.52-.23 3.5-.78 2.07 3.18 1.9 3.76.36.71-1.89.5-4.24.39-6.22-.16-2.47-.49-4.92-.57-7.39z"/><path id="29x1p" d="M103.24 41.76c-.95-2.78-2.4-5.22-3.65-7.86 1.01-1.97 2.04-3.94 2.96-5.95.84-1.82 1.46-3.85 3.1-5.13.59-.46.56-.9-.25-.96-.88-.07-2.08.19-2.8.74a10.84 10.84 0 0 0-3.22 4.31c-.94 2.07-1.92 4.1-2.94 6.13l-.23.45c-.5.32-.8.77-.64 1.28a72.51 72.51 0 0 1-2.53 4.65c-.3-5.58-.96-11.16-1.16-16.75-.04-1.28-4-.49-3.95 1.06.25 6.93 1.23 13.84 1.3 20.77l-.05.05c-.3.31-.19.5.05.61 0 1.77-.06 3.53-.2 5.3-.48.75.46 1.15 1.09 1.15h.1c.74 0 2.64-.35 2.74-1.37.19-2.12.25-4.24.23-6.35a31.68 31.68 0 0 0 4.1-5.69c.76 1.5 1.49 3 2 4.63.87 2.76 2.32 5.3 3.16 8.08.55 1.82 4.5.75 3.95-1.06-.84-2.77-2.22-5.34-3.16-8.09z"/><path id="29x1q" d="M126.96 37.09c-.21-.84-1.39-.86-2.3-.78l-.03-1.02c-.13-2.68-.17-5.42-.4-8.1-.2-2.48-1.6-3.37-4-3.28-2.44.1-5.28.54-7.55 1.42-2.63 1.02-4.1 2.96-4.6 5.73-.56 3.04.24 6.28.37 9.33.16 3.54.07 7.08.07 10.62 0 .58 3.95.03 3.95-1.06 0-2.8.04-5.6 0-8.4-.02-.83-.05-1.65-.1-2.47 1.38-.6 3.72.01 5.1.14 1.1.11 2.18-.16 3.26-.29.03 2.33.11 4.68.2 7 .06 1.2.49 3.57-.35 4.56-.44.52 1.5.35 1.57.33.8-.14 1.78-.4 2.32-1.05.96-1.13.47-3.82.4-5.17-.07-1.93-.1-3.86-.13-5.79 1.16-.15 2.44-.86 2.22-1.72zm-14.75-.15c-.1-1.26-.22-2.52-.3-3.78-.17-2.35.11-5.64 2.3-7.06.59-.39 1.7-.32 2.38-.45.98-.17 1.97-.39 2.85.2 1.22.8.92 3.69.92 4.91 0 2.02.21 4.04.31 6.06-.55.05-1.12.09-1.7.08-2.3-.06-4.58-.42-6.76.04z"/></defs><g><g><use xlink:href="#29x1a"/></g><g><use xlink:href="#29x1b"/></g><g><use xlink:href="#29x1c"/></g><g><use xlink:href="#29x1d"/></g><g><use xlink:href="#29x1e"/></g><g><use xlink:href="#29x1f"/></g><g><use xlink:href="#29x1g"/></g><g><use xlink:href="#29x1h"/></g><g><use xlink:href="#29x1i"/></g><g><use xlink:href="#29x1j"/></g><g><use xlink:href="#29x1k"/></g><g><use fill="#fff" xlink:href="#29x1l"/></g><g><use fill="#fff" xlink:href="#29x1m"/></g><g><use fill="#fff" xlink:href="#29x1n"/></g><g><use fill="#fff" xlink:href="#29x1o"/></g><g><use fill="#fff" xlink:href="#29x1p"/></g><g><use fill="#fff" xlink:href="#29x1q"/></g></g></svg>