<svg xmlns="http://www.w3.org/2000/svg" xmlns:xlink="http://www.w3.org/1999/xlink" width="86" height="35" viewBox="0 0 86 35"><defs><path id="dk1ka" d="M4.18 26.3c-.01-3.48-.26-6.94-.36-10.41l-.02-1.02.15.36c.54 1.35 1.1 2.66 1.84 3.92.73 1.25 1.1 2.58 1.52 3.94-.16.18-.26.4-.2.6-.03.15.06.24.22.3.53.46 1.54.23 2.1 0 .25-.1.48-.23.7-.36.3-.18.75-.57.62-.98l-.07-.23c.4-1.07.6-2.18.8-3.31.24-1.2.67-2.35 1.1-3.49l.13 1.57c.17 2.15.03 4.27 0 6.42 0 .71.05 1.38.2 2.08.05.28.3 1.52.23 1.59-.52.47-.37 1.06.32 1.2a2.8 2.8 0 0 0 2.34-.62c1-.93.53-2.4.3-3.57-.39-1.97.08-4.18.02-6.19-.07-2.26-.43-4.5-.4-6.77.02-1.83.32-3.71-.3-5.47l.11-.6c.16-.88-2.75-.41-3.21.4-.3.23-.44.51-.31.8l.08.22a65.77 65.77 0 0 1-2.2 7.93c-.35 1-.76 1.97-1.1 2.97-.5-.93-.99-1.85-1.39-2.84-1.15-2.9-2.2-5.82-3.6-8.6.15-1.29-2.7-1.15-3.27.03-.68 1.42-.59 2.86-.37 4.4.26 1.71.3 3.4.32 5.14.04 3.34.3 6.69.35 10.04-.3.33-.38.74-.07 1.16.13.18.3.32.48.46.76.6 2.95.09 2.94-1.07z"/><path id="dk1kb" d="M22.38 7.92c-.1-.6-3.42.09-3.3.89.26 1.78.16 3.56.13 5.35-.03 1.72.4 3.28.62 4.97.22 1.73-.07 3.5.12 5.24.1.8.64 2.3.08 3.01-.36.45 1.24.29 1.3.28.65-.12 1.52-.33 1.95-.88.55-.7.16-2.04.04-2.82-.27-1.74-.1-3.54-.16-5.29-.06-1.67-.64-3.25-.65-4.94-.01-1.95.15-3.87-.13-5.8z"/><path id="dk1kc" d="M25.5 14.57c.91 2.51 4.65 1.33 6.55 1.47 3.24.24 2.27 4.6 2.31 6.64.03 1.09 1 2.89.18 3.8-.5.55-1.67.59-2.35.65-.69.05-1.85.26-2.31-.4-.84-1.19.08-3.2-.1-4.56-.1-.78-3.43-.08-3.3.88.29 2.21-1.18 5.18 2.02 5.56a15.2 15.2 0 0 0 6.32-.79c1-.33 1.94-.79 2.73-1.5.87-.8.59-1.98.35-3-.57-2.45.62-5.28-.99-7.45-1.73-2.34-4.96-.65-7.2-1.3-1.17-.32-1.18-1.9-1.18-2.85 0-1.2-.1-2.3-.23-3.5-.1-.88-.02-1.78.63-2.44.12-.12.72-.29.68-.29.3-.05.57-.06.9-.07 1.3-.06 3.89.2 3.39 2.09-.23.85 3.02.36 3.26-.54 1.02-3.87-6.14-3.13-8.16-2.6-1.86.5-3.91 1.56-4.02 3.71-.05 1.03.23 2 .27 3.02.06 1.17-.16 2.34.25 3.47z"/><path id="dk1kd" d="M39.95 16.44c-.05 1.8-.2 3.6-.22 5.4 0 .91.15 1.83.28 2.74.13.84.41 1.97.16 2.8-.2.65 3 .24 3.25-.59.46-1.5-.19-3.4-.34-4.92-.15-1.45-.03-2.94.07-4.42 1.7-.1 3.42-.24 5.12 0 .08 1.16.16 2.31.27 3.48.1.97.15 1.95.17 2.93.01.85.12 2.1-.19 2.9-.65 1.74 2.66 1.6 3.14.32.59-1.58.42-3.54.32-5.2-.13-2.06-.4-4.1-.47-6.16-.1-3.19-.58-6.33-.6-9.52 0-1.66-3.33-1.1-3.32.29 0 3.04.41 6.04.57 9.07v.18c-1.63-.01-3.27.15-4.92.2.17-3.9-.52-7.76-.37-11.66.02-.5-3.26-.08-3.3.88-.14 3.77.5 7.51.38 11.28z"/><path id="dk1ke" d="M54.03 21.81c-.25.26-.15.42.05.5 0 1.48-.05 2.96-.18 4.43-.4.63.4.96.91.96h.09c.62 0 2.2-.3 2.28-1.15.17-1.77.22-3.53.2-5.3a26.54 26.54 0 0 0 3.42-4.74c.64 1.24 1.24 2.5 1.67 3.86.73 2.3 1.94 4.43 2.64 6.75.46 1.52 3.75.62 3.3-.89-.7-2.32-1.86-4.46-2.64-6.75-.8-2.32-2-4.36-3.05-6.57.85-1.64 1.7-3.28 2.47-4.96.7-1.52 1.22-3.21 2.6-4.28.48-.38.46-.76-.22-.8a3.71 3.71 0 0 0-2.33.62 9.03 9.03 0 0 0-2.7 3.6c-.78 1.72-1.6 3.41-2.45 5.11l-.19.37c-.41.27-.66.65-.54 1.07a60.2 60.2 0 0 1-2.1 3.88c-.25-4.66-.8-9.31-.97-13.98-.04-1.07-3.35-.4-3.3.89.2 5.78 1.03 11.55 1.08 17.34l-.04.04z"/><path id="dk1kf" d="M85.57 15.58c-.18-.7-1.16-.72-1.92-.65l-.02-.85c-.11-2.24-.14-4.53-.33-6.76-.18-2.07-1.34-2.81-3.35-2.74-2.03.08-4.4.45-6.3 1.19a5.88 5.88 0 0 0-3.84 4.78c-.47 2.54.2 5.24.31 7.79.13 2.95.06 5.9.06 8.86 0 .48 3.3.03 3.3-.89 0-2.33.03-4.67 0-7-.02-.7-.05-1.38-.1-2.07 1.16-.5 3.11.01 4.26.12.93.1 1.83-.13 2.73-.24.02 1.94.1 3.9.17 5.85.05 1 .4 2.97-.3 3.8-.36.43 1.26.29 1.32.28.66-.13 1.48-.34 1.94-.88.8-.94.38-3.19.33-4.31-.06-1.62-.08-3.23-.12-4.84.98-.13 2.04-.73 1.86-1.44zm-6.66-.16c-1.93-.05-3.83-.35-5.65.03-.09-1.05-.19-2.1-.26-3.15-.13-1.96.1-4.7 1.93-5.9.5-.31 1.41-.26 1.98-.36.82-.15 1.65-.33 2.39.16 1.01.67.76 3.08.76 4.1 0 1.69.18 3.37.26 5.05-.46.05-.93.08-1.41.07z"/><path id="dk1kg" d="M18.7 4.1c-.05.18.01.36.12.5v.11l.01.29c.07.19.19.34.37.44.32.2.73.23 1.1.2.44-.04.89-.2 1.25-.44l.22-.18c.43-.29.81-.7.6-1.15-.42-.93-.35-1.88-.34-2.88 0-.8-.81-1.05-1.5-.99-.61.06-1.83.5-1.83 1.28-.01.84-.06 1.7.09 2.53-.04.09-.07.2-.09.3z"/><path id="dk1kh" d="M80.28 33.28c-1.56-.58-3.29-.61-4.85-.78-1.6-.17-3.25-.41-4.89-.57-1.63.06-3.3.03-4.97.13l-4.88.27c-6.49.3-13 .25-19.52.1-6.51-.11-13.04-.47-19.62-.44-3.3 0-6.57.1-9.87.25-1.63.28-3.24.5-4.9.9-1.62.4-3.15.92-4.8 1.06 1.63.36 3.35.29 4.97.3 1.58 0 3.24.14 4.87.22 3.23-.17 6.49-.24 9.73-.25 6.49-.03 13.02.33 19.57.45 6.55.14 13.11.18 19.68-.11l4.9-.27c1.61-.07 3.2-.13 4.84-.07 1.62-.15 3.25-.33 4.91-.53 1.67-.24 3.22-.63 4.86-.5h.07v-.06c.03-.18-.03-.32-.03-.48-.04.13-.04.27-.07.38z"/></defs><g><g><use xlink:href="#dk1ka"/></g><g><use xlink:href="#dk1kb"/></g><g><use xlink:href="#dk1kc"/></g><g><use xlink:href="#dk1kd"/></g><g><use xlink:href="#dk1ke"/></g><g><use xlink:href="#dk1kf"/></g><g><use xlink:href="#dk1kg"/></g><g><use xlink:href="#dk1kh"/></g></g></svg>