<svg xmlns="http://www.w3.org/2000/svg" xmlns:xlink="http://www.w3.org/1999/xlink" width="60" height="60" viewBox="0 0 60 60"><defs><path id="fda7a" d="M0 20.33l27.44 15.94v23.34L0 43.68zm57.53-4.3L30.18 31.9 2.65 15.92l5.95-3.45v2.42c0 1.82 3.46 3.29 7.73 3.29 4.27 0 7.72-1.47 7.72-3.29v-4.06h-.02c-.26 1.72-3.6 3.07-7.7 3.07-4.27 0-7.73-1.47-7.73-3.28 0-1.82 3.46-3.29 7.73-3.29l1.05.03 4.8-2.79v2.99c0 .44.2.85.57 1.24.3.18.54.38.73.58 1.4.89 3.75 1.47 6.44 1.47 4.26 0 7.72-1.47 7.72-3.3V4.48l4.97 2.9c.33-.03.67-.04 1-.04 4.28 0 7.73 1.47 7.73 3.29 0 1.81-3.45 3.28-7.72 3.28-4.1 0-7.45-1.35-7.7-3.07h-.03v4.06c0 1.82 3.46 3.29 7.73 3.29 4.27 0 7.73-1.47 7.73-3.29v-2.45zM37.7 18.54h-.02c-.26 1.72-3.6 3.08-7.7 3.08s-7.45-1.36-7.7-3.08h-.03v4.06c0 1.82 3.46 3.3 7.73 3.3 4.26 0 7.72-1.48 7.72-3.3zm22.3 2v23.14L32.56 59.62V36.48zM29.92 6.57c-4.27 0-7.73-1.47-7.73-3.28 0-1.82 3.46-3.29 7.73-3.29 4.26 0 7.72 1.47 7.72 3.29 0 1.81-3.46 3.28-7.72 3.28z"/></defs><g><g><use fill="#231f20" xlink:href="#fda7a"/></g></g></svg>