<svg xmlns="http://www.w3.org/2000/svg" xmlns:xlink="http://www.w3.org/1999/xlink" width="1150" height="34" viewBox="0 0 1150 34"><defs><path id="a2kba" d="M1121.25 0c-14.37 0-14.37 14-28.75 14-14.37 0-14.37-14-28.75-14-14.37 0-14.37 14-28.74 14-14.38 0-14.38-14-28.75-14-14.38 0-14.38 14-28.75 14-14.38 0-14.38-14-28.75-14s-14.37 14-28.75 14c-14.37 0-14.37-14-28.75-14-14.37 0-14.37 14-28.75 14-14.37 0-14.37-14-28.75-14-14.37 0-14.37 14-28.74 14S790.65 0 776.27 0c-14.37 0-14.37 14-28.74 14-14.38 0-14.38-14-28.75-14s-14.37 14-28.75 14c-14.37 0-14.37-14-28.74-14-14.38 0-14.38 14-28.75 14-14.38 0-14.38-14-28.75-14-14.38 0-14.38 14-28.75 14S560.67 0 546.29 0c-14.37 0-14.37 14-28.75 14-14.37 0-14.37-14-28.74-14-14.38 0-14.38 14-28.75 14-14.38 0-14.38-14-28.76-14-14.37 0-14.37 14-28.75 14-14.37 0-14.37-14-28.75-14-14.37 0-14.37 14-28.75 14-14.37 0-14.37-14-28.75-14s-14.38 14-28.75 14c-14.38 0-14.38-14-28.75-14-14.38 0-14.38 14-28.75 14-14.38 0-14.38-14-28.75-14-14.38 0-14.38 14-28.75 14-14.38 0-14.38-14-28.76-14-14.37 0-14.37 14-28.75 14S100.65 0 86.27 0C71.9 0 71.9 14 57.52 14S43.14 0 28.76 0 14.38 14 0 14v20h1150V14c-14.37 0-14.37-14-28.75-14z"/></defs><g><g><use fill="#fff" xlink:href="#a2kba"/></g></g></svg>