<svg width="25" height="25" viewBox="11 0 25 25" fill="none" xmlns="http://www.w3.org/2000/svg">
<path d="M28.4761 5.11195L33.2775 0.306021C33.9306 -0.347712 35.0475 0.11529 35.0475 1.03989V13.882C35.0474 9.71656 31.7522 7.18325 28.4761 5.11195Z" fill="#FF7236"/>
<path d="M35.0475 13.8822C35.0475 20.3403 29.8171 25.5755 23.3651 25.5755C16.9131 25.5755 11.6826 20.3402 11.6826 13.8822C11.6826 7.42414 16.913 2.91962 23.3651 2.91962C29.8172 2.91962 35.0475 7.42406 35.0475 13.8822Z" fill="#FFAA50"/>
<path d="M18.2539 13.882C18.2539 8.2538 21.4825 4.11194 25.7821 3.13975C25.0018 2.99645 24.194 2.91946 23.365 2.91946C21.2152 2.91946 19.2077 3.42899 17.4775 4.33479L13.4524 0.306021C12.7993 -0.347712 11.6825 0.11529 11.6825 1.03989V13.882C11.6825 13.6184 11.6825 13.6198 11.6825 13.882C11.6825 20.3401 16.9129 25.5754 23.3649 25.5754C24.194 25.5754 25.0018 25.486 25.782 25.3217C21.4825 24.2069 18.2539 19.5101 18.2539 13.882Z" fill="#FF7236"/>
<path d="M20.8094 21.1903C22.2208 21.1903 23.3649 20.2087 23.3649 18.9979C23.3649 17.787 22.2208 16.8054 20.8094 16.8054C19.398 16.8054 18.2539 17.787 18.2539 18.9979C18.2539 20.2087 19.398 21.1903 20.8094 21.1903Z" fill="#FFFDFB"/>
<path d="M25.9207 21.1904C27.3321 21.1904 28.4762 20.2088 28.4762 18.9979C28.4762 17.787 27.3321 16.8054 25.9207 16.8054C24.5094 16.8054 23.3652 17.787 23.3652 18.9979C23.3652 20.2088 24.5094 21.1904 25.9207 21.1904Z" fill="#FFFDFB"/>
<path d="M23.3652 18.9983C24.1717 18.9983 24.8255 18.3439 24.8255 17.5367C24.8255 16.7294 24.1717 16.075 23.3652 16.075C22.5586 16.075 21.9048 16.7294 21.9048 17.5367C21.9048 18.3439 22.5586 18.9983 23.3652 18.9983Z" fill="#FF913C"/>
<path d="M18.9842 14.6128C18.5806 14.6128 18.2541 14.2856 18.2541 13.882V13.1512C18.2541 12.7476 18.5807 12.4204 18.9842 12.4204C19.3877 12.4204 19.7143 12.7476 19.7143 13.1512V13.882C19.7143 14.2856 19.3877 14.6128 18.9842 14.6128Z" fill="#1A212F"/>
<path d="M27.7459 14.6128C27.3423 14.6128 27.0158 14.2856 27.0158 13.882V13.1512C27.0158 12.7476 27.3424 12.4204 27.7459 12.4204C28.1495 12.4204 28.4761 12.7476 28.4761 13.1512V13.882C28.4761 14.2856 28.1495 14.6128 27.7459 14.6128Z" fill="#1A212F"/>
</svg>
