<svg width="104" height="144" viewBox="0 0 104 144" fill="none" xmlns="http://www.w3.org/2000/svg">
<path d="M39.5802 82.31C57.5635 79.6469 71.5671 101.944 58.0528 112.503C52.2241 117.057 43.7921 116.662 37.2151 112.873C22.0255 104.123 24.1387 84.5944 39.5802 82.31Z" fill="#FAC663" fill-opacity="0.15"/>
<path d="M54.3729 74.8684C39.4243 86.5476 15.3228 64.9249 26.2982 49.6994C31.2991 42.7632 42.1829 41.528 50.9919 47.9318C60.8681 55.1074 62.7768 68.3027 54.3729 74.8684Z" fill="#FAC663" fill-opacity="0.15"/>
<path d="M93.1516 116.578C94.7839 114.388 98.1825 111.144 101.998 108.078C106.028 104.834 110.522 101.788 113.875 100.387C122.94 96.6162 129.202 83.7127 118.904 75.1213C109.382 67.1796 102.407 73.5056 93.5851 65.8215C84.6749 58.0515 74.3732 58.9904 67.9819 64.5396C62.0673 69.6763 59.5045 78.7631 64.5105 88.5405C69.8472 98.9573 62.0328 104.178 67.4357 115.333C73.2789 127.418 87.3144 124.42 93.1516 116.578Z" fill="#FAC663" fill-opacity="0.15"/>
<path d="M80.6828 54.3143C76.4544 57.6179 70.9243 58.0249 66.0005 55.8821C51.3609 49.5091 49.2511 26.5009 63.0607 20.9921C80.5225 14.0184 95.6232 42.6416 80.6828 54.3143Z" fill="#FAC663" fill-opacity="0.15"/>
<path d="M100.666 65.9648C86.7868 58.0934 87.0732 35.0089 101.429 30.9861C118.72 26.1398 131.075 53.8523 116.684 65.0961C112.065 68.7045 105.942 68.9573 100.666 65.9648Z" fill="#FAC663" fill-opacity="0.15"/>
</svg>
