<svg width="21" height="18" viewBox="0 0 21 18" fill="none" xmlns="http://www.w3.org/2000/svg">
<path d="M16.8031 6.52453C13.8387 8.22469 14.3436 13.1874 17.5591 13.1874C18.946 13.1874 20.1462 12.1448 20.6806 10.8119C21.9148 7.73355 19.3483 5.06432 16.8031 6.52453Z" fill="#FF7236"/>
<path d="M13.7586 7.1392C17.3154 7.1392 18.3804 1.09929 15.0012 0.106307C13.4617 -0.345957 11.711 0.739227 11.1487 2.72296C10.5178 4.9464 11.759 7.1392 13.7586 7.1392Z" fill="#FF7236"/>
<path d="M12.8437 17.8903C12.3498 17.7537 11.4731 17.6658 10.5555 17.6531C9.58552 17.6389 8.56998 17.7084 7.9129 17.8903C6.13825 18.3847 3.72349 17.1886 4.25331 14.7045C4.74339 12.408 6.50423 12.5389 6.92063 10.3625C7.34018 8.16298 8.97062 7.10147 10.5555 7.18444C12.0223 7.26144 13.4499 8.31922 13.8389 10.363C14.2529 12.5409 16.0101 12.4088 16.4995 14.7045C17.0312 17.1906 14.6114 18.3802 12.8437 17.8903Z" fill="#FF7236"/>
<path d="M7.49872 7.13932C8.5048 7.13932 9.36886 6.55499 9.849 5.66068C11.2763 3.00141 8.9321 -0.680001 6.25584 0.10841C2.87087 1.10414 3.94385 7.13932 7.49872 7.13932Z" fill="#FF7236"/>
<path d="M5.89092 11.21C7.03298 8.41567 4.32592 5.00238 1.74052 6.07635C-1.37373 7.36985 -0.000200187 12.9488 3.42405 12.9488C4.52297 12.9488 5.45683 12.2723 5.89092 11.21Z" fill="#FF7236"/>
<path d="M12.8437 17.8902C12.3497 17.7536 11.473 17.6657 10.5554 17.6529V7.18433C12.0223 7.26132 13.4498 8.3191 13.8388 10.3629C14.2528 12.5407 16.01 12.4087 16.4994 14.7044C17.0311 17.1905 14.6113 18.3801 12.8437 17.8902Z" fill="#FF7236"/>
</svg>
