<svg width="78" height="90" viewBox="0 0 78 90" fill="none" xmlns="http://www.w3.org/2000/svg">
<path d="M45.9924 21.4248C32.467 25.0975 19.5517 9.25332 28.8792 -0.074146C32.9021 -4.09704 39.4045 -4.55765 44.8169 -2.24582C57.3167 3.09405 57.6063 18.273 45.9924 21.4248Z" fill="#FFFEFD" fill-opacity="0.2"/>
<path d="M35.3801 28.4759C45.6975 18.1585 66.2878 32.5703 59.363 45.2496C56.2076 51.0259 47.985 52.9597 40.6059 48.8428C32.3333 44.2303 29.5799 34.2761 35.3801 28.4759Z" fill="#FFFEFD" fill-opacity="0.2"/>
<path d="M1.57427 -0.0229197C0.537101 1.80558 -1.751 4.60343 -4.37597 7.30204C-7.14847 10.1568 -10.2957 12.9012 -12.7288 14.2802C-19.3091 17.9955 -22.848 28.4658 -14.1133 34.1267C-6.03755 39.3593 -1.30887 33.8725 6.20513 38.9708C13.7954 44.1271 21.6007 42.4734 25.9576 37.6356C29.9894 33.1576 31.0655 25.9516 26.2719 18.9011C21.1622 11.3898 26.6421 6.67532 21.4096 -1.39615C15.7485 -10.1423 5.28221 -6.56984 1.57427 -0.0229197Z" fill="#FFFEFD" fill-opacity="0.2"/>
<path d="M17.2211 46.6336C20.1395 43.7152 24.339 42.902 28.3231 44.1006C40.1688 47.6657 44.036 65.1328 33.9884 70.6115C21.2843 77.5452 6.90936 56.9454 17.2211 46.6336Z" fill="#FFFEFD" fill-opacity="0.2"/>
<path d="M0.76275 39.5022C12.1723 44.2861 14.2101 62.0289 3.59862 66.4165C-9.18304 71.7021 -21.3641 51.5525 -11.4313 41.6197C-8.2436 38.432 -3.57441 37.6834 0.76275 39.5022Z" fill="#FFFEFD" fill-opacity="0.2"/>
</svg>
