<svg width="100" height="135" viewBox="0 0 100 135" fill="none" xmlns="http://www.w3.org/2000/svg">
<path d="M44.4872 42.2389C56.4236 56.837 44.0385 81.3194 27.4562 74.9541C20.3043 72.2087 16.1697 64.4795 16.0408 56.5777C15.7439 38.3281 34.2401 29.7029 44.4872 42.2389Z" fill="#FAC663" fill-opacity="0.15"/>
<path d="M58.977 51.4213C40.6347 44.3804 47.0474 11.2591 66.4307 12.8497C75.2615 13.5751 82.1506 22.6127 81.1404 33.9117C80.0114 46.5773 69.2886 55.3796 58.977 51.4213Z" fill="#FAC663" fill-opacity="0.15"/>
<path d="M42.5036 108.436C45.32 108.713 50.0143 109.997 54.7715 111.748C59.8016 113.595 64.9016 115.962 67.9316 118.197C76.1089 124.248 90.9192 122.887 93.0831 109.083C95.0822 96.3216 85.7438 93.5076 87.8861 81.5085C90.0578 69.384 83.742 60.7059 75.4054 57.9946C67.6892 55.4863 58.2424 58.0917 52.2079 67.8158C45.7805 78.1789 36.979 74.0223 29.9306 84.8414C22.2882 96.554 32.4225 107.452 42.5036 108.436Z" fill="#FAC663" fill-opacity="0.15"/>
<path d="M91.2585 63.8142C86.0702 61.8226 82.7661 57.1118 82.0527 51.5694C79.9336 35.0894 99.2787 20.827 111.526 30.1731C127.019 41.9866 109.591 70.8513 91.2585 63.8142Z" fill="#FAC663" fill-opacity="0.15"/>
<path d="M91.5259 87.8981C91.1441 71.2893 111.832 59.1219 123.048 69.7544C136.558 82.561 118.479 108.488 100.82 101.71C95.1532 99.5342 91.6708 94.2118 91.5259 87.8981Z" fill="#FAC663" fill-opacity="0.15"/>
</svg>
