<svg xmlns="http://www.w3.org/2000/svg" height="62.723" width="56.112"><path d="M45.525 18.678H10.593a5.38 5.38 0 0 0-.024.444v25.006c0 2.568 1.942 4.654 4.422 4.836v9.912a3.847 3.847 0 0 0 7.693 0v-9.893H33.43v9.893a3.845 3.845 0 0 0 3.845 3.847 3.846 3.846 0 0 0 3.848-3.847v-9.912c2.479-.182 4.421-2.268 4.421-4.836V19.122c0-.15-.005-.298-.018-.444M3.848 20.905a3.848 3.848 0 0 1 3.848 3.847v16.504a3.847 3.847 0 0 1-3.848 3.848A3.847 3.847 0 0 1 0 41.256V24.752a3.847 3.847 0 0 1 3.848-3.847m48.416 0a3.847 3.847 0 0 1 3.848 3.847v16.504a3.846 3.846 0 0 1-3.848 3.848 3.846 3.846 0 0 1-3.846-3.848V24.752a3.846 3.846 0 0 1 3.846-3.847M18.907 9.072c-.001-1.074.887-1.947 1.985-1.95 1.099-.002 1.992.864 1.996 1.939v.01c.003 1.074-.885 1.947-1.984 1.95-1.1.003-1.993-.865-1.997-1.939zm14.857 0c-.002-1.074.886-1.947 1.984-1.95 1.103-.002 1.992.864 1.998 1.939v.01c.002 1.074-.886 1.947-1.987 1.95-1.097.003-1.99-.865-1.995-1.939zm-23.057 6.884h34.7c-.052-3.711-1.645-7.096-4.248-9.7L44.42.609a.405.405 0 1 0-.703-.405L40.556 5.68c-2.736-2.471-8.332-4.534-12.499-4.534-4.021 0-9.762 2.063-12.498 4.534L12.395.202a.406.406 0 0 0-.701.406l3.26 5.646c-2.6 2.606-4.196 5.99-4.247 9.702" fill="#a4c639"/></svg>