<!DOCTYPE svg PUBLIC "-//W3C//DTD SVG 20010904//EN" "http://www.w3.org/TR/2001/REC-SVG-20010904/DTD/svg10.dtd">
<svg version="1.0" xmlns="http://www.w3.org/2000/svg" width="75px" height="22px" viewBox="0 0 750 220" preserveAspectRatio="xMidYMid meet">
<g id="layer101" fill="#ffffff" stroke="none">
 <path d="M0 110 l0 -110 68 0 c79 0 105 18 105 71 0 44 -32 71 -92 77 -50 4 -51 5 -51 38 0 24 -5 34 -15 34 -12 0 -15 -19 -15 -110z m128 -12 c30 -30 -2 -68 -59 -68 -39 0 -39 0 -39 40 l0 40 43 0 c24 0 48 -5 55 -12z"/>
 <path d="M210 110 c0 -103 1 -110 20 -110 19 0 20 7 20 110 0 103 -1 110 -20 110 -19 0 -20 -7 -20 -110z"/>
 <path d="M310 110 c0 -138 10 -141 95 -35 l60 75 3 -75 c3 -67 5 -75 22 -75 19 0 20 7 20 110 0 100 -2 110 -18 110 -12 0 -45 -32 -83 -80 l-64 -79 -3 79 c-2 62 -6 80 -17 80 -12 0 -15 -20 -15 -110z"/>
 <path d="M560 110 c0 -103 1 -110 20 -110 18 0 20 7 20 57 l0 57 58 -57 c54 -54 92 -72 92 -45 0 7 -19 28 -41 48 l-42 36 42 47 c22 27 41 55 41 63 0 27 -28 14 -68 -33 -40 -48 -40 -48 -61 -29 -12 11 -21 31 -21 48 0 21 -5 28 -20 28 -19 0 -20 -7 -20 -110z"/>
 </g>

</svg>