<svg xmlns="http://www.w3.org/2000/svg" height="35.668667" width="35.668667"><g transform="matrix(1.3333333,0,0,-1.3333333,0,35.668667)"><g transform="translate(15.4976,13.375)"><path fill="#000000" d="m 0,0 10.814,10.814 c 0.586,0.585 0.586,1.535 0,2.121 -0.585,0.586 -1.535,0.586 -2.121,0 L -2.121,2.121 -12.935,12.937 c -0.586,0.586 -1.535,0.586 -2.121,0 -0.586,-0.585 -0.586,-1.535 0,-2.121 L -4.242,0.001 -15.058,-10.814 c -0.586,-0.586 -0.586,-1.536 0,-2.122 0.293,-0.293 0.677,-0.438 1.061,-0.438 0.384,0 0.768,0.145 1.061,0.438 L -2.121,-2.121 8.693,-12.936 c 0.293,-0.293 0.677,-0.439 1.061,-0.439 0.384,0 0.767,0.146 1.06,0.439 0.586,0.586 0.586,1.536 0,2.122 z" /></g></g></svg>