<svg xmlns="http://www.w3.org/2000/svg" xmlns:xlink="http://www.w3.org/1999/xlink" width="20" height="20" viewBox="0 0 20 20"><defs><path id="vw93a" d="M9.85 0c3.5 0 7.02.63 8.3 1.88 1.06 1.04 1.41 2.88 1.53 4.04l.02.16c0 .46-.37.82-.83.82a509.46 509.46 0 0 1-3.3-.27.82.82 0 0 1-.8-.82V4.19c0-.5-.4-.9-.9-.9H5.82c-.5 0-.9.4-.9.9v1.62c0 .45-.36.8-.8.82l-.1.01-3.21.26A.82.82 0 0 1 0 6.08l.02-.16c.11-1.16.47-3 1.53-4.04C2.82.63 6.34.01 9.85.01zm0 10.68a1.64 1.64 0 1 1 0 3.28 1.64 1.64 0 0 1 0-3.29zm1.23-3.7V5.96a1.03 1.03 0 1 1 2.05 0v1.02l5.54 5.91c.38.38.61.9.61 1.47v1.65c0 .9-.73 1.64-1.64 1.64h-.4v1.03a1.02 1.02 0 1 1-2.06 0v-1.03H4.51v1.03a1.02 1.02 0 1 1-2.05 0v-1.03h-.4c-.91 0-1.65-.73-1.65-1.64v-1.65c0-.57.24-1.1.62-1.47l5.54-5.91V5.96a1.02 1.02 0 1 1 2.05 0v1.02zM9.85 9.03a3.28 3.28 0 1 0 0 6.56 3.28 3.28 0 0 0 0-6.56z"/></defs><g><g clip-path="url(#clip-0:0:c)"><use fill="#d22856" xlink:href="#vw93a"/></g></g></svg>
