<!DOCTYPE svg PUBLIC "-//W3C//DTD SVG 20010904//EN" "http://www.w3.org/TR/2001/REC-SVG-20010904/DTD/svg10.dtd">
<svg version="1.0" xmlns="http://www.w3.org/2000/svg" width="238px" height="276px" viewBox="0 0 2380 2760" preserveAspectRatio="xMidYMid meet">
<g id="layer101" fill="#d22856" stroke="none">
 <path d="M941 2739 c-462 -97 -827 -464 -920 -926 -23 -113 -29 -331 -11 -440 60 -367 292 -689 623 -864 96 -50 239 -102 317 -114 77 -11 80 -13 80 -51 l0 -34 -50 0 c-59 0 -97 -17 -133 -59 -51 -61 -43 -152 18 -211 l36 -35 289 0 289 0 36 35 c61 59 69 150 18 211 -36 42 -74 59 -133 59 l-50 0 0 34 c0 38 3 40 80 51 123 19 304 97 439 187 l73 50 37 -35 c87 -86 205 -75 231 21 14 52 -3 106 -49 155 l-38 40 55 81 c95 139 165 314 192 479 18 109 12 327 -11 440 -94 465 -460 831 -926 926 -137 28 -358 28 -492 0z m394 -314 c258 -45 485 -206 619 -438 121 -210 141 -506 49 -735 -106 -266 -334 -465 -608 -534 -125 -31 -296 -30 -415 1 -324 85 -577 348 -645 671 -19 91 -19 258 0 348 97 461 542 767 1000 687z"/>
 </g>
<g id="layer102" fill="#dedede" stroke="none">
 <path d="M941 2739 c-462 -97 -827 -464 -920 -926 -23 -113 -29 -331 -11 -440 60 -367 292 -689 623 -864 96 -50 239 -102 317 -114 77 -11 80 -13 80 -51 l0 -34 -50 0 c-59 0 -97 -17 -133 -59 -51 -61 -43 -152 18 -211 l36 -35 289 0 289 0 36 35 c61 59 69 150 18 211 -36 42 -74 59 -133 59 l-50 0 0 34 c0 38 3 40 80 51 123 19 304 97 439 187 l73 50 37 -35 c87 -86 205 -75 231 21 14 52 -3 106 -49 155 l-38 40 55 81 c95 139 165 314 192 479 18 109 12 327 -11 440 -94 465 -460 831 -926 926 -137 28 -358 28 -492 0z m514 -203 c356 -105 603 -351 712 -711 25 -83 27 -103 27 -265 0 -162 -2 -182 -27 -265 -56 -185 -141 -329 -269 -455 -201 -200 -473 -302 -762 -287 -519 27 -926 434 -953 953 -24 467 260 878 706 1018 125 39 172 45 331 42 121 -3 160 -8 235 -30z"/>
 </g>

</svg>