<svg xmlns="http://www.w3.org/2000/svg" xmlns:xlink="http://www.w3.org/1999/xlink" width="298" height="345" viewBox="0 0 298 345">
	<defs>
		<path id="5wcma" d="M264.57 102.06l5.35-5.36c7.72-7.71 9.13-18.93 3.13-24.93-6-6-17.22-4.6-24.94 3.13l-5.38 5.38A148.3 148.3 0 0 0 168 48.3v-9.58h7.66c10.91 0 19.84-8.71 19.84-19.36C195.5 8.71 186.57 0 175.66 0h-53.32c-10.91 0-19.84 8.71-19.84 19.36 0 10.65 8.93 19.36 19.84 19.36H130v9.58C56.68 57.63 0 120.25 0 196.1c0 82.3 66.7 149 149 149 82.29 0 149-66.7 149-149 0-35.66-12.54-68.4-33.43-94.04zM149 306.26c-60.84 0-110.17-49.32-110.17-110.16 0-60.84 49.33-110.17 110.17-110.17s110.17 49.33 110.17 110.17S209.84 306.27 149 306.27z" />
	</defs>
	<defs>
		<path id="srpca" d="M126.5 0C56.64 0 0 56.64 0 126.5S56.64 253 126.5 253 253 196.36 253 126.5 196.36 0 126.5 0zm0 237.22c-60.84 0-110.17-49.33-110.17-110.17 0-60.85 49.33-110.17 110.17-110.17S236.67 66.2 236.67 127.05c0 60.84-49.33 110.17-110.17 110.17z" style="transform: translate(22px, 69px)" />
	</defs>
	<g>
		<g>
			<use fill="#dedede" xlink:href="#5wcma" />
		</g>
	</g>
	<g>
		<g>
			<use fill="#d22856" xlink:href="#srpca" />
		</g>
	</g>
</svg>
