<svg xmlns="http://www.w3.org/2000/svg" height="19.549" width="23.333"><path d="M15.044.203c2.315-.647 4.099.35 4.914 1.535.925-.302 1.829-.627 2.762-.922-.005 1.122-.717 1.971-1.177 2.303.939.221 1.79-.64 1.79-.64-.233 1.301-1.38 2.328-2.149 2.636-.317 8.79-4.361 14.608-13.841 14.43H6.73c-.563 0-5.72-.598-6.73-2.457 3.122.256 5.348-.549 6.447-1.532-1.319-.39-3.681-.62-4.093-3.84.482.138.777.295 1.637.154C2.343 10.755.514 9.82.615 6.956c.392.427 1.467.698 1.841.615C1.49 7.258-.25 3.196 1.228 1.123c2.498 2.415 5.13 4.695 9.826 4.913.288-2.986 1.56-4.988 3.99-5.833" fill="#d22856"/></svg>